<?xml version="1.0" encoding="utf-8" standalone="no"?>
<!DOCTYPE svg PUBLIC "-//W3C//DTD SVG 1.1//EN"
  "http://www.w3.org/Graphics/SVG/1.1/DTD/svg11.dtd">
<svg xmlns:xlink="http://www.w3.org/1999/xlink" width="998.64pt" height="566.087344pt" viewBox="0 0 998.64 566.087344" xmlns="http://www.w3.org/2000/svg" version="1.1">
 <metadata>
  <rdf:RDF xmlns:dc="http://purl.org/dc/elements/1.1/" xmlns:cc="http://creativecommons.org/ns#" xmlns:rdf="http://www.w3.org/1999/02/22-rdf-syntax-ns#">
   <cc:Work>
    <dc:type rdf:resource="http://purl.org/dc/dcmitype/StillImage"/>
    <dc:date>2026-05-12T23:37:08.915794</dc:date>
    <dc:format>image/svg+xml</dc:format>
    <dc:creator>
     <cc:Agent>
      <dc:title>Matplotlib v3.9.4, https://matplotlib.org/</dc:title>
     </cc:Agent>
    </dc:creator>
   </cc:Work>
  </rdf:RDF>
 </metadata>
 <defs>
  <style type="text/css">*{stroke-linejoin: round; stroke-linecap: butt}</style>
 </defs>
 <g id="figure_1">
  <g id="patch_1">
   <path d="M 0 566.087344 
L 998.64 566.087344 
L 998.64 0 
L 0 0 
z
" style="fill: #fafafa"/>
  </g>
  <g id="axes_1">
   <g id="patch_2">
    <path d="M 105.624 197.499284 
Q 105.624 221.927712 105.624 244.34368 
" style="fill: none; stroke: #9ca3af; stroke-width: 1.8; stroke-linecap: round"/>
    <path d="M 107.824 239.94368 
L 105.624 244.34368 
L 103.424 239.94368 
" style="fill: none; stroke: #9ca3af; stroke-width: 1.8; stroke-linecap: round"/>
   </g>
   <g id="patch_3">
    <path d="M 105.624 329.639284 
Q 105.624 354.067712 105.624 376.48368 
" style="fill: none; stroke: #9ca3af; stroke-width: 1.8; stroke-linecap: round"/>
    <path d="M 107.824 372.08368 
L 105.624 376.48368 
L 103.424 372.08368 
" style="fill: none; stroke: #9ca3af; stroke-width: 1.8; stroke-linecap: round"/>
   </g>
   <g id="patch_4">
    <path d="M 184.961015 155.860344 
Q 218.112118 155.860344 249.250761 155.860344 
" style="fill: none; stroke: #9ca3af; stroke-width: 1.8; stroke-linecap: round"/>
    <path d="M 244.850761 153.660344 
L 249.250761 155.860344 
L 244.850761 158.060344 
" style="fill: none; stroke: #9ca3af; stroke-width: 1.8; stroke-linecap: round"/>
   </g>
   <g id="patch_5">
    <path d="M 184.019152 286.30363 
Q 218.108141 231.841532 251.129397 179.085291 
" style="fill: none; stroke: #9ca3af; stroke-width: 1.8; stroke-linecap: round"/>
    <path d="M 246.930108 181.647705 
L 251.129397 179.085291 
L 250.659755 183.982171 
" style="fill: none; stroke: #9ca3af; stroke-width: 1.8; stroke-linecap: round"/>
   </g>
   <g id="patch_6">
    <path d="M 587.198571 177.677477 
Q 587.198571 192.198529 587.198571 204.70712 
" style="fill: none; stroke: #9ca3af; stroke-width: 1.8; stroke-linecap: round"/>
    <path d="M 589.398571 200.30712 
L 587.198571 204.70712 
L 584.998571 200.30712 
" style="fill: none; stroke: #9ca3af; stroke-width: 1.8; stroke-linecap: round"/>
   </g>
   <g id="patch_7">
    <path d="M 462.323572 301.984972 
Q 416.71325 321.035717 372.959913 339.310827 
" style="fill: none; stroke: #9ca3af; stroke-width: 1.8; stroke-linecap: round"/>
    <path d="M 377.867897 339.645031 
L 372.959913 339.310827 
L 376.172067 335.584962 
" style="fill: none; stroke: #9ca3af; stroke-width: 1.8; stroke-linecap: round"/>
   </g>
   <g id="patch_8">
    <path d="M 586.530042 303.099178 
Q 580.168332 321.035214 574.479355 337.074562 
" style="fill: none; stroke: #9ca3af; stroke-width: 1.8; stroke-linecap: round"/>
    <path d="M 578.023645 333.663109 
L 574.479355 337.074562 
L 573.876767 332.192258 
" style="fill: none; stroke: #9ca3af; stroke-width: 1.8; stroke-linecap: round"/>
   </g>
   <g id="patch_9">
    <path d="M 711.944735 302.232977 
Q 743.620648 321.034287 773.565986 338.80841 
" style="fill: none; stroke: #9ca3af; stroke-width: 1.8; stroke-linecap: round"/>
    <path d="M 770.905205 334.670748 
L 773.565986 338.80841 
L 768.659388 338.454438 
" style="fill: none; stroke: #9ca3af; stroke-width: 1.8; stroke-linecap: round"/>
   </g>
   <g id="patch_10">
    <path d="M 28.290857 202.109344 
L 182.957143 202.109344 
Q 189.987429 202.109344 189.987429 195.502344 
L 189.987429 116.218344 
Q 189.987429 109.611344 182.957143 109.611344 
L 28.290857 109.611344 
Q 21.260571 109.611344 21.260571 116.218344 
L 21.260571 195.502344 
Q 21.260571 202.109344 28.290857 202.109344 
z
" clip-path="url(#p6c4e590a85)" style="fill: #1e40af; stroke: #ffffff; stroke-width: 2; stroke-linejoin: miter"/>
   </g>
   <g id="patch_11">
    <path d="M 28.290857 334.249344 
L 182.957143 334.249344 
Q 189.987429 334.249344 189.987429 327.642344 
L 189.987429 248.358344 
Q 189.987429 241.751344 182.957143 241.751344 
L 28.290857 241.751344 
Q 21.260571 241.751344 21.260571 248.358344 
L 21.260571 327.642344 
Q 21.260571 334.249344 28.290857 334.249344 
z
" clip-path="url(#p6c4e590a85)" style="fill: #065f46; stroke: #ffffff; stroke-width: 2; stroke-linejoin: miter"/>
   </g>
   <g id="patch_12">
    <path d="M 28.290857 466.389344 
L 182.957143 466.389344 
Q 189.987429 466.389344 189.987429 459.782344 
L 189.987429 380.498344 
Q 189.987429 373.891344 182.957143 373.891344 
L 28.290857 373.891344 
Q 21.260571 373.891344 21.260571 380.498344 
L 21.260571 459.782344 
Q 21.260571 466.389344 28.290857 466.389344 
z
" clip-path="url(#p6c4e590a85)" style="fill: #6b7280; stroke: #ffffff; stroke-width: 2; stroke-linejoin: miter"/>
   </g>
   <g id="patch_13">
    <path d="M 253.26 532.459344 
L 956.288571 532.459344 
Q 963.318857 532.459344 963.318857 525.852344 
L 963.318857 63.362344 
Q 963.318857 56.755344 956.288571 56.755344 
L 253.26 56.755344 
Q 246.229714 56.755344 246.229714 63.362344 
L 246.229714 525.852344 
Q 246.229714 532.459344 253.26 532.459344 
z
" clip-path="url(#p6c4e590a85)" style="fill: #eff6ff; stroke: #ffffff; stroke-width: 2; stroke-linejoin: miter"/>
   </g>
   <g id="patch_14">
    <path d="M 281.381143 182.288344 
L 928.167429 182.288344 
Q 935.197714 182.288344 935.197714 175.681344 
L 935.197714 96.397344 
Q 935.197714 89.790344 928.167429 89.790344 
L 281.381143 89.790344 
Q 274.350857 89.790344 274.350857 96.397344 
L 274.350857 175.681344 
Q 274.350857 182.288344 281.381143 182.288344 
z
" clip-path="url(#p6c4e590a85)" style="fill: #dbeafe; stroke: #ffffff; stroke-width: 2; stroke-linejoin: miter"/>
   </g>
   <g id="patch_15">
    <path d="M 393.865714 307.821344 
L 780.531429 307.821344 
Q 787.561714 307.821344 787.561714 301.214344 
L 787.561714 208.716344 
Q 787.561714 202.109344 780.531429 202.109344 
L 393.865714 202.109344 
Q 386.835429 202.109344 386.835429 208.716344 
L 386.835429 301.214344 
Q 386.835429 307.821344 393.865714 307.821344 
z
" clip-path="url(#p6c4e590a85)" style="fill: #8b5cf6; stroke: #ffffff; stroke-width: 2; stroke-linejoin: miter"/>
   </g>
   <g id="patch_16">
    <path d="M 281.381143 446.568344 
L 457.138286 446.568344 
Q 464.168571 446.568344 464.168571 439.961344 
L 464.168571 340.856344 
Q 464.168571 334.249344 457.138286 334.249344 
L 281.381143 334.249344 
Q 274.350857 334.249344 274.350857 340.856344 
L 274.350857 439.961344 
Q 274.350857 446.568344 281.381143 446.568344 
z
" clip-path="url(#p6c4e590a85)" style="fill: #3b82f6; stroke: #ffffff; stroke-width: 2; stroke-linejoin: miter"/>
   </g>
   <g id="patch_17">
    <path d="M 485.259429 446.568344 
L 661.016571 446.568344 
Q 668.046857 446.568344 668.046857 439.961344 
L 668.046857 340.856344 
Q 668.046857 334.249344 661.016571 334.249344 
L 485.259429 334.249344 
Q 478.229143 334.249344 478.229143 340.856344 
L 478.229143 439.961344 
Q 478.229143 446.568344 485.259429 446.568344 
z
" clip-path="url(#p6c4e590a85)" style="fill: #10b981; stroke: #ffffff; stroke-width: 2; stroke-linejoin: miter"/>
   </g>
   <g id="patch_18">
    <path d="M 689.137714 446.568344 
L 864.894857 446.568344 
Q 871.925143 446.568344 871.925143 439.961344 
L 871.925143 340.856344 
Q 871.925143 334.249344 864.894857 334.249344 
L 689.137714 334.249344 
Q 682.107429 334.249344 682.107429 340.856344 
L 682.107429 439.961344 
Q 682.107429 446.568344 689.137714 446.568344 
z
" clip-path="url(#p6c4e590a85)" style="fill: #f59e0b; stroke: #ffffff; stroke-width: 2; stroke-linejoin: miter"/>
   </g>
   <g id="patch_19">
    <path d="M 759.440571 182.288344 
L 921.137143 182.288344 
Q 928.167429 182.288344 928.167429 175.681344 
L 928.167429 96.397344 
Q 928.167429 89.790344 921.137143 89.790344 
L 759.440571 89.790344 
Q 752.410286 89.790344 752.410286 96.397344 
L 752.410286 175.681344 
Q 752.410286 182.288344 759.440571 182.288344 
z
" clip-path="url(#p6c4e590a85)" style="fill: #ec4899; stroke: #ffffff; stroke-width: 2; stroke-linejoin: miter"/>
   </g>
   <g id="text_1">
    <!-- Kiến trúc Hệ thống Gợi ý Tour -->
    <g style="fill: #1f2937" transform="translate(374.548125 20.327344) scale(0.15 -0.15)">
     <defs>
      <path id="DejaVuSans-Bold-4b" d="M 588 4666 
L 1791 4666 
L 1791 2963 
L 3525 4666 
L 4922 4666 
L 2675 2456 
L 5153 0 
L 3647 0 
L 1791 1838 
L 1791 0 
L 588 0 
L 588 4666 
z
" transform="scale(0.015625)"/>
      <path id="DejaVuSans-Bold-69" d="M 538 3500 
L 1656 3500 
L 1656 0 
L 538 0 
L 538 3500 
z
M 538 4863 
L 1656 4863 
L 1656 3950 
L 538 3950 
L 538 4863 
z
" transform="scale(0.015625)"/>
      <path id="DejaVuSans-Bold-1ebf" d="M 4031 1759 
L 4031 1441 
L 1416 1441 
Q 1456 1047 1700 850 
Q 1944 653 2381 653 
Q 2734 653 3104 758 
Q 3475 863 3866 1075 
L 3866 213 
Q 3469 63 3072 -14 
Q 2675 -91 2278 -91 
Q 1328 -91 801 392 
Q 275 875 275 1747 
Q 275 2603 792 3093 
Q 1309 3584 2216 3584 
Q 3041 3584 3536 3087 
Q 4031 2591 4031 1759 
z
M 2881 2131 
Q 2881 2450 2695 2645 
Q 2509 2841 2209 2841 
Q 1884 2841 1681 2658 
Q 1478 2475 1428 2131 
L 2881 2131 
z
M 1759 4769 
L 2721 4769 
L 3418 3944 
L 2862 3944 
L 2240 4447 
L 1618 3944 
L 1062 3944 
L 1759 4769 
z
M 3519 5601 
L 4404 5601 
L 3513 4776 
L 2901 4776 
L 3519 5601 
z
" transform="scale(0.015625)"/>
      <path id="DejaVuSans-Bold-6e" d="M 4056 2131 
L 4056 0 
L 2931 0 
L 2931 347 
L 2931 1631 
Q 2931 2084 2911 2256 
Q 2891 2428 2841 2509 
Q 2775 2619 2662 2680 
Q 2550 2741 2406 2741 
Q 2056 2741 1856 2470 
Q 1656 2200 1656 1722 
L 1656 0 
L 538 0 
L 538 3500 
L 1656 3500 
L 1656 2988 
Q 1909 3294 2193 3439 
Q 2478 3584 2822 3584 
Q 3428 3584 3742 3212 
Q 4056 2841 4056 2131 
z
" transform="scale(0.015625)"/>
      <path id="DejaVuSans-Bold-20" transform="scale(0.015625)"/>
      <path id="DejaVuSans-Bold-74" d="M 1759 4494 
L 1759 3500 
L 2913 3500 
L 2913 2700 
L 1759 2700 
L 1759 1216 
Q 1759 972 1856 886 
Q 1953 800 2241 800 
L 2816 800 
L 2816 0 
L 1856 0 
Q 1194 0 917 276 
Q 641 553 641 1216 
L 641 2700 
L 84 2700 
L 84 3500 
L 641 3500 
L 641 4494 
L 1759 4494 
z
" transform="scale(0.015625)"/>
      <path id="DejaVuSans-Bold-72" d="M 3138 2547 
Q 2991 2616 2845 2648 
Q 2700 2681 2553 2681 
Q 2122 2681 1889 2404 
Q 1656 2128 1656 1613 
L 1656 0 
L 538 0 
L 538 3500 
L 1656 3500 
L 1656 2925 
Q 1872 3269 2151 3426 
Q 2431 3584 2822 3584 
Q 2878 3584 2943 3579 
Q 3009 3575 3134 3559 
L 3138 2547 
z
" transform="scale(0.015625)"/>
      <path id="DejaVuSans-Bold-fa" d="M 500 1363 
L 500 3500 
L 1625 3500 
L 1625 3150 
Q 1625 2866 1622 2436 
Q 1619 2006 1619 1863 
Q 1619 1441 1641 1255 
Q 1663 1069 1716 984 
Q 1784 875 1895 815 
Q 2006 756 2150 756 
Q 2500 756 2700 1025 
Q 2900 1294 2900 1772 
L 2900 3500 
L 4019 3500 
L 4019 0 
L 2900 0 
L 2900 506 
Q 2647 200 2364 54 
Q 2081 -91 1741 -91 
Q 1134 -91 817 281 
Q 500 653 500 1363 
z
M 2782 5119 
L 3666 5119 
L 2513 3944 
L 1901 3944 
L 2782 5119 
z
" transform="scale(0.015625)"/>
      <path id="DejaVuSans-Bold-63" d="M 3366 3391 
L 3366 2478 
Q 3138 2634 2908 2709 
Q 2678 2784 2431 2784 
Q 1963 2784 1702 2511 
Q 1441 2238 1441 1747 
Q 1441 1256 1702 982 
Q 1963 709 2431 709 
Q 2694 709 2930 787 
Q 3166 866 3366 1019 
L 3366 103 
Q 3103 6 2833 -42 
Q 2563 -91 2291 -91 
Q 1344 -91 809 395 
Q 275 881 275 1747 
Q 275 2613 809 3098 
Q 1344 3584 2291 3584 
Q 2566 3584 2833 3536 
Q 3100 3488 3366 3391 
z
" transform="scale(0.015625)"/>
      <path id="DejaVuSans-Bold-48" d="M 588 4666 
L 1791 4666 
L 1791 2888 
L 3566 2888 
L 3566 4666 
L 4769 4666 
L 4769 0 
L 3566 0 
L 3566 1978 
L 1791 1978 
L 1791 0 
L 588 0 
L 588 4666 
z
" transform="scale(0.015625)"/>
      <path id="DejaVuSans-Bold-1ec7" d="M 1714 -447 
L 2833 -447 
L 2833 -1359 
L 1714 -1359 
L 1714 -447 
z
M 4031 1759 
L 4031 1441 
L 1416 1441 
Q 1456 1047 1700 850 
Q 1944 653 2381 653 
Q 2734 653 3104 758 
Q 3475 863 3866 1075 
L 3866 213 
Q 3469 63 3072 -14 
Q 2675 -91 2278 -91 
Q 1328 -91 801 392 
Q 275 875 275 1747 
Q 275 2603 792 3093 
Q 1309 3584 2216 3584 
Q 3041 3584 3536 3087 
Q 4031 2591 4031 1759 
z
M 2881 2131 
Q 2881 2450 2695 2645 
Q 2509 2841 2209 2841 
Q 1884 2841 1681 2658 
Q 1478 2475 1428 2131 
L 2881 2131 
z
M 1902 5119 
L 2658 5119 
L 3458 3944 
L 2902 3944 
L 2280 4647 
L 1658 3944 
L 1102 3944 
L 1902 5119 
z
" transform="scale(0.015625)"/>
      <path id="DejaVuSans-Bold-68" d="M 4056 2131 
L 4056 0 
L 2931 0 
L 2931 347 
L 2931 1625 
Q 2931 2084 2911 2256 
Q 2891 2428 2841 2509 
Q 2775 2619 2662 2680 
Q 2550 2741 2406 2741 
Q 2056 2741 1856 2470 
Q 1656 2200 1656 1722 
L 1656 0 
L 538 0 
L 538 4863 
L 1656 4863 
L 1656 2988 
Q 1909 3294 2193 3439 
Q 2478 3584 2822 3584 
Q 3428 3584 3742 3212 
Q 4056 2841 4056 2131 
z
" transform="scale(0.015625)"/>
      <path id="DejaVuSans-Bold-1ed1" d="M 2203 2784 
Q 1831 2784 1636 2517 
Q 1441 2250 1441 1747 
Q 1441 1244 1636 976 
Q 1831 709 2203 709 
Q 2569 709 2762 976 
Q 2956 1244 2956 1747 
Q 2956 2250 2762 2517 
Q 2569 2784 2203 2784 
z
M 2203 3584 
Q 3106 3584 3614 3096 
Q 4122 2609 4122 1747 
Q 4122 884 3614 396 
Q 3106 -91 2203 -91 
Q 1297 -91 786 396 
Q 275 884 275 1747 
Q 275 2609 786 3096 
Q 1297 3584 2203 3584 
z
M 1703 4769 
L 2665 4769 
L 3362 3944 
L 2806 3944 
L 2184 4447 
L 1562 3944 
L 1006 3944 
L 1703 4769 
z
M 3463 5601 
L 4348 5601 
L 3457 4776 
L 2845 4776 
L 3463 5601 
z
" transform="scale(0.015625)"/>
      <path id="DejaVuSans-Bold-67" d="M 2919 594 
Q 2688 288 2409 144 
Q 2131 0 1766 0 
Q 1125 0 706 504 
Q 288 1009 288 1791 
Q 288 2575 706 3076 
Q 1125 3578 1766 3578 
Q 2131 3578 2409 3434 
Q 2688 3291 2919 2981 
L 2919 3500 
L 4044 3500 
L 4044 353 
Q 4044 -491 3511 -936 
Q 2978 -1381 1966 -1381 
Q 1638 -1381 1331 -1331 
Q 1025 -1281 716 -1178 
L 716 -306 
Q 1009 -475 1290 -558 
Q 1572 -641 1856 -641 
Q 2406 -641 2662 -400 
Q 2919 -159 2919 353 
L 2919 594 
z
M 2181 2772 
Q 1834 2772 1640 2515 
Q 1447 2259 1447 1791 
Q 1447 1309 1634 1061 
Q 1822 813 2181 813 
Q 2531 813 2725 1069 
Q 2919 1325 2919 1791 
Q 2919 2259 2725 2515 
Q 2531 2772 2181 2772 
z
" transform="scale(0.015625)"/>
      <path id="DejaVuSans-Bold-47" d="M 4781 347 
Q 4331 128 3847 18 
Q 3363 -91 2847 -91 
Q 1681 -91 1000 561 
Q 319 1213 319 2328 
Q 319 3456 1012 4103 
Q 1706 4750 2913 4750 
Q 3378 4750 3804 4662 
Q 4231 4575 4609 4403 
L 4609 3438 
Q 4219 3659 3833 3768 
Q 3447 3878 3059 3878 
Q 2341 3878 1952 3476 
Q 1563 3075 1563 2328 
Q 1563 1588 1938 1184 
Q 2313 781 3003 781 
Q 3191 781 3352 804 
Q 3513 828 3641 878 
L 3641 1784 
L 2906 1784 
L 2906 2591 
L 4781 2591 
L 4781 347 
z
" transform="scale(0.015625)"/>
      <path id="DejaVuSans-Bold-1ee3" d="M 1634 -447 
L 2753 -447 
L 2753 -1359 
L 1634 -1359 
L 1634 -447 
z
M 3281 2909 
L 3281 3350 
Q 3491 3194 3605 3134 
Q 3719 3075 3800 3075 
Q 3922 3075 3998 3167 
Q 4075 3259 4075 3413 
Q 4075 3534 4051 3654 
Q 4028 3775 3978 3900 
L 4466 3900 
Q 4500 3728 4517 3581 
Q 4534 3434 4534 3306 
Q 4534 2947 4390 2755 
Q 4247 2563 3978 2563 
Q 3813 2563 3642 2647 
Q 3472 2731 3281 2909 
z
M 2227 2784 
Q 1855 2784 1660 2517 
Q 1465 2250 1465 1747 
Q 1465 1244 1660 976 
Q 1855 709 2227 709 
Q 2593 709 2786 976 
Q 2980 1244 2980 1747 
Q 2980 2250 2786 2517 
Q 2593 2784 2227 2784 
z
M 2227 3584 
Q 3130 3584 3638 3096 
Q 4146 2609 4146 1747 
Q 4146 884 3638 396 
Q 3130 -91 2227 -91 
Q 1321 -91 810 396 
Q 299 884 299 1747 
Q 299 2609 810 3096 
Q 1321 3584 2227 3584 
z
" transform="scale(0.015625)"/>
      <path id="DejaVuSans-Bold-fd" d="M 78 3500 
L 1197 3500 
L 2138 1125 
L 2938 3500 
L 4056 3500 
L 2584 -331 
Q 2363 -916 2067 -1148 
Q 1772 -1381 1288 -1381 
L 641 -1381 
L 641 -647 
L 991 -647 
Q 1275 -647 1404 -556 
Q 1534 -466 1606 -231 
L 1638 -134 
L 78 3500 
z
M 2510 5119 
L 3394 5119 
L 2241 3944 
L 1629 3944 
L 2510 5119 
z
" transform="scale(0.015625)"/>
      <path id="DejaVuSans-Bold-54" d="M 31 4666 
L 4331 4666 
L 4331 3756 
L 2784 3756 
L 2784 0 
L 1581 0 
L 1581 3756 
L 31 3756 
L 31 4666 
z
" transform="scale(0.015625)"/>
      <path id="DejaVuSans-Bold-6f" d="M 2203 2784 
Q 1831 2784 1636 2517 
Q 1441 2250 1441 1747 
Q 1441 1244 1636 976 
Q 1831 709 2203 709 
Q 2569 709 2762 976 
Q 2956 1244 2956 1747 
Q 2956 2250 2762 2517 
Q 2569 2784 2203 2784 
z
M 2203 3584 
Q 3106 3584 3614 3096 
Q 4122 2609 4122 1747 
Q 4122 884 3614 396 
Q 3106 -91 2203 -91 
Q 1297 -91 786 396 
Q 275 884 275 1747 
Q 275 2609 786 3096 
Q 1297 3584 2203 3584 
z
" transform="scale(0.015625)"/>
      <path id="DejaVuSans-Bold-75" d="M 500 1363 
L 500 3500 
L 1625 3500 
L 1625 3150 
Q 1625 2866 1622 2436 
Q 1619 2006 1619 1863 
Q 1619 1441 1641 1255 
Q 1663 1069 1716 984 
Q 1784 875 1895 815 
Q 2006 756 2150 756 
Q 2500 756 2700 1025 
Q 2900 1294 2900 1772 
L 2900 3500 
L 4019 3500 
L 4019 0 
L 2900 0 
L 2900 506 
Q 2647 200 2364 54 
Q 2081 -91 1741 -91 
Q 1134 -91 817 281 
Q 500 653 500 1363 
z
" transform="scale(0.015625)"/>
     </defs>
     <use xlink:href="#DejaVuSans-Bold-4b"/>
     <use xlink:href="#DejaVuSans-Bold-69" x="77.490234"/>
     <use xlink:href="#DejaVuSans-Bold-1ebf" x="111.767578"/>
     <use xlink:href="#DejaVuSans-Bold-6e" x="179.589844"/>
     <use xlink:href="#DejaVuSans-Bold-20" x="250.78125"/>
     <use xlink:href="#DejaVuSans-Bold-74" x="285.595703"/>
     <use xlink:href="#DejaVuSans-Bold-72" x="333.398438"/>
     <use xlink:href="#DejaVuSans-Bold-fa" x="382.714844"/>
     <use xlink:href="#DejaVuSans-Bold-63" x="453.90625"/>
     <use xlink:href="#DejaVuSans-Bold-20" x="513.183594"/>
     <use xlink:href="#DejaVuSans-Bold-48" x="547.998047"/>
     <use xlink:href="#DejaVuSans-Bold-1ec7" x="631.689453"/>
     <use xlink:href="#DejaVuSans-Bold-20" x="699.511719"/>
     <use xlink:href="#DejaVuSans-Bold-74" x="734.326172"/>
     <use xlink:href="#DejaVuSans-Bold-68" x="782.128906"/>
     <use xlink:href="#DejaVuSans-Bold-1ed1" x="853.320312"/>
     <use xlink:href="#DejaVuSans-Bold-6e" x="922.021484"/>
     <use xlink:href="#DejaVuSans-Bold-67" x="993.212891"/>
     <use xlink:href="#DejaVuSans-Bold-20" x="1064.794922"/>
     <use xlink:href="#DejaVuSans-Bold-47" x="1099.609375"/>
     <use xlink:href="#DejaVuSans-Bold-1ee3" x="1181.689453"/>
     <use xlink:href="#DejaVuSans-Bold-69" x="1250.390625"/>
     <use xlink:href="#DejaVuSans-Bold-20" x="1284.667969"/>
     <use xlink:href="#DejaVuSans-Bold-fd" x="1319.482422"/>
     <use xlink:href="#DejaVuSans-Bold-20" x="1384.667969"/>
     <use xlink:href="#DejaVuSans-Bold-54" x="1419.482422"/>
     <use xlink:href="#DejaVuSans-Bold-6f" x="1474.445312"/>
     <use xlink:href="#DejaVuSans-Bold-75" x="1543.146484"/>
     <use xlink:href="#DejaVuSans-Bold-72" x="1614.337891"/>
    </g>
   </g>
   <g id="text_2">
    <!-- Frontend -->
    <g style="fill: #ffffff" transform="translate(77.599781 148.985156) scale(0.11 -0.11)">
     <defs>
      <path id="DejaVuSans-Bold-46" d="M 588 4666 
L 3834 4666 
L 3834 3756 
L 1791 3756 
L 1791 2888 
L 3713 2888 
L 3713 1978 
L 1791 1978 
L 1791 0 
L 588 0 
L 588 4666 
z
" transform="scale(0.015625)"/>
      <path id="DejaVuSans-Bold-65" d="M 4031 1759 
L 4031 1441 
L 1416 1441 
Q 1456 1047 1700 850 
Q 1944 653 2381 653 
Q 2734 653 3104 758 
Q 3475 863 3866 1075 
L 3866 213 
Q 3469 63 3072 -14 
Q 2675 -91 2278 -91 
Q 1328 -91 801 392 
Q 275 875 275 1747 
Q 275 2603 792 3093 
Q 1309 3584 2216 3584 
Q 3041 3584 3536 3087 
Q 4031 2591 4031 1759 
z
M 2881 2131 
Q 2881 2450 2695 2645 
Q 2509 2841 2209 2841 
Q 1884 2841 1681 2658 
Q 1478 2475 1428 2131 
L 2881 2131 
z
" transform="scale(0.015625)"/>
      <path id="DejaVuSans-Bold-64" d="M 2919 2988 
L 2919 4863 
L 4044 4863 
L 4044 0 
L 2919 0 
L 2919 506 
Q 2688 197 2409 53 
Q 2131 -91 1766 -91 
Q 1119 -91 703 423 
Q 288 938 288 1747 
Q 288 2556 703 3070 
Q 1119 3584 1766 3584 
Q 2128 3584 2408 3439 
Q 2688 3294 2919 2988 
z
M 2181 722 
Q 2541 722 2730 984 
Q 2919 1247 2919 1747 
Q 2919 2247 2730 2509 
Q 2541 2772 2181 2772 
Q 1825 2772 1636 2509 
Q 1447 2247 1447 1747 
Q 1447 1247 1636 984 
Q 1825 722 2181 722 
z
" transform="scale(0.015625)"/>
     </defs>
     <use xlink:href="#DejaVuSans-Bold-46"/>
     <use xlink:href="#DejaVuSans-Bold-72" x="61.935547"/>
     <use xlink:href="#DejaVuSans-Bold-6f" x="111.251953"/>
     <use xlink:href="#DejaVuSans-Bold-6e" x="179.953125"/>
     <use xlink:href="#DejaVuSans-Bold-74" x="251.144531"/>
     <use xlink:href="#DejaVuSans-Bold-65" x="298.947266"/>
     <use xlink:href="#DejaVuSans-Bold-6e" x="366.769531"/>
     <use xlink:href="#DejaVuSans-Bold-64" x="437.960938"/>
    </g>
   </g>
   <g id="text_3">
    <!-- Next.js -->
    <g style="fill: #ffffff; opacity: 0.85" transform="translate(90.976773 171.419813) scale(0.085 -0.085)">
     <defs>
      <path id="DejaVuSans-4e" d="M 628 4666 
L 1478 4666 
L 3547 763 
L 3547 4666 
L 4159 4666 
L 4159 0 
L 3309 0 
L 1241 3903 
L 1241 0 
L 628 0 
L 628 4666 
z
" transform="scale(0.015625)"/>
      <path id="DejaVuSans-65" d="M 3597 1894 
L 3597 1613 
L 953 1613 
Q 991 1019 1311 708 
Q 1631 397 2203 397 
Q 2534 397 2845 478 
Q 3156 559 3463 722 
L 3463 178 
Q 3153 47 2828 -22 
Q 2503 -91 2169 -91 
Q 1331 -91 842 396 
Q 353 884 353 1716 
Q 353 2575 817 3079 
Q 1281 3584 2069 3584 
Q 2775 3584 3186 3129 
Q 3597 2675 3597 1894 
z
M 3022 2063 
Q 3016 2534 2758 2815 
Q 2500 3097 2075 3097 
Q 1594 3097 1305 2825 
Q 1016 2553 972 2059 
L 3022 2063 
z
" transform="scale(0.015625)"/>
      <path id="DejaVuSans-78" d="M 3513 3500 
L 2247 1797 
L 3578 0 
L 2900 0 
L 1881 1375 
L 863 0 
L 184 0 
L 1544 1831 
L 300 3500 
L 978 3500 
L 1906 2253 
L 2834 3500 
L 3513 3500 
z
" transform="scale(0.015625)"/>
      <path id="DejaVuSans-74" d="M 1172 4494 
L 1172 3500 
L 2356 3500 
L 2356 3053 
L 1172 3053 
L 1172 1153 
Q 1172 725 1289 603 
Q 1406 481 1766 481 
L 2356 481 
L 2356 0 
L 1766 0 
Q 1100 0 847 248 
Q 594 497 594 1153 
L 594 3053 
L 172 3053 
L 172 3500 
L 594 3500 
L 594 4494 
L 1172 4494 
z
" transform="scale(0.015625)"/>
      <path id="DejaVuSans-2e" d="M 684 794 
L 1344 794 
L 1344 0 
L 684 0 
L 684 794 
z
" transform="scale(0.015625)"/>
      <path id="DejaVuSans-6a" d="M 603 3500 
L 1178 3500 
L 1178 -63 
Q 1178 -731 923 -1031 
Q 669 -1331 103 -1331 
L -116 -1331 
L -116 -844 
L 38 -844 
Q 366 -844 484 -692 
Q 603 -541 603 -63 
L 603 3500 
z
M 603 4863 
L 1178 4863 
L 1178 4134 
L 603 4134 
L 603 4863 
z
" transform="scale(0.015625)"/>
      <path id="DejaVuSans-73" d="M 2834 3397 
L 2834 2853 
Q 2591 2978 2328 3040 
Q 2066 3103 1784 3103 
Q 1356 3103 1142 2972 
Q 928 2841 928 2578 
Q 928 2378 1081 2264 
Q 1234 2150 1697 2047 
L 1894 2003 
Q 2506 1872 2764 1633 
Q 3022 1394 3022 966 
Q 3022 478 2636 193 
Q 2250 -91 1575 -91 
Q 1294 -91 989 -36 
Q 684 19 347 128 
L 347 722 
Q 666 556 975 473 
Q 1284 391 1588 391 
Q 1994 391 2212 530 
Q 2431 669 2431 922 
Q 2431 1156 2273 1281 
Q 2116 1406 1581 1522 
L 1381 1569 
Q 847 1681 609 1914 
Q 372 2147 372 2553 
Q 372 3047 722 3315 
Q 1072 3584 1716 3584 
Q 2034 3584 2315 3537 
Q 2597 3491 2834 3397 
z
" transform="scale(0.015625)"/>
     </defs>
     <use xlink:href="#DejaVuSans-4e"/>
     <use xlink:href="#DejaVuSans-65" x="74.804688"/>
     <use xlink:href="#DejaVuSans-78" x="134.578125"/>
     <use xlink:href="#DejaVuSans-74" x="193.757812"/>
     <use xlink:href="#DejaVuSans-2e" x="232.966797"/>
     <use xlink:href="#DejaVuSans-6a" x="264.753906"/>
     <use xlink:href="#DejaVuSans-73" x="292.537109"/>
    </g>
   </g>
   <g id="text_4">
    <!-- Backend -->
    <g style="fill: #ffffff" transform="translate(79.364078 281.125156) scale(0.11 -0.11)">
     <defs>
      <path id="DejaVuSans-Bold-42" d="M 2456 2859 
Q 2741 2859 2887 2984 
Q 3034 3109 3034 3353 
Q 3034 3594 2887 3720 
Q 2741 3847 2456 3847 
L 1791 3847 
L 1791 2859 
L 2456 2859 
z
M 2497 819 
Q 2859 819 3042 972 
Q 3225 1125 3225 1434 
Q 3225 1738 3044 1889 
Q 2863 2041 2497 2041 
L 1791 2041 
L 1791 819 
L 2497 819 
z
M 3616 2497 
Q 4003 2384 4215 2081 
Q 4428 1778 4428 1338 
Q 4428 663 3972 331 
Q 3516 0 2584 0 
L 588 0 
L 588 4666 
L 2394 4666 
Q 3366 4666 3802 4372 
Q 4238 4078 4238 3431 
Q 4238 3091 4078 2852 
Q 3919 2613 3616 2497 
z
" transform="scale(0.015625)"/>
      <path id="DejaVuSans-Bold-61" d="M 2106 1575 
Q 1756 1575 1579 1456 
Q 1403 1338 1403 1106 
Q 1403 894 1545 773 
Q 1688 653 1941 653 
Q 2256 653 2472 879 
Q 2688 1106 2688 1447 
L 2688 1575 
L 2106 1575 
z
M 3816 1997 
L 3816 0 
L 2688 0 
L 2688 519 
Q 2463 200 2181 54 
Q 1900 -91 1497 -91 
Q 953 -91 614 226 
Q 275 544 275 1050 
Q 275 1666 698 1953 
Q 1122 2241 2028 2241 
L 2688 2241 
L 2688 2328 
Q 2688 2594 2478 2717 
Q 2269 2841 1825 2841 
Q 1466 2841 1156 2769 
Q 847 2697 581 2553 
L 581 3406 
Q 941 3494 1303 3539 
Q 1666 3584 2028 3584 
Q 2975 3584 3395 3211 
Q 3816 2838 3816 1997 
z
" transform="scale(0.015625)"/>
      <path id="DejaVuSans-Bold-6b" d="M 538 4863 
L 1656 4863 
L 1656 2216 
L 2944 3500 
L 4244 3500 
L 2534 1894 
L 4378 0 
L 3022 0 
L 1656 1459 
L 1656 0 
L 538 0 
L 538 4863 
z
" transform="scale(0.015625)"/>
     </defs>
     <use xlink:href="#DejaVuSans-Bold-42"/>
     <use xlink:href="#DejaVuSans-Bold-61" x="76.220703"/>
     <use xlink:href="#DejaVuSans-Bold-63" x="143.701172"/>
     <use xlink:href="#DejaVuSans-Bold-6b" x="202.978516"/>
     <use xlink:href="#DejaVuSans-Bold-65" x="266.857422"/>
     <use xlink:href="#DejaVuSans-Bold-6e" x="334.679688"/>
     <use xlink:href="#DejaVuSans-Bold-64" x="405.871094"/>
    </g>
   </g>
   <g id="text_5">
    <!-- Node.js / Express -->
    <g style="fill: #ffffff; opacity: 0.85" transform="translate(69.058727 303.559813) scale(0.085 -0.085)">
     <defs>
      <path id="DejaVuSans-6f" d="M 1959 3097 
Q 1497 3097 1228 2736 
Q 959 2375 959 1747 
Q 959 1119 1226 758 
Q 1494 397 1959 397 
Q 2419 397 2687 759 
Q 2956 1122 2956 1747 
Q 2956 2369 2687 2733 
Q 2419 3097 1959 3097 
z
M 1959 3584 
Q 2709 3584 3137 3096 
Q 3566 2609 3566 1747 
Q 3566 888 3137 398 
Q 2709 -91 1959 -91 
Q 1206 -91 779 398 
Q 353 888 353 1747 
Q 353 2609 779 3096 
Q 1206 3584 1959 3584 
z
" transform="scale(0.015625)"/>
      <path id="DejaVuSans-64" d="M 2906 2969 
L 2906 4863 
L 3481 4863 
L 3481 0 
L 2906 0 
L 2906 525 
Q 2725 213 2448 61 
Q 2172 -91 1784 -91 
Q 1150 -91 751 415 
Q 353 922 353 1747 
Q 353 2572 751 3078 
Q 1150 3584 1784 3584 
Q 2172 3584 2448 3432 
Q 2725 3281 2906 2969 
z
M 947 1747 
Q 947 1113 1208 752 
Q 1469 391 1925 391 
Q 2381 391 2643 752 
Q 2906 1113 2906 1747 
Q 2906 2381 2643 2742 
Q 2381 3103 1925 3103 
Q 1469 3103 1208 2742 
Q 947 2381 947 1747 
z
" transform="scale(0.015625)"/>
      <path id="DejaVuSans-20" transform="scale(0.015625)"/>
      <path id="DejaVuSans-2f" d="M 1625 4666 
L 2156 4666 
L 531 -594 
L 0 -594 
L 1625 4666 
z
" transform="scale(0.015625)"/>
      <path id="DejaVuSans-45" d="M 628 4666 
L 3578 4666 
L 3578 4134 
L 1259 4134 
L 1259 2753 
L 3481 2753 
L 3481 2222 
L 1259 2222 
L 1259 531 
L 3634 531 
L 3634 0 
L 628 0 
L 628 4666 
z
" transform="scale(0.015625)"/>
      <path id="DejaVuSans-70" d="M 1159 525 
L 1159 -1331 
L 581 -1331 
L 581 3500 
L 1159 3500 
L 1159 2969 
Q 1341 3281 1617 3432 
Q 1894 3584 2278 3584 
Q 2916 3584 3314 3078 
Q 3713 2572 3713 1747 
Q 3713 922 3314 415 
Q 2916 -91 2278 -91 
Q 1894 -91 1617 61 
Q 1341 213 1159 525 
z
M 3116 1747 
Q 3116 2381 2855 2742 
Q 2594 3103 2138 3103 
Q 1681 3103 1420 2742 
Q 1159 2381 1159 1747 
Q 1159 1113 1420 752 
Q 1681 391 2138 391 
Q 2594 391 2855 752 
Q 3116 1113 3116 1747 
z
" transform="scale(0.015625)"/>
      <path id="DejaVuSans-72" d="M 2631 2963 
Q 2534 3019 2420 3045 
Q 2306 3072 2169 3072 
Q 1681 3072 1420 2755 
Q 1159 2438 1159 1844 
L 1159 0 
L 581 0 
L 581 3500 
L 1159 3500 
L 1159 2956 
Q 1341 3275 1631 3429 
Q 1922 3584 2338 3584 
Q 2397 3584 2469 3576 
Q 2541 3569 2628 3553 
L 2631 2963 
z
" transform="scale(0.015625)"/>
     </defs>
     <use xlink:href="#DejaVuSans-4e"/>
     <use xlink:href="#DejaVuSans-6f" x="74.804688"/>
     <use xlink:href="#DejaVuSans-64" x="135.986328"/>
     <use xlink:href="#DejaVuSans-65" x="199.462891"/>
     <use xlink:href="#DejaVuSans-2e" x="260.986328"/>
     <use xlink:href="#DejaVuSans-6a" x="292.773438"/>
     <use xlink:href="#DejaVuSans-73" x="320.556641"/>
     <use xlink:href="#DejaVuSans-20" x="372.65625"/>
     <use xlink:href="#DejaVuSans-2f" x="404.443359"/>
     <use xlink:href="#DejaVuSans-20" x="438.134766"/>
     <use xlink:href="#DejaVuSans-45" x="469.921875"/>
     <use xlink:href="#DejaVuSans-78" x="533.105469"/>
     <use xlink:href="#DejaVuSans-70" x="592.285156"/>
     <use xlink:href="#DejaVuSans-72" x="655.761719"/>
     <use xlink:href="#DejaVuSans-65" x="694.625"/>
     <use xlink:href="#DejaVuSans-73" x="756.148438"/>
     <use xlink:href="#DejaVuSans-73" x="808.248047"/>
    </g>
   </g>
   <g id="text_6">
    <!-- MongoDB Atlas -->
    <g style="fill: #ffffff" transform="translate(64.764352 412.814141) scale(0.095 -0.095)">
     <defs>
      <path id="DejaVuSans-Bold-4d" d="M 588 4666 
L 2119 4666 
L 3181 2169 
L 4250 4666 
L 5778 4666 
L 5778 0 
L 4641 0 
L 4641 3413 
L 3566 897 
L 2803 897 
L 1728 3413 
L 1728 0 
L 588 0 
L 588 4666 
z
" transform="scale(0.015625)"/>
      <path id="DejaVuSans-Bold-44" d="M 1791 3756 
L 1791 909 
L 2222 909 
Q 2959 909 3348 1275 
Q 3738 1641 3738 2338 
Q 3738 3031 3350 3393 
Q 2963 3756 2222 3756 
L 1791 3756 
z
M 588 4666 
L 1856 4666 
Q 2919 4666 3439 4514 
Q 3959 4363 4331 4000 
Q 4659 3684 4818 3271 
Q 4978 2859 4978 2338 
Q 4978 1809 4818 1395 
Q 4659 981 4331 666 
Q 3956 303 3431 151 
Q 2906 0 1856 0 
L 588 0 
L 588 4666 
z
" transform="scale(0.015625)"/>
      <path id="DejaVuSans-Bold-41" d="M 3419 850 
L 1538 850 
L 1241 0 
L 31 0 
L 1759 4666 
L 3194 4666 
L 4922 0 
L 3713 0 
L 3419 850 
z
M 1838 1716 
L 3116 1716 
L 2478 3572 
L 1838 1716 
z
" transform="scale(0.015625)"/>
      <path id="DejaVuSans-Bold-6c" d="M 538 4863 
L 1656 4863 
L 1656 0 
L 538 0 
L 538 4863 
z
" transform="scale(0.015625)"/>
      <path id="DejaVuSans-Bold-73" d="M 3272 3391 
L 3272 2541 
Q 2913 2691 2578 2766 
Q 2244 2841 1947 2841 
Q 1628 2841 1473 2761 
Q 1319 2681 1319 2516 
Q 1319 2381 1436 2309 
Q 1553 2238 1856 2203 
L 2053 2175 
Q 2913 2066 3209 1816 
Q 3506 1566 3506 1031 
Q 3506 472 3093 190 
Q 2681 -91 1863 -91 
Q 1516 -91 1145 -36 
Q 775 19 384 128 
L 384 978 
Q 719 816 1070 734 
Q 1422 653 1784 653 
Q 2113 653 2278 743 
Q 2444 834 2444 1013 
Q 2444 1163 2330 1236 
Q 2216 1309 1875 1350 
L 1678 1375 
Q 931 1469 631 1722 
Q 331 1975 331 2491 
Q 331 3047 712 3315 
Q 1094 3584 1881 3584 
Q 2191 3584 2531 3537 
Q 2872 3491 3272 3391 
z
" transform="scale(0.015625)"/>
     </defs>
     <use xlink:href="#DejaVuSans-Bold-4d"/>
     <use xlink:href="#DejaVuSans-Bold-6f" x="99.511719"/>
     <use xlink:href="#DejaVuSans-Bold-6e" x="168.212891"/>
     <use xlink:href="#DejaVuSans-Bold-67" x="239.404297"/>
     <use xlink:href="#DejaVuSans-Bold-6f" x="310.986328"/>
     <use xlink:href="#DejaVuSans-Bold-44" x="379.6875"/>
     <use xlink:href="#DejaVuSans-Bold-42" x="462.695312"/>
     <use xlink:href="#DejaVuSans-Bold-20" x="538.916016"/>
     <use xlink:href="#DejaVuSans-Bold-41" x="573.730469"/>
     <use xlink:href="#DejaVuSans-Bold-74" x="651.123047"/>
     <use xlink:href="#DejaVuSans-Bold-6c" x="698.925781"/>
     <use xlink:href="#DejaVuSans-Bold-61" x="733.203125"/>
     <use xlink:href="#DejaVuSans-Bold-73" x="800.683594"/>
    </g>
   </g>
   <g id="text_7">
    <!-- tbl_tours, tbl_booking -->
    <g style="fill: #ffffff; opacity: 0.85" transform="translate(59.729312 430.704336) scale(0.085 -0.085)">
     <defs>
      <path id="DejaVuSans-62" d="M 3116 1747 
Q 3116 2381 2855 2742 
Q 2594 3103 2138 3103 
Q 1681 3103 1420 2742 
Q 1159 2381 1159 1747 
Q 1159 1113 1420 752 
Q 1681 391 2138 391 
Q 2594 391 2855 752 
Q 3116 1113 3116 1747 
z
M 1159 2969 
Q 1341 3281 1617 3432 
Q 1894 3584 2278 3584 
Q 2916 3584 3314 3078 
Q 3713 2572 3713 1747 
Q 3713 922 3314 415 
Q 2916 -91 2278 -91 
Q 1894 -91 1617 61 
Q 1341 213 1159 525 
L 1159 0 
L 581 0 
L 581 4863 
L 1159 4863 
L 1159 2969 
z
" transform="scale(0.015625)"/>
      <path id="DejaVuSans-6c" d="M 603 4863 
L 1178 4863 
L 1178 0 
L 603 0 
L 603 4863 
z
" transform="scale(0.015625)"/>
      <path id="DejaVuSans-5f" d="M 3263 -1063 
L 3263 -1509 
L -63 -1509 
L -63 -1063 
L 3263 -1063 
z
" transform="scale(0.015625)"/>
      <path id="DejaVuSans-75" d="M 544 1381 
L 544 3500 
L 1119 3500 
L 1119 1403 
Q 1119 906 1312 657 
Q 1506 409 1894 409 
Q 2359 409 2629 706 
Q 2900 1003 2900 1516 
L 2900 3500 
L 3475 3500 
L 3475 0 
L 2900 0 
L 2900 538 
Q 2691 219 2414 64 
Q 2138 -91 1772 -91 
Q 1169 -91 856 284 
Q 544 659 544 1381 
z
M 1991 3584 
L 1991 3584 
z
" transform="scale(0.015625)"/>
      <path id="DejaVuSans-2c" d="M 750 794 
L 1409 794 
L 1409 256 
L 897 -744 
L 494 -744 
L 750 256 
L 750 794 
z
" transform="scale(0.015625)"/>
      <path id="DejaVuSans-6b" d="M 581 4863 
L 1159 4863 
L 1159 1991 
L 2875 3500 
L 3609 3500 
L 1753 1863 
L 3688 0 
L 2938 0 
L 1159 1709 
L 1159 0 
L 581 0 
L 581 4863 
z
" transform="scale(0.015625)"/>
      <path id="DejaVuSans-69" d="M 603 3500 
L 1178 3500 
L 1178 0 
L 603 0 
L 603 3500 
z
M 603 4863 
L 1178 4863 
L 1178 4134 
L 603 4134 
L 603 4863 
z
" transform="scale(0.015625)"/>
      <path id="DejaVuSans-6e" d="M 3513 2113 
L 3513 0 
L 2938 0 
L 2938 2094 
Q 2938 2591 2744 2837 
Q 2550 3084 2163 3084 
Q 1697 3084 1428 2787 
Q 1159 2491 1159 1978 
L 1159 0 
L 581 0 
L 581 3500 
L 1159 3500 
L 1159 2956 
Q 1366 3272 1645 3428 
Q 1925 3584 2291 3584 
Q 2894 3584 3203 3211 
Q 3513 2838 3513 2113 
z
" transform="scale(0.015625)"/>
      <path id="DejaVuSans-67" d="M 2906 1791 
Q 2906 2416 2648 2759 
Q 2391 3103 1925 3103 
Q 1463 3103 1205 2759 
Q 947 2416 947 1791 
Q 947 1169 1205 825 
Q 1463 481 1925 481 
Q 2391 481 2648 825 
Q 2906 1169 2906 1791 
z
M 3481 434 
Q 3481 -459 3084 -895 
Q 2688 -1331 1869 -1331 
Q 1566 -1331 1297 -1286 
Q 1028 -1241 775 -1147 
L 775 -588 
Q 1028 -725 1275 -790 
Q 1522 -856 1778 -856 
Q 2344 -856 2625 -561 
Q 2906 -266 2906 331 
L 2906 616 
Q 2728 306 2450 153 
Q 2172 0 1784 0 
Q 1141 0 747 490 
Q 353 981 353 1791 
Q 353 2603 747 3093 
Q 1141 3584 1784 3584 
Q 2172 3584 2450 3431 
Q 2728 3278 2906 2969 
L 2906 3500 
L 3481 3500 
L 3481 434 
z
" transform="scale(0.015625)"/>
     </defs>
     <use xlink:href="#DejaVuSans-74"/>
     <use xlink:href="#DejaVuSans-62" x="39.208984"/>
     <use xlink:href="#DejaVuSans-6c" x="102.685547"/>
     <use xlink:href="#DejaVuSans-5f" x="130.46875"/>
     <use xlink:href="#DejaVuSans-74" x="180.46875"/>
     <use xlink:href="#DejaVuSans-6f" x="219.677734"/>
     <use xlink:href="#DejaVuSans-75" x="280.859375"/>
     <use xlink:href="#DejaVuSans-72" x="344.238281"/>
     <use xlink:href="#DejaVuSans-73" x="385.351562"/>
     <use xlink:href="#DejaVuSans-2c" x="437.451172"/>
     <use xlink:href="#DejaVuSans-20" x="469.238281"/>
     <use xlink:href="#DejaVuSans-74" x="501.025391"/>
     <use xlink:href="#DejaVuSans-62" x="540.234375"/>
     <use xlink:href="#DejaVuSans-6c" x="603.710938"/>
     <use xlink:href="#DejaVuSans-5f" x="631.494141"/>
     <use xlink:href="#DejaVuSans-62" x="681.494141"/>
     <use xlink:href="#DejaVuSans-6f" x="744.970703"/>
     <use xlink:href="#DejaVuSans-6f" x="806.152344"/>
     <use xlink:href="#DejaVuSans-6b" x="867.333984"/>
     <use xlink:href="#DejaVuSans-69" x="925.244141"/>
     <use xlink:href="#DejaVuSans-6e" x="953.027344"/>
     <use xlink:href="#DejaVuSans-67" x="1016.40625"/>
    </g>
    <!-- tbl_reviews, tbl_users -->
    <g style="fill: #ffffff; opacity: 0.85" transform="translate(59.831578 440.458883) scale(0.085 -0.085)">
     <defs>
      <path id="DejaVuSans-76" d="M 191 3500 
L 800 3500 
L 1894 563 
L 2988 3500 
L 3597 3500 
L 2284 0 
L 1503 0 
L 191 3500 
z
" transform="scale(0.015625)"/>
      <path id="DejaVuSans-77" d="M 269 3500 
L 844 3500 
L 1563 769 
L 2278 3500 
L 2956 3500 
L 3675 769 
L 4391 3500 
L 4966 3500 
L 4050 0 
L 3372 0 
L 2619 2869 
L 1863 0 
L 1184 0 
L 269 3500 
z
" transform="scale(0.015625)"/>
     </defs>
     <use xlink:href="#DejaVuSans-74"/>
     <use xlink:href="#DejaVuSans-62" x="39.208984"/>
     <use xlink:href="#DejaVuSans-6c" x="102.685547"/>
     <use xlink:href="#DejaVuSans-5f" x="130.46875"/>
     <use xlink:href="#DejaVuSans-72" x="180.46875"/>
     <use xlink:href="#DejaVuSans-65" x="219.332031"/>
     <use xlink:href="#DejaVuSans-76" x="280.855469"/>
     <use xlink:href="#DejaVuSans-69" x="340.035156"/>
     <use xlink:href="#DejaVuSans-65" x="367.818359"/>
     <use xlink:href="#DejaVuSans-77" x="429.341797"/>
     <use xlink:href="#DejaVuSans-73" x="511.128906"/>
     <use xlink:href="#DejaVuSans-2c" x="563.228516"/>
     <use xlink:href="#DejaVuSans-20" x="595.015625"/>
     <use xlink:href="#DejaVuSans-74" x="626.802734"/>
     <use xlink:href="#DejaVuSans-62" x="666.011719"/>
     <use xlink:href="#DejaVuSans-6c" x="729.488281"/>
     <use xlink:href="#DejaVuSans-5f" x="757.271484"/>
     <use xlink:href="#DejaVuSans-75" x="807.271484"/>
     <use xlink:href="#DejaVuSans-73" x="870.650391"/>
     <use xlink:href="#DejaVuSans-65" x="922.75"/>
     <use xlink:href="#DejaVuSans-72" x="984.273438"/>
     <use xlink:href="#DejaVuSans-73" x="1025.386719"/>
    </g>
   </g>
   <g id="text_8">
    <!-- Recommendation Service  (FastAPI · Python) -->
    <g style="fill: #1e3a8a" transform="translate(453.285536 297.871719) scale(0.12 -0.12)">
     <defs>
      <path id="DejaVuSans-Bold-52" d="M 2297 2597 
Q 2675 2597 2839 2737 
Q 3003 2878 3003 3200 
Q 3003 3519 2839 3656 
Q 2675 3794 2297 3794 
L 1791 3794 
L 1791 2597 
L 2297 2597 
z
M 1791 1766 
L 1791 0 
L 588 0 
L 588 4666 
L 2425 4666 
Q 3347 4666 3776 4356 
Q 4206 4047 4206 3378 
Q 4206 2916 3982 2619 
Q 3759 2322 3309 2181 
Q 3556 2125 3751 1926 
Q 3947 1728 4147 1325 
L 4800 0 
L 3519 0 
L 2950 1159 
Q 2778 1509 2601 1637 
Q 2425 1766 2131 1766 
L 1791 1766 
z
" transform="scale(0.015625)"/>
      <path id="DejaVuSans-Bold-6d" d="M 3781 2919 
Q 3994 3244 4286 3414 
Q 4578 3584 4928 3584 
Q 5531 3584 5847 3212 
Q 6163 2841 6163 2131 
L 6163 0 
L 5038 0 
L 5038 1825 
Q 5041 1866 5042 1909 
Q 5044 1953 5044 2034 
Q 5044 2406 4934 2573 
Q 4825 2741 4581 2741 
Q 4263 2741 4089 2478 
Q 3916 2216 3909 1719 
L 3909 0 
L 2784 0 
L 2784 1825 
Q 2784 2406 2684 2573 
Q 2584 2741 2328 2741 
Q 2006 2741 1831 2477 
Q 1656 2213 1656 1722 
L 1656 0 
L 531 0 
L 531 3500 
L 1656 3500 
L 1656 2988 
Q 1863 3284 2130 3434 
Q 2397 3584 2719 3584 
Q 3081 3584 3359 3409 
Q 3638 3234 3781 2919 
z
" transform="scale(0.015625)"/>
      <path id="DejaVuSans-Bold-53" d="M 3834 4519 
L 3834 3531 
Q 3450 3703 3084 3790 
Q 2719 3878 2394 3878 
Q 1963 3878 1756 3759 
Q 1550 3641 1550 3391 
Q 1550 3203 1689 3098 
Q 1828 2994 2194 2919 
L 2706 2816 
Q 3484 2659 3812 2340 
Q 4141 2022 4141 1434 
Q 4141 663 3683 286 
Q 3225 -91 2284 -91 
Q 1841 -91 1394 -6 
Q 947 78 500 244 
L 500 1259 
Q 947 1022 1364 901 
Q 1781 781 2169 781 
Q 2563 781 2772 912 
Q 2981 1044 2981 1288 
Q 2981 1506 2839 1625 
Q 2697 1744 2272 1838 
L 1806 1941 
Q 1106 2091 782 2419 
Q 459 2747 459 3303 
Q 459 4000 909 4375 
Q 1359 4750 2203 4750 
Q 2588 4750 2994 4692 
Q 3400 4634 3834 4519 
z
" transform="scale(0.015625)"/>
      <path id="DejaVuSans-Bold-76" d="M 97 3500 
L 1216 3500 
L 2088 1081 
L 2956 3500 
L 4078 3500 
L 2700 0 
L 1472 0 
L 97 3500 
z
" transform="scale(0.015625)"/>
      <path id="DejaVuSans-Bold-28" d="M 2413 -844 
L 1484 -844 
Q 1006 -72 778 623 
Q 550 1319 550 2003 
Q 550 2688 779 3389 
Q 1009 4091 1484 4856 
L 2413 4856 
Q 2013 4116 1813 3408 
Q 1613 2700 1613 2009 
Q 1613 1319 1811 609 
Q 2009 -100 2413 -844 
z
" transform="scale(0.015625)"/>
      <path id="DejaVuSans-Bold-50" d="M 588 4666 
L 2584 4666 
Q 3475 4666 3951 4270 
Q 4428 3875 4428 3144 
Q 4428 2409 3951 2014 
Q 3475 1619 2584 1619 
L 1791 1619 
L 1791 0 
L 588 0 
L 588 4666 
z
M 1791 3794 
L 1791 2491 
L 2456 2491 
Q 2806 2491 2997 2661 
Q 3188 2831 3188 3144 
Q 3188 3456 2997 3625 
Q 2806 3794 2456 3794 
L 1791 3794 
z
" transform="scale(0.015625)"/>
      <path id="DejaVuSans-Bold-49" d="M 588 4666 
L 1791 4666 
L 1791 0 
L 588 0 
L 588 4666 
z
" transform="scale(0.015625)"/>
      <path id="DejaVuSans-Bold-b7" d="M 653 2828 
L 1778 2828 
L 1778 1619 
L 653 1619 
L 653 2828 
z
" transform="scale(0.015625)"/>
      <path id="DejaVuSans-Bold-79" d="M 78 3500 
L 1197 3500 
L 2138 1125 
L 2938 3500 
L 4056 3500 
L 2584 -331 
Q 2363 -916 2067 -1148 
Q 1772 -1381 1288 -1381 
L 641 -1381 
L 641 -647 
L 991 -647 
Q 1275 -647 1404 -556 
Q 1534 -466 1606 -231 
L 1638 -134 
L 78 3500 
z
" transform="scale(0.015625)"/>
      <path id="DejaVuSans-Bold-29" d="M 513 -844 
Q 913 -100 1113 609 
Q 1313 1319 1313 2009 
Q 1313 2700 1113 3408 
Q 913 4116 513 4856 
L 1441 4856 
Q 1916 4091 2145 3389 
Q 2375 2688 2375 2003 
Q 2375 1319 2147 623 
Q 1919 -72 1441 -844 
L 513 -844 
z
" transform="scale(0.015625)"/>
     </defs>
     <use xlink:href="#DejaVuSans-Bold-52"/>
     <use xlink:href="#DejaVuSans-Bold-65" x="77.001953"/>
     <use xlink:href="#DejaVuSans-Bold-63" x="144.824219"/>
     <use xlink:href="#DejaVuSans-Bold-6f" x="204.101562"/>
     <use xlink:href="#DejaVuSans-Bold-6d" x="272.802734"/>
     <use xlink:href="#DejaVuSans-Bold-6d" x="377.001953"/>
     <use xlink:href="#DejaVuSans-Bold-65" x="481.201172"/>
     <use xlink:href="#DejaVuSans-Bold-6e" x="549.023438"/>
     <use xlink:href="#DejaVuSans-Bold-64" x="620.214844"/>
     <use xlink:href="#DejaVuSans-Bold-61" x="691.796875"/>
     <use xlink:href="#DejaVuSans-Bold-74" x="759.277344"/>
     <use xlink:href="#DejaVuSans-Bold-69" x="807.080078"/>
     <use xlink:href="#DejaVuSans-Bold-6f" x="841.357422"/>
     <use xlink:href="#DejaVuSans-Bold-6e" x="910.058594"/>
     <use xlink:href="#DejaVuSans-Bold-20" x="981.25"/>
     <use xlink:href="#DejaVuSans-Bold-53" x="1016.064453"/>
     <use xlink:href="#DejaVuSans-Bold-65" x="1088.085938"/>
     <use xlink:href="#DejaVuSans-Bold-72" x="1155.908203"/>
     <use xlink:href="#DejaVuSans-Bold-76" x="1205.224609"/>
     <use xlink:href="#DejaVuSans-Bold-69" x="1270.410156"/>
     <use xlink:href="#DejaVuSans-Bold-63" x="1304.6875"/>
     <use xlink:href="#DejaVuSans-Bold-65" x="1363.964844"/>
     <use xlink:href="#DejaVuSans-Bold-20" x="1431.787109"/>
     <use xlink:href="#DejaVuSans-Bold-20" x="1466.601562"/>
     <use xlink:href="#DejaVuSans-Bold-28" x="1501.416016"/>
     <use xlink:href="#DejaVuSans-Bold-46" x="1547.119141"/>
     <use xlink:href="#DejaVuSans-Bold-61" x="1609.554688"/>
     <use xlink:href="#DejaVuSans-Bold-73" x="1677.035156"/>
     <use xlink:href="#DejaVuSans-Bold-74" x="1736.556641"/>
     <use xlink:href="#DejaVuSans-Bold-41" x="1784.359375"/>
     <use xlink:href="#DejaVuSans-Bold-50" x="1861.751953"/>
     <use xlink:href="#DejaVuSans-Bold-49" x="1935.042969"/>
     <use xlink:href="#DejaVuSans-Bold-20" x="1972.25"/>
     <use xlink:href="#DejaVuSans-Bold-b7" x="2007.064453"/>
     <use xlink:href="#DejaVuSans-Bold-20" x="2045.052734"/>
     <use xlink:href="#DejaVuSans-Bold-50" x="2079.867188"/>
     <use xlink:href="#DejaVuSans-Bold-79" x="2155.033203"/>
     <use xlink:href="#DejaVuSans-Bold-74" x="2220.21875"/>
     <use xlink:href="#DejaVuSans-Bold-68" x="2268.021484"/>
     <use xlink:href="#DejaVuSans-Bold-6f" x="2339.212891"/>
     <use xlink:href="#DejaVuSans-Bold-6e" x="2407.914062"/>
     <use xlink:href="#DejaVuSans-Bold-29" x="2479.105469"/>
    </g>
   </g>
   <g id="text_9">
    <!-- API Layer -->
    <g style="fill: #1e3a8a" transform="translate(578.118817 128.810094) scale(0.1 -0.1)">
     <defs>
      <path id="DejaVuSans-Bold-4c" d="M 588 4666 
L 1791 4666 
L 1791 909 
L 3903 909 
L 3903 0 
L 588 0 
L 588 4666 
z
" transform="scale(0.015625)"/>
     </defs>
     <use xlink:href="#DejaVuSans-Bold-41"/>
     <use xlink:href="#DejaVuSans-Bold-50" x="77.392578"/>
     <use xlink:href="#DejaVuSans-Bold-49" x="150.683594"/>
     <use xlink:href="#DejaVuSans-Bold-20" x="187.890625"/>
     <use xlink:href="#DejaVuSans-Bold-4c" x="222.705078"/>
     <use xlink:href="#DejaVuSans-Bold-61" x="286.425781"/>
     <use xlink:href="#DejaVuSans-Bold-79" x="350.78125"/>
     <use xlink:href="#DejaVuSans-Bold-65" x="415.966797"/>
     <use xlink:href="#DejaVuSans-Bold-72" x="483.789062"/>
    </g>
   </g>
   <g id="text_10">
    <!-- /recommend/homepage  /similar  /post-booking  /track  /analytics -->
    <g style="fill: #1e3a8a; opacity: 0.85" transform="translate(465.520379 151.598813) scale(0.085 -0.085)">
     <defs>
      <path id="DejaVuSans-63" d="M 3122 3366 
L 3122 2828 
Q 2878 2963 2633 3030 
Q 2388 3097 2138 3097 
Q 1578 3097 1268 2742 
Q 959 2388 959 1747 
Q 959 1106 1268 751 
Q 1578 397 2138 397 
Q 2388 397 2633 464 
Q 2878 531 3122 666 
L 3122 134 
Q 2881 22 2623 -34 
Q 2366 -91 2075 -91 
Q 1284 -91 818 406 
Q 353 903 353 1747 
Q 353 2603 823 3093 
Q 1294 3584 2113 3584 
Q 2378 3584 2631 3529 
Q 2884 3475 3122 3366 
z
" transform="scale(0.015625)"/>
      <path id="DejaVuSans-6d" d="M 3328 2828 
Q 3544 3216 3844 3400 
Q 4144 3584 4550 3584 
Q 5097 3584 5394 3201 
Q 5691 2819 5691 2113 
L 5691 0 
L 5113 0 
L 5113 2094 
Q 5113 2597 4934 2840 
Q 4756 3084 4391 3084 
Q 3944 3084 3684 2787 
Q 3425 2491 3425 1978 
L 3425 0 
L 2847 0 
L 2847 2094 
Q 2847 2600 2669 2842 
Q 2491 3084 2119 3084 
Q 1678 3084 1418 2786 
Q 1159 2488 1159 1978 
L 1159 0 
L 581 0 
L 581 3500 
L 1159 3500 
L 1159 2956 
Q 1356 3278 1631 3431 
Q 1906 3584 2284 3584 
Q 2666 3584 2933 3390 
Q 3200 3197 3328 2828 
z
" transform="scale(0.015625)"/>
      <path id="DejaVuSans-68" d="M 3513 2113 
L 3513 0 
L 2938 0 
L 2938 2094 
Q 2938 2591 2744 2837 
Q 2550 3084 2163 3084 
Q 1697 3084 1428 2787 
Q 1159 2491 1159 1978 
L 1159 0 
L 581 0 
L 581 4863 
L 1159 4863 
L 1159 2956 
Q 1366 3272 1645 3428 
Q 1925 3584 2291 3584 
Q 2894 3584 3203 3211 
Q 3513 2838 3513 2113 
z
" transform="scale(0.015625)"/>
      <path id="DejaVuSans-61" d="M 2194 1759 
Q 1497 1759 1228 1600 
Q 959 1441 959 1056 
Q 959 750 1161 570 
Q 1363 391 1709 391 
Q 2188 391 2477 730 
Q 2766 1069 2766 1631 
L 2766 1759 
L 2194 1759 
z
M 3341 1997 
L 3341 0 
L 2766 0 
L 2766 531 
Q 2569 213 2275 61 
Q 1981 -91 1556 -91 
Q 1019 -91 701 211 
Q 384 513 384 1019 
Q 384 1609 779 1909 
Q 1175 2209 1959 2209 
L 2766 2209 
L 2766 2266 
Q 2766 2663 2505 2880 
Q 2244 3097 1772 3097 
Q 1472 3097 1187 3025 
Q 903 2953 641 2809 
L 641 3341 
Q 956 3463 1253 3523 
Q 1550 3584 1831 3584 
Q 2591 3584 2966 3190 
Q 3341 2797 3341 1997 
z
" transform="scale(0.015625)"/>
      <path id="DejaVuSans-2d" d="M 313 2009 
L 1997 2009 
L 1997 1497 
L 313 1497 
L 313 2009 
z
" transform="scale(0.015625)"/>
      <path id="DejaVuSans-79" d="M 2059 -325 
Q 1816 -950 1584 -1140 
Q 1353 -1331 966 -1331 
L 506 -1331 
L 506 -850 
L 844 -850 
Q 1081 -850 1212 -737 
Q 1344 -625 1503 -206 
L 1606 56 
L 191 3500 
L 800 3500 
L 1894 763 
L 2988 3500 
L 3597 3500 
L 2059 -325 
z
" transform="scale(0.015625)"/>
     </defs>
     <use xlink:href="#DejaVuSans-2f"/>
     <use xlink:href="#DejaVuSans-72" x="33.691406"/>
     <use xlink:href="#DejaVuSans-65" x="72.554688"/>
     <use xlink:href="#DejaVuSans-63" x="134.078125"/>
     <use xlink:href="#DejaVuSans-6f" x="189.058594"/>
     <use xlink:href="#DejaVuSans-6d" x="250.240234"/>
     <use xlink:href="#DejaVuSans-6d" x="347.652344"/>
     <use xlink:href="#DejaVuSans-65" x="445.064453"/>
     <use xlink:href="#DejaVuSans-6e" x="506.587891"/>
     <use xlink:href="#DejaVuSans-64" x="569.966797"/>
     <use xlink:href="#DejaVuSans-2f" x="633.443359"/>
     <use xlink:href="#DejaVuSans-68" x="667.134766"/>
     <use xlink:href="#DejaVuSans-6f" x="730.513672"/>
     <use xlink:href="#DejaVuSans-6d" x="791.695312"/>
     <use xlink:href="#DejaVuSans-65" x="889.107422"/>
     <use xlink:href="#DejaVuSans-70" x="950.630859"/>
     <use xlink:href="#DejaVuSans-61" x="1014.107422"/>
     <use xlink:href="#DejaVuSans-67" x="1075.386719"/>
     <use xlink:href="#DejaVuSans-65" x="1138.863281"/>
     <use xlink:href="#DejaVuSans-20" x="1200.386719"/>
     <use xlink:href="#DejaVuSans-20" x="1232.173828"/>
     <use xlink:href="#DejaVuSans-2f" x="1263.960938"/>
     <use xlink:href="#DejaVuSans-73" x="1297.652344"/>
     <use xlink:href="#DejaVuSans-69" x="1349.751953"/>
     <use xlink:href="#DejaVuSans-6d" x="1377.535156"/>
     <use xlink:href="#DejaVuSans-69" x="1474.947266"/>
     <use xlink:href="#DejaVuSans-6c" x="1502.730469"/>
     <use xlink:href="#DejaVuSans-61" x="1530.513672"/>
     <use xlink:href="#DejaVuSans-72" x="1591.792969"/>
     <use xlink:href="#DejaVuSans-20" x="1632.90625"/>
     <use xlink:href="#DejaVuSans-20" x="1664.693359"/>
     <use xlink:href="#DejaVuSans-2f" x="1696.480469"/>
     <use xlink:href="#DejaVuSans-70" x="1730.171875"/>
     <use xlink:href="#DejaVuSans-6f" x="1793.648438"/>
     <use xlink:href="#DejaVuSans-73" x="1854.830078"/>
     <use xlink:href="#DejaVuSans-74" x="1906.929688"/>
     <use xlink:href="#DejaVuSans-2d" x="1946.138672"/>
     <use xlink:href="#DejaVuSans-62" x="1982.222656"/>
     <use xlink:href="#DejaVuSans-6f" x="2045.699219"/>
     <use xlink:href="#DejaVuSans-6f" x="2106.880859"/>
     <use xlink:href="#DejaVuSans-6b" x="2168.0625"/>
     <use xlink:href="#DejaVuSans-69" x="2225.972656"/>
     <use xlink:href="#DejaVuSans-6e" x="2253.755859"/>
     <use xlink:href="#DejaVuSans-67" x="2317.134766"/>
     <use xlink:href="#DejaVuSans-20" x="2380.611328"/>
     <use xlink:href="#DejaVuSans-20" x="2412.398438"/>
     <use xlink:href="#DejaVuSans-2f" x="2444.185547"/>
     <use xlink:href="#DejaVuSans-74" x="2477.876953"/>
     <use xlink:href="#DejaVuSans-72" x="2517.085938"/>
     <use xlink:href="#DejaVuSans-61" x="2558.199219"/>
     <use xlink:href="#DejaVuSans-63" x="2619.478516"/>
     <use xlink:href="#DejaVuSans-6b" x="2674.458984"/>
     <use xlink:href="#DejaVuSans-20" x="2732.369141"/>
     <use xlink:href="#DejaVuSans-20" x="2764.15625"/>
     <use xlink:href="#DejaVuSans-2f" x="2795.943359"/>
     <use xlink:href="#DejaVuSans-61" x="2829.634766"/>
     <use xlink:href="#DejaVuSans-6e" x="2890.914062"/>
     <use xlink:href="#DejaVuSans-61" x="2954.292969"/>
     <use xlink:href="#DejaVuSans-6c" x="3015.572266"/>
     <use xlink:href="#DejaVuSans-79" x="3043.355469"/>
     <use xlink:href="#DejaVuSans-74" x="3102.535156"/>
     <use xlink:href="#DejaVuSans-69" x="3141.744141"/>
     <use xlink:href="#DejaVuSans-63" x="3169.527344"/>
     <use xlink:href="#DejaVuSans-73" x="3224.507812"/>
    </g>
   </g>
   <g id="text_11">
    <!-- Hybrid Recommender -->
    <g style="fill: #ffffff" transform="translate(520.132087 248.047187) scale(0.11 -0.11)">
     <defs>
      <path id="DejaVuSans-Bold-62" d="M 2400 722 
Q 2759 722 2948 984 
Q 3138 1247 3138 1747 
Q 3138 2247 2948 2509 
Q 2759 2772 2400 2772 
Q 2041 2772 1848 2508 
Q 1656 2244 1656 1747 
Q 1656 1250 1848 986 
Q 2041 722 2400 722 
z
M 1656 2988 
Q 1888 3294 2169 3439 
Q 2450 3584 2816 3584 
Q 3463 3584 3878 3070 
Q 4294 2556 4294 1747 
Q 4294 938 3878 423 
Q 3463 -91 2816 -91 
Q 2450 -91 2169 54 
Q 1888 200 1656 506 
L 1656 0 
L 538 0 
L 538 4863 
L 1656 4863 
L 1656 2988 
z
" transform="scale(0.015625)"/>
     </defs>
     <use xlink:href="#DejaVuSans-Bold-48"/>
     <use xlink:href="#DejaVuSans-Bold-79" x="83.691406"/>
     <use xlink:href="#DejaVuSans-Bold-62" x="148.876953"/>
     <use xlink:href="#DejaVuSans-Bold-72" x="220.458984"/>
     <use xlink:href="#DejaVuSans-Bold-69" x="269.775391"/>
     <use xlink:href="#DejaVuSans-Bold-64" x="304.052734"/>
     <use xlink:href="#DejaVuSans-Bold-20" x="375.634766"/>
     <use xlink:href="#DejaVuSans-Bold-52" x="410.449219"/>
     <use xlink:href="#DejaVuSans-Bold-65" x="487.451172"/>
     <use xlink:href="#DejaVuSans-Bold-63" x="555.273438"/>
     <use xlink:href="#DejaVuSans-Bold-6f" x="614.550781"/>
     <use xlink:href="#DejaVuSans-Bold-6d" x="683.251953"/>
     <use xlink:href="#DejaVuSans-Bold-6d" x="787.451172"/>
     <use xlink:href="#DejaVuSans-Bold-65" x="891.650391"/>
     <use xlink:href="#DejaVuSans-Bold-6e" x="959.472656"/>
     <use xlink:href="#DejaVuSans-Bold-64" x="1030.664062"/>
     <use xlink:href="#DejaVuSans-Bold-65" x="1102.246094"/>
     <use xlink:href="#DejaVuSans-Bold-72" x="1170.068359"/>
    </g>
   </g>
   <g id="text_12">
    <!-- Điều phối CF + CB + Popularity -->
    <g style="fill: #ffffff; opacity: 0.85" transform="translate(520.425759 270.887391) scale(0.085 -0.085)">
     <defs>
      <path id="DejaVuSans-110" d="M 659 4666 
L 1959 4666 
Q 3313 4666 3947 4102 
Q 4581 3538 4581 2338 
Q 4581 1131 3945 565 
Q 3309 0 1959 0 
L 659 0 
L 659 2188 
L 31 2188 
L 31 2638 
L 659 2638 
L 659 4666 
z
M 1294 4147 
L 1294 2638 
L 2344 2638 
L 2344 2188 
L 1294 2188 
L 1294 519 
L 2053 519 
Q 3019 519 3467 956 
Q 3916 1394 3916 2338 
Q 3916 3275 3467 3711 
Q 3019 4147 2053 4147 
L 1294 4147 
z
" transform="scale(0.015625)"/>
      <path id="DejaVuSans-1ec1" d="M 2774 5409 
L 3386 4584 
L 2908 4584 
L 2190 5409 
L 2774 5409 
z
M 1738 4775 
L 2326 4775 
L 2985 3944 
L 2551 3944 
L 2032 4500 
L 1513 3944 
L 1079 3944 
L 1738 4775 
z
M 3597 1894 
L 3597 1613 
L 953 1613 
Q 991 1019 1311 708 
Q 1631 397 2203 397 
Q 2534 397 2845 478 
Q 3156 559 3463 722 
L 3463 178 
Q 3153 47 2828 -22 
Q 2503 -91 2169 -91 
Q 1331 -91 842 396 
Q 353 884 353 1716 
Q 353 2575 817 3079 
Q 1281 3584 2069 3584 
Q 2775 3584 3186 3129 
Q 3597 2675 3597 1894 
z
M 3022 2063 
Q 3016 2534 2758 2815 
Q 2500 3097 2075 3097 
Q 1594 3097 1305 2825 
Q 1016 2553 972 2059 
L 3022 2063 
z
" transform="scale(0.015625)"/>
      <path id="DejaVuSans-1ed1" d="M 1658 4775 
L 2246 4775 
L 2905 3944 
L 2471 3944 
L 1952 4500 
L 1433 3944 
L 999 3944 
L 1658 4775 
z
M 3268 5409 
L 3846 5409 
L 3134 4584 
L 2655 4584 
L 3268 5409 
z
M 1959 3097 
Q 1497 3097 1228 2736 
Q 959 2375 959 1747 
Q 959 1119 1226 758 
Q 1494 397 1959 397 
Q 2419 397 2687 759 
Q 2956 1122 2956 1747 
Q 2956 2369 2687 2733 
Q 2419 3097 1959 3097 
z
M 1959 3584 
Q 2709 3584 3137 3096 
Q 3566 2609 3566 1747 
Q 3566 888 3137 398 
Q 2709 -91 1959 -91 
Q 1206 -91 779 398 
Q 353 888 353 1747 
Q 353 2609 779 3096 
Q 1206 3584 1959 3584 
z
" transform="scale(0.015625)"/>
      <path id="DejaVuSans-43" d="M 4122 4306 
L 4122 3641 
Q 3803 3938 3442 4084 
Q 3081 4231 2675 4231 
Q 1875 4231 1450 3742 
Q 1025 3253 1025 2328 
Q 1025 1406 1450 917 
Q 1875 428 2675 428 
Q 3081 428 3442 575 
Q 3803 722 4122 1019 
L 4122 359 
Q 3791 134 3420 21 
Q 3050 -91 2638 -91 
Q 1578 -91 968 557 
Q 359 1206 359 2328 
Q 359 3453 968 4101 
Q 1578 4750 2638 4750 
Q 3056 4750 3426 4639 
Q 3797 4528 4122 4306 
z
" transform="scale(0.015625)"/>
      <path id="DejaVuSans-46" d="M 628 4666 
L 3309 4666 
L 3309 4134 
L 1259 4134 
L 1259 2759 
L 3109 2759 
L 3109 2228 
L 1259 2228 
L 1259 0 
L 628 0 
L 628 4666 
z
" transform="scale(0.015625)"/>
      <path id="DejaVuSans-2b" d="M 2944 4013 
L 2944 2272 
L 4684 2272 
L 4684 1741 
L 2944 1741 
L 2944 0 
L 2419 0 
L 2419 1741 
L 678 1741 
L 678 2272 
L 2419 2272 
L 2419 4013 
L 2944 4013 
z
" transform="scale(0.015625)"/>
      <path id="DejaVuSans-42" d="M 1259 2228 
L 1259 519 
L 2272 519 
Q 2781 519 3026 730 
Q 3272 941 3272 1375 
Q 3272 1813 3026 2020 
Q 2781 2228 2272 2228 
L 1259 2228 
z
M 1259 4147 
L 1259 2741 
L 2194 2741 
Q 2656 2741 2882 2914 
Q 3109 3088 3109 3444 
Q 3109 3797 2882 3972 
Q 2656 4147 2194 4147 
L 1259 4147 
z
M 628 4666 
L 2241 4666 
Q 2963 4666 3353 4366 
Q 3744 4066 3744 3513 
Q 3744 3084 3544 2831 
Q 3344 2578 2956 2516 
Q 3422 2416 3680 2098 
Q 3938 1781 3938 1306 
Q 3938 681 3513 340 
Q 3088 0 2303 0 
L 628 0 
L 628 4666 
z
" transform="scale(0.015625)"/>
      <path id="DejaVuSans-50" d="M 1259 4147 
L 1259 2394 
L 2053 2394 
Q 2494 2394 2734 2622 
Q 2975 2850 2975 3272 
Q 2975 3691 2734 3919 
Q 2494 4147 2053 4147 
L 1259 4147 
z
M 628 4666 
L 2053 4666 
Q 2838 4666 3239 4311 
Q 3641 3956 3641 3272 
Q 3641 2581 3239 2228 
Q 2838 1875 2053 1875 
L 1259 1875 
L 1259 0 
L 628 0 
L 628 4666 
z
" transform="scale(0.015625)"/>
     </defs>
     <use xlink:href="#DejaVuSans-110"/>
     <use xlink:href="#DejaVuSans-69" x="77.490234"/>
     <use xlink:href="#DejaVuSans-1ec1" x="105.273438"/>
     <use xlink:href="#DejaVuSans-75" x="166.796875"/>
     <use xlink:href="#DejaVuSans-20" x="230.175781"/>
     <use xlink:href="#DejaVuSans-70" x="261.962891"/>
     <use xlink:href="#DejaVuSans-68" x="325.439453"/>
     <use xlink:href="#DejaVuSans-1ed1" x="388.818359"/>
     <use xlink:href="#DejaVuSans-69" x="450"/>
     <use xlink:href="#DejaVuSans-20" x="477.783203"/>
     <use xlink:href="#DejaVuSans-43" x="509.570312"/>
     <use xlink:href="#DejaVuSans-46" x="579.394531"/>
     <use xlink:href="#DejaVuSans-20" x="636.914062"/>
     <use xlink:href="#DejaVuSans-2b" x="668.701172"/>
     <use xlink:href="#DejaVuSans-20" x="752.490234"/>
     <use xlink:href="#DejaVuSans-43" x="784.277344"/>
     <use xlink:href="#DejaVuSans-42" x="854.101562"/>
     <use xlink:href="#DejaVuSans-20" x="922.705078"/>
     <use xlink:href="#DejaVuSans-2b" x="954.492188"/>
     <use xlink:href="#DejaVuSans-20" x="1038.28125"/>
     <use xlink:href="#DejaVuSans-50" x="1070.068359"/>
     <use xlink:href="#DejaVuSans-6f" x="1126.746094"/>
     <use xlink:href="#DejaVuSans-70" x="1187.927734"/>
     <use xlink:href="#DejaVuSans-75" x="1251.404297"/>
     <use xlink:href="#DejaVuSans-6c" x="1314.783203"/>
     <use xlink:href="#DejaVuSans-61" x="1342.566406"/>
     <use xlink:href="#DejaVuSans-72" x="1403.845703"/>
     <use xlink:href="#DejaVuSans-69" x="1444.958984"/>
     <use xlink:href="#DejaVuSans-74" x="1472.742188"/>
     <use xlink:href="#DejaVuSans-79" x="1511.951172"/>
    </g>
   </g>
   <g id="text_13">
    <!-- Collaborative -->
    <g style="fill: #ffffff" transform="translate(331.744089 377.61975) scale(0.1 -0.1)">
     <defs>
      <path id="DejaVuSans-Bold-43" d="M 4288 256 
Q 3956 84 3597 -3 
Q 3238 -91 2847 -91 
Q 1681 -91 1000 561 
Q 319 1213 319 2328 
Q 319 3447 1000 4098 
Q 1681 4750 2847 4750 
Q 3238 4750 3597 4662 
Q 3956 4575 4288 4403 
L 4288 3438 
Q 3953 3666 3628 3772 
Q 3303 3878 2944 3878 
Q 2300 3878 1931 3465 
Q 1563 3053 1563 2328 
Q 1563 1606 1931 1193 
Q 2300 781 2944 781 
Q 3303 781 3628 887 
Q 3953 994 4288 1222 
L 4288 256 
z
" transform="scale(0.015625)"/>
     </defs>
     <use xlink:href="#DejaVuSans-Bold-43"/>
     <use xlink:href="#DejaVuSans-Bold-6f" x="73.388672"/>
     <use xlink:href="#DejaVuSans-Bold-6c" x="142.089844"/>
     <use xlink:href="#DejaVuSans-Bold-6c" x="176.367188"/>
     <use xlink:href="#DejaVuSans-Bold-61" x="210.644531"/>
     <use xlink:href="#DejaVuSans-Bold-62" x="278.125"/>
     <use xlink:href="#DejaVuSans-Bold-6f" x="349.707031"/>
     <use xlink:href="#DejaVuSans-Bold-72" x="418.408203"/>
     <use xlink:href="#DejaVuSans-Bold-61" x="467.724609"/>
     <use xlink:href="#DejaVuSans-Bold-74" x="535.205078"/>
     <use xlink:href="#DejaVuSans-Bold-69" x="583.007812"/>
     <use xlink:href="#DejaVuSans-Bold-76" x="617.285156"/>
     <use xlink:href="#DejaVuSans-Bold-65" x="682.470703"/>
    </g>
    <!-- Filtering -->
    <g style="fill: #ffffff" transform="translate(345.316746 388.817563) scale(0.1 -0.1)">
     <use xlink:href="#DejaVuSans-Bold-46"/>
     <use xlink:href="#DejaVuSans-Bold-69" x="68.310547"/>
     <use xlink:href="#DejaVuSans-Bold-6c" x="102.587891"/>
     <use xlink:href="#DejaVuSans-Bold-74" x="136.865234"/>
     <use xlink:href="#DejaVuSans-Bold-65" x="184.667969"/>
     <use xlink:href="#DejaVuSans-Bold-72" x="252.490234"/>
     <use xlink:href="#DejaVuSans-Bold-69" x="301.806641"/>
     <use xlink:href="#DejaVuSans-Bold-6e" x="336.083984"/>
     <use xlink:href="#DejaVuSans-Bold-67" x="407.275391"/>
    </g>
   </g>
   <g id="text_14">
    <!-- User-Based CF -->
    <g style="fill: #ffffff; opacity: 0.85" transform="translate(338.654402 401.209242) scale(0.085 -0.085)">
     <defs>
      <path id="DejaVuSans-55" d="M 556 4666 
L 1191 4666 
L 1191 1831 
Q 1191 1081 1462 751 
Q 1734 422 2344 422 
Q 2950 422 3222 751 
Q 3494 1081 3494 1831 
L 3494 4666 
L 4128 4666 
L 4128 1753 
Q 4128 841 3676 375 
Q 3225 -91 2344 -91 
Q 1459 -91 1007 375 
Q 556 841 556 1753 
L 556 4666 
z
" transform="scale(0.015625)"/>
     </defs>
     <use xlink:href="#DejaVuSans-55"/>
     <use xlink:href="#DejaVuSans-73" x="73.193359"/>
     <use xlink:href="#DejaVuSans-65" x="125.292969"/>
     <use xlink:href="#DejaVuSans-72" x="186.816406"/>
     <use xlink:href="#DejaVuSans-2d" x="221.554688"/>
     <use xlink:href="#DejaVuSans-42" x="254.013672"/>
     <use xlink:href="#DejaVuSans-61" x="322.617188"/>
     <use xlink:href="#DejaVuSans-73" x="383.896484"/>
     <use xlink:href="#DejaVuSans-65" x="435.996094"/>
     <use xlink:href="#DejaVuSans-64" x="497.519531"/>
     <use xlink:href="#DejaVuSans-20" x="560.996094"/>
     <use xlink:href="#DejaVuSans-43" x="592.783203"/>
     <use xlink:href="#DejaVuSans-46" x="662.607422"/>
    </g>
    <!-- Cosine Similarity -->
    <g style="fill: #ffffff; opacity: 0.85" transform="translate(333.543777 410.727383) scale(0.085 -0.085)">
     <defs>
      <path id="DejaVuSans-53" d="M 3425 4513 
L 3425 3897 
Q 3066 4069 2747 4153 
Q 2428 4238 2131 4238 
Q 1616 4238 1336 4038 
Q 1056 3838 1056 3469 
Q 1056 3159 1242 3001 
Q 1428 2844 1947 2747 
L 2328 2669 
Q 3034 2534 3370 2195 
Q 3706 1856 3706 1288 
Q 3706 609 3251 259 
Q 2797 -91 1919 -91 
Q 1588 -91 1214 -16 
Q 841 59 441 206 
L 441 856 
Q 825 641 1194 531 
Q 1563 422 1919 422 
Q 2459 422 2753 634 
Q 3047 847 3047 1241 
Q 3047 1584 2836 1778 
Q 2625 1972 2144 2069 
L 1759 2144 
Q 1053 2284 737 2584 
Q 422 2884 422 3419 
Q 422 4038 858 4394 
Q 1294 4750 2059 4750 
Q 2388 4750 2728 4690 
Q 3069 4631 3425 4513 
z
" transform="scale(0.015625)"/>
     </defs>
     <use xlink:href="#DejaVuSans-43"/>
     <use xlink:href="#DejaVuSans-6f" x="69.824219"/>
     <use xlink:href="#DejaVuSans-73" x="131.005859"/>
     <use xlink:href="#DejaVuSans-69" x="183.105469"/>
     <use xlink:href="#DejaVuSans-6e" x="210.888672"/>
     <use xlink:href="#DejaVuSans-65" x="274.267578"/>
     <use xlink:href="#DejaVuSans-20" x="335.791016"/>
     <use xlink:href="#DejaVuSans-53" x="367.578125"/>
     <use xlink:href="#DejaVuSans-69" x="431.054688"/>
     <use xlink:href="#DejaVuSans-6d" x="458.837891"/>
     <use xlink:href="#DejaVuSans-69" x="556.25"/>
     <use xlink:href="#DejaVuSans-6c" x="584.033203"/>
     <use xlink:href="#DejaVuSans-61" x="611.816406"/>
     <use xlink:href="#DejaVuSans-72" x="673.095703"/>
     <use xlink:href="#DejaVuSans-69" x="714.208984"/>
     <use xlink:href="#DejaVuSans-74" x="741.992188"/>
     <use xlink:href="#DejaVuSans-79" x="781.201172"/>
    </g>
   </g>
   <g id="text_15">
    <!-- Content-Based -->
    <g style="fill: #ffffff" transform="translate(531.537219 377.61975) scale(0.1 -0.1)">
     <defs>
      <path id="DejaVuSans-Bold-2d" d="M 347 2297 
L 2309 2297 
L 2309 1388 
L 347 1388 
L 347 2297 
z
" transform="scale(0.015625)"/>
     </defs>
     <use xlink:href="#DejaVuSans-Bold-43"/>
     <use xlink:href="#DejaVuSans-Bold-6f" x="73.388672"/>
     <use xlink:href="#DejaVuSans-Bold-6e" x="142.089844"/>
     <use xlink:href="#DejaVuSans-Bold-74" x="213.28125"/>
     <use xlink:href="#DejaVuSans-Bold-65" x="261.083984"/>
     <use xlink:href="#DejaVuSans-Bold-6e" x="328.90625"/>
     <use xlink:href="#DejaVuSans-Bold-74" x="400.097656"/>
     <use xlink:href="#DejaVuSans-Bold-2d" x="447.900391"/>
     <use xlink:href="#DejaVuSans-Bold-42" x="489.404297"/>
     <use xlink:href="#DejaVuSans-Bold-61" x="565.625"/>
     <use xlink:href="#DejaVuSans-Bold-73" x="633.105469"/>
     <use xlink:href="#DejaVuSans-Bold-65" x="692.626953"/>
     <use xlink:href="#DejaVuSans-Bold-64" x="760.449219"/>
    </g>
    <!-- Filtering -->
    <g style="fill: #ffffff" transform="translate(549.195031 388.817563) scale(0.1 -0.1)">
     <use xlink:href="#DejaVuSans-Bold-46"/>
     <use xlink:href="#DejaVuSans-Bold-69" x="68.310547"/>
     <use xlink:href="#DejaVuSans-Bold-6c" x="102.587891"/>
     <use xlink:href="#DejaVuSans-Bold-74" x="136.865234"/>
     <use xlink:href="#DejaVuSans-Bold-65" x="184.667969"/>
     <use xlink:href="#DejaVuSans-Bold-72" x="252.490234"/>
     <use xlink:href="#DejaVuSans-Bold-69" x="301.806641"/>
     <use xlink:href="#DejaVuSans-Bold-6e" x="336.083984"/>
     <use xlink:href="#DejaVuSans-Bold-67" x="407.275391"/>
    </g>
   </g>
   <g id="text_16">
    <!-- Feature Engineering -->
    <g style="fill: #ffffff; opacity: 0.85" transform="translate(530.230266 401.209242) scale(0.085 -0.085)">
     <use xlink:href="#DejaVuSans-46"/>
     <use xlink:href="#DejaVuSans-65" x="52.019531"/>
     <use xlink:href="#DejaVuSans-61" x="113.542969"/>
     <use xlink:href="#DejaVuSans-74" x="174.822266"/>
     <use xlink:href="#DejaVuSans-75" x="214.03125"/>
     <use xlink:href="#DejaVuSans-72" x="277.410156"/>
     <use xlink:href="#DejaVuSans-65" x="316.273438"/>
     <use xlink:href="#DejaVuSans-20" x="377.796875"/>
     <use xlink:href="#DejaVuSans-45" x="409.583984"/>
     <use xlink:href="#DejaVuSans-6e" x="472.767578"/>
     <use xlink:href="#DejaVuSans-67" x="536.146484"/>
     <use xlink:href="#DejaVuSans-69" x="599.623047"/>
     <use xlink:href="#DejaVuSans-6e" x="627.40625"/>
     <use xlink:href="#DejaVuSans-65" x="690.785156"/>
     <use xlink:href="#DejaVuSans-65" x="752.308594"/>
     <use xlink:href="#DejaVuSans-72" x="813.832031"/>
     <use xlink:href="#DejaVuSans-69" x="854.945312"/>
     <use xlink:href="#DejaVuSans-6e" x="882.728516"/>
     <use xlink:href="#DejaVuSans-67" x="946.107422"/>
    </g>
    <!-- TF-IDF + One-Hot -->
    <g style="fill: #ffffff; opacity: 0.85" transform="translate(535.680891 410.727383) scale(0.085 -0.085)">
     <defs>
      <path id="DejaVuSans-54" d="M -19 4666 
L 3928 4666 
L 3928 4134 
L 2272 4134 
L 2272 0 
L 1638 0 
L 1638 4134 
L -19 4134 
L -19 4666 
z
" transform="scale(0.015625)"/>
      <path id="DejaVuSans-49" d="M 628 4666 
L 1259 4666 
L 1259 0 
L 628 0 
L 628 4666 
z
" transform="scale(0.015625)"/>
      <path id="DejaVuSans-44" d="M 1259 4147 
L 1259 519 
L 2022 519 
Q 2988 519 3436 956 
Q 3884 1394 3884 2338 
Q 3884 3275 3436 3711 
Q 2988 4147 2022 4147 
L 1259 4147 
z
M 628 4666 
L 1925 4666 
Q 3281 4666 3915 4102 
Q 4550 3538 4550 2338 
Q 4550 1131 3912 565 
Q 3275 0 1925 0 
L 628 0 
L 628 4666 
z
" transform="scale(0.015625)"/>
      <path id="DejaVuSans-4f" d="M 2522 4238 
Q 1834 4238 1429 3725 
Q 1025 3213 1025 2328 
Q 1025 1447 1429 934 
Q 1834 422 2522 422 
Q 3209 422 3611 934 
Q 4013 1447 4013 2328 
Q 4013 3213 3611 3725 
Q 3209 4238 2522 4238 
z
M 2522 4750 
Q 3503 4750 4090 4092 
Q 4678 3434 4678 2328 
Q 4678 1225 4090 567 
Q 3503 -91 2522 -91 
Q 1538 -91 948 565 
Q 359 1222 359 2328 
Q 359 3434 948 4092 
Q 1538 4750 2522 4750 
z
" transform="scale(0.015625)"/>
      <path id="DejaVuSans-48" d="M 628 4666 
L 1259 4666 
L 1259 2753 
L 3553 2753 
L 3553 4666 
L 4184 4666 
L 4184 0 
L 3553 0 
L 3553 2222 
L 1259 2222 
L 1259 0 
L 628 0 
L 628 4666 
z
" transform="scale(0.015625)"/>
     </defs>
     <use xlink:href="#DejaVuSans-54"/>
     <use xlink:href="#DejaVuSans-46" x="61.083984"/>
     <use xlink:href="#DejaVuSans-2d" x="118.603516"/>
     <use xlink:href="#DejaVuSans-49" x="154.6875"/>
     <use xlink:href="#DejaVuSans-44" x="184.179688"/>
     <use xlink:href="#DejaVuSans-46" x="261.181641"/>
     <use xlink:href="#DejaVuSans-20" x="318.701172"/>
     <use xlink:href="#DejaVuSans-2b" x="350.488281"/>
     <use xlink:href="#DejaVuSans-20" x="434.277344"/>
     <use xlink:href="#DejaVuSans-4f" x="466.064453"/>
     <use xlink:href="#DejaVuSans-6e" x="544.775391"/>
     <use xlink:href="#DejaVuSans-65" x="608.154297"/>
     <use xlink:href="#DejaVuSans-2d" x="669.677734"/>
     <use xlink:href="#DejaVuSans-48" x="705.761719"/>
     <use xlink:href="#DejaVuSans-6f" x="780.957031"/>
     <use xlink:href="#DejaVuSans-74" x="842.138672"/>
    </g>
   </g>
   <g id="text_17">
    <!-- Popularity -->
    <g style="fill: #ffffff" transform="translate(747.860817 377.61975) scale(0.1 -0.1)">
     <defs>
      <path id="DejaVuSans-Bold-70" d="M 1656 506 
L 1656 -1331 
L 538 -1331 
L 538 3500 
L 1656 3500 
L 1656 2988 
Q 1888 3294 2169 3439 
Q 2450 3584 2816 3584 
Q 3463 3584 3878 3070 
Q 4294 2556 4294 1747 
Q 4294 938 3878 423 
Q 3463 -91 2816 -91 
Q 2450 -91 2169 54 
Q 1888 200 1656 506 
z
M 2400 2772 
Q 2041 2772 1848 2508 
Q 1656 2244 1656 1747 
Q 1656 1250 1848 986 
Q 2041 722 2400 722 
Q 2759 722 2948 984 
Q 3138 1247 3138 1747 
Q 3138 2247 2948 2509 
Q 2759 2772 2400 2772 
z
" transform="scale(0.015625)"/>
     </defs>
     <use xlink:href="#DejaVuSans-Bold-50"/>
     <use xlink:href="#DejaVuSans-Bold-6f" x="73.291016"/>
     <use xlink:href="#DejaVuSans-Bold-70" x="141.992188"/>
     <use xlink:href="#DejaVuSans-Bold-75" x="213.574219"/>
     <use xlink:href="#DejaVuSans-Bold-6c" x="284.765625"/>
     <use xlink:href="#DejaVuSans-Bold-61" x="319.042969"/>
     <use xlink:href="#DejaVuSans-Bold-72" x="386.523438"/>
     <use xlink:href="#DejaVuSans-Bold-69" x="435.839844"/>
     <use xlink:href="#DejaVuSans-Bold-74" x="470.117188"/>
     <use xlink:href="#DejaVuSans-Bold-79" x="517.919922"/>
    </g>
    <!-- Score -->
    <g style="fill: #ffffff" transform="translate(761.159254 388.895688) scale(0.1 -0.1)">
     <use xlink:href="#DejaVuSans-Bold-53"/>
     <use xlink:href="#DejaVuSans-Bold-63" x="72.021484"/>
     <use xlink:href="#DejaVuSans-Bold-6f" x="131.298828"/>
     <use xlink:href="#DejaVuSans-Bold-72" x="200"/>
     <use xlink:href="#DejaVuSans-Bold-65" x="249.316406"/>
    </g>
   </g>
   <g id="text_18">
    <!-- 0.6×bookings -->
    <g style="fill: #ffffff; opacity: 0.85" transform="translate(747.54984 401.209242) scale(0.085 -0.085)">
     <defs>
      <path id="DejaVuSans-30" d="M 2034 4250 
Q 1547 4250 1301 3770 
Q 1056 3291 1056 2328 
Q 1056 1369 1301 889 
Q 1547 409 2034 409 
Q 2525 409 2770 889 
Q 3016 1369 3016 2328 
Q 3016 3291 2770 3770 
Q 2525 4250 2034 4250 
z
M 2034 4750 
Q 2819 4750 3233 4129 
Q 3647 3509 3647 2328 
Q 3647 1150 3233 529 
Q 2819 -91 2034 -91 
Q 1250 -91 836 529 
Q 422 1150 422 2328 
Q 422 3509 836 4129 
Q 1250 4750 2034 4750 
z
" transform="scale(0.015625)"/>
      <path id="DejaVuSans-36" d="M 2113 2584 
Q 1688 2584 1439 2293 
Q 1191 2003 1191 1497 
Q 1191 994 1439 701 
Q 1688 409 2113 409 
Q 2538 409 2786 701 
Q 3034 994 3034 1497 
Q 3034 2003 2786 2293 
Q 2538 2584 2113 2584 
z
M 3366 4563 
L 3366 3988 
Q 3128 4100 2886 4159 
Q 2644 4219 2406 4219 
Q 1781 4219 1451 3797 
Q 1122 3375 1075 2522 
Q 1259 2794 1537 2939 
Q 1816 3084 2150 3084 
Q 2853 3084 3261 2657 
Q 3669 2231 3669 1497 
Q 3669 778 3244 343 
Q 2819 -91 2113 -91 
Q 1303 -91 875 529 
Q 447 1150 447 2328 
Q 447 3434 972 4092 
Q 1497 4750 2381 4750 
Q 2619 4750 2861 4703 
Q 3103 4656 3366 4563 
z
" transform="scale(0.015625)"/>
      <path id="DejaVuSans-d7" d="M 4488 3438 
L 3059 2003 
L 4488 575 
L 4116 197 
L 2681 1631 
L 1247 197 
L 878 575 
L 2303 2003 
L 878 3438 
L 1247 3816 
L 2681 2381 
L 4116 3816 
L 4488 3438 
z
" transform="scale(0.015625)"/>
     </defs>
     <use xlink:href="#DejaVuSans-30"/>
     <use xlink:href="#DejaVuSans-2e" x="63.623047"/>
     <use xlink:href="#DejaVuSans-36" x="95.410156"/>
     <use xlink:href="#DejaVuSans-d7" x="159.033203"/>
     <use xlink:href="#DejaVuSans-62" x="242.822266"/>
     <use xlink:href="#DejaVuSans-6f" x="306.298828"/>
     <use xlink:href="#DejaVuSans-6f" x="367.480469"/>
     <use xlink:href="#DejaVuSans-6b" x="428.662109"/>
     <use xlink:href="#DejaVuSans-69" x="486.572266"/>
     <use xlink:href="#DejaVuSans-6e" x="514.355469"/>
     <use xlink:href="#DejaVuSans-67" x="577.734375"/>
     <use xlink:href="#DejaVuSans-73" x="641.210938"/>
    </g>
    <!-- + 0.4×rating -->
    <g style="fill: #ffffff; opacity: 0.85" transform="translate(749.194059 410.727383) scale(0.085 -0.085)">
     <defs>
      <path id="DejaVuSans-34" d="M 2419 4116 
L 825 1625 
L 2419 1625 
L 2419 4116 
z
M 2253 4666 
L 3047 4666 
L 3047 1625 
L 3713 1625 
L 3713 1100 
L 3047 1100 
L 3047 0 
L 2419 0 
L 2419 1100 
L 313 1100 
L 313 1709 
L 2253 4666 
z
" transform="scale(0.015625)"/>
     </defs>
     <use xlink:href="#DejaVuSans-2b"/>
     <use xlink:href="#DejaVuSans-20" x="83.789062"/>
     <use xlink:href="#DejaVuSans-30" x="115.576172"/>
     <use xlink:href="#DejaVuSans-2e" x="179.199219"/>
     <use xlink:href="#DejaVuSans-34" x="210.986328"/>
     <use xlink:href="#DejaVuSans-d7" x="274.609375"/>
     <use xlink:href="#DejaVuSans-72" x="358.398438"/>
     <use xlink:href="#DejaVuSans-61" x="399.511719"/>
     <use xlink:href="#DejaVuSans-74" x="460.791016"/>
     <use xlink:href="#DejaVuSans-69" x="500"/>
     <use xlink:href="#DejaVuSans-6e" x="527.783203"/>
     <use xlink:href="#DejaVuSans-67" x="591.162109"/>
    </g>
   </g>
   <g id="text_19">
    <!-- DeepFM -->
    <g style="fill: #ffffff" transform="translate(817.384951 128.888219) scale(0.1 -0.1)">
     <use xlink:href="#DejaVuSans-Bold-44"/>
     <use xlink:href="#DejaVuSans-Bold-65" x="83.007812"/>
     <use xlink:href="#DejaVuSans-Bold-65" x="150.830078"/>
     <use xlink:href="#DejaVuSans-Bold-70" x="218.652344"/>
     <use xlink:href="#DejaVuSans-Bold-46" x="290.234375"/>
     <use xlink:href="#DejaVuSans-Bold-4d" x="358.544922"/>
    </g>
   </g>
   <g id="text_20">
    <!-- Neural Network -->
    <g style="fill: #ffffff; opacity: 0.85" transform="translate(807.172724 146.839742) scale(0.085 -0.085)">
     <use xlink:href="#DejaVuSans-4e"/>
     <use xlink:href="#DejaVuSans-65" x="74.804688"/>
     <use xlink:href="#DejaVuSans-75" x="136.328125"/>
     <use xlink:href="#DejaVuSans-72" x="199.707031"/>
     <use xlink:href="#DejaVuSans-61" x="240.820312"/>
     <use xlink:href="#DejaVuSans-6c" x="302.099609"/>
     <use xlink:href="#DejaVuSans-20" x="329.882812"/>
     <use xlink:href="#DejaVuSans-4e" x="361.669922"/>
     <use xlink:href="#DejaVuSans-65" x="436.474609"/>
     <use xlink:href="#DejaVuSans-74" x="497.998047"/>
     <use xlink:href="#DejaVuSans-77" x="537.207031"/>
     <use xlink:href="#DejaVuSans-6f" x="618.994141"/>
     <use xlink:href="#DejaVuSans-72" x="680.175781"/>
     <use xlink:href="#DejaVuSans-6b" x="721.289062"/>
    </g>
    <!-- (Fallback) -->
    <g style="fill: #ffffff; opacity: 0.85" transform="translate(819.849677 156.357883) scale(0.085 -0.085)">
     <defs>
      <path id="DejaVuSans-28" d="M 1984 4856 
Q 1566 4138 1362 3434 
Q 1159 2731 1159 2009 
Q 1159 1288 1364 580 
Q 1569 -128 1984 -844 
L 1484 -844 
Q 1016 -109 783 600 
Q 550 1309 550 2009 
Q 550 2706 781 3412 
Q 1013 4119 1484 4856 
L 1984 4856 
z
" transform="scale(0.015625)"/>
      <path id="DejaVuSans-29" d="M 513 4856 
L 1013 4856 
Q 1481 4119 1714 3412 
Q 1947 2706 1947 2009 
Q 1947 1309 1714 600 
Q 1481 -109 1013 -844 
L 513 -844 
Q 928 -128 1133 580 
Q 1338 1288 1338 2009 
Q 1338 2731 1133 3434 
Q 928 4138 513 4856 
z
" transform="scale(0.015625)"/>
     </defs>
     <use xlink:href="#DejaVuSans-28"/>
     <use xlink:href="#DejaVuSans-46" x="39.013672"/>
     <use xlink:href="#DejaVuSans-61" x="87.408203"/>
     <use xlink:href="#DejaVuSans-6c" x="148.6875"/>
     <use xlink:href="#DejaVuSans-6c" x="176.470703"/>
     <use xlink:href="#DejaVuSans-62" x="204.253906"/>
     <use xlink:href="#DejaVuSans-61" x="267.730469"/>
     <use xlink:href="#DejaVuSans-63" x="329.009766"/>
     <use xlink:href="#DejaVuSans-6b" x="383.990234"/>
     <use xlink:href="#DejaVuSans-29" x="441.900391"/>
    </g>
   </g>
  </g>
 </g>
 <defs>
  <clipPath id="p6c4e590a85">
   <rect x="7.2" y="30.327344" width="984.24" height="528.56"/>
  </clipPath>
 </defs>
</svg>
