<?xml version="1.0" encoding="utf-8" standalone="no"?>
<!DOCTYPE svg PUBLIC "-//W3C//DTD SVG 1.1//EN"
  "http://www.w3.org/Graphics/SVG/1.1/DTD/svg11.dtd">
<svg xmlns:xlink="http://www.w3.org/1999/xlink" width="926.64pt" height="638.087344pt" viewBox="0 0 926.64 638.087344" xmlns="http://www.w3.org/2000/svg" version="1.1">
 <metadata>
  <rdf:RDF xmlns:dc="http://purl.org/dc/elements/1.1/" xmlns:cc="http://creativecommons.org/ns#" xmlns:rdf="http://www.w3.org/1999/02/22-rdf-syntax-ns#">
   <cc:Work>
    <dc:type rdf:resource="http://purl.org/dc/dcmitype/StillImage"/>
    <dc:date>2026-05-12T23:37:09.004563</dc:date>
    <dc:format>image/svg+xml</dc:format>
    <dc:creator>
     <cc:Agent>
      <dc:title>Matplotlib v3.9.4, https://matplotlib.org/</dc:title>
     </cc:Agent>
    </dc:creator>
   </cc:Work>
  </rdf:RDF>
 </metadata>
 <defs>
  <style type="text/css">*{stroke-linejoin: round; stroke-linecap: butt}</style>
 </defs>
 <g id="figure_1">
  <g id="patch_1">
   <path d="M 0 638.087344 
L 926.64 638.087344 
L 926.64 0 
L 0 0 
z
" style="fill: #ffffff"/>
  </g>
  <g id="axes_1">
   <g id="patch_2">
    <path d="M 463.32 102.606474 
Q 463.32 122.967348 463.32 141.31576 
" style="fill: none; stroke: #6b7280; stroke-width: 1.8; stroke-linecap: round"/>
    <path d="M 465.52 136.91576 
L 463.32 141.31576 
L 461.12 136.91576 
" style="fill: none; stroke: #6b7280; stroke-width: 1.8; stroke-linecap: round"/>
   </g>
   <g id="patch_3">
    <path d="M 463.32 192.05158 
Q 463.32 212.412454 463.32 230.760867 
" style="fill: none; stroke: #6b7280; stroke-width: 1.8; stroke-linecap: round"/>
    <path d="M 465.52 226.360867 
L 463.32 230.760867 
L 461.12 226.360867 
" style="fill: none; stroke: #6b7280; stroke-width: 1.8; stroke-linecap: round"/>
   </g>
   <g id="patch_4">
    <path d="M 463.32 281.496686 
Q 463.32 301.85756 463.32 320.205973 
" style="fill: none; stroke: #6b7280; stroke-width: 1.8; stroke-linecap: round"/>
    <path d="M 465.52 315.805973 
L 463.32 320.205973 
L 461.12 315.805973 
" style="fill: none; stroke: #6b7280; stroke-width: 1.8; stroke-linecap: round"/>
   </g>
   <g id="patch_5">
    <path d="M 321.103723 349.195038 
Q 252.803274 374.69093 186.388209 399.483026 
" style="fill: none; stroke: #6b7280; stroke-width: 1.8; stroke-linecap: round"/>
    <path d="M 191.279751 400.005344 
L 186.388209 399.483026 
L 189.740988 395.883183 
" style="fill: none; stroke: #6b7280; stroke-width: 1.8; stroke-linecap: round"/>
   </g>
   <g id="patch_6">
    <path d="M 463.32 370.941403 
Q 463.32 384.913797 463.32 396.87373 
" style="fill: none; stroke: #6b7280; stroke-width: 1.8; stroke-linecap: round"/>
    <path d="M 465.52 392.47373 
L 463.32 396.87373 
L 461.12 392.47373 
" style="fill: none; stroke: #6b7280; stroke-width: 1.8; stroke-linecap: round"/>
   </g>
   <g id="patch_7">
    <path d="M 605.453829 349.386893 
Q 656.293265 374.690714 705.33106 399.097822 
" style="fill: none; stroke: #6b7280; stroke-width: 1.8; stroke-linecap: round"/>
    <path d="M 702.372272 395.167737 
L 705.33106 399.097822 
L 700.411719 399.106802 
" style="fill: none; stroke: #6b7280; stroke-width: 1.8; stroke-linecap: round"/>
   </g>
   <g id="patch_8">
    <path d="M 181.058167 465.290907 
Q 251.048804 483.941821 319.094839 502.074543 
" style="fill: none; stroke: #6b7280; stroke-width: 1.8; stroke-linecap: round"/>
    <path d="M 315.409687 498.815762 
L 319.094839 502.074543 
L 314.276723 503.067396 
" style="fill: none; stroke: #6b7280; stroke-width: 1.8; stroke-linecap: round"/>
   </g>
   <g id="patch_9">
    <path d="M 466.828615 466.773106 
Q 466.828615 483.940661 466.828615 499.095754 
" style="fill: none; stroke: #6b7280; stroke-width: 1.8; stroke-linecap: round"/>
    <path d="M 469.028615 494.695754 
L 466.828615 499.095754 
L 464.628615 494.695754 
" style="fill: none; stroke: #6b7280; stroke-width: 1.8; stroke-linecap: round"/>
   </g>
   <g id="patch_10">
    <path d="M 759.613939 465.26751 
Q 686.11826 483.941511 614.573067 502.119927 
" style="fill: none; stroke: #6b7280; stroke-width: 1.8; stroke-linecap: round"/>
    <path d="M 619.379334 503.16864 
L 614.573067 502.119927 
L 618.295797 498.904141 
" style="fill: none; stroke: #6b7280; stroke-width: 1.8; stroke-linecap: round"/>
   </g>
   <g id="patch_11">
    <path d="M 463.32 549.832006 
Q 463.32 570.19288 463.32 588.541292 
" style="fill: none; stroke: #6b7280; stroke-width: 1.8; stroke-linecap: round"/>
    <path d="M 465.52 584.141292 
L 463.32 588.541292 
L 461.12 584.141292 
" style="fill: none; stroke: #6b7280; stroke-width: 1.8; stroke-linecap: round"/>
   </g>
   <g id="patch_12">
    <path d="M 322.975385 110.189046 
L 603.664615 110.189046 
Q 614.190462 110.189046 614.190462 100.605642 
L 614.190462 55.883088 
Q 614.190462 46.299684 603.664615 46.299684 
L 322.975385 46.299684 
Q 312.449538 46.299684 312.449538 55.883088 
L 312.449538 100.605642 
Q 312.449538 110.189046 322.975385 110.189046 
z
" clip-path="url(#pc123d7464e)" style="fill: #1f2937; stroke: #d1d5db; stroke-width: 1.5; stroke-linejoin: miter"/>
   </g>
   <g id="patch_13">
    <path d="M 287.889231 199.634152 
L 638.750769 199.634152 
Q 649.276615 199.634152 649.276615 190.050748 
L 649.276615 145.328195 
Q 649.276615 135.744791 638.750769 135.744791 
L 287.889231 135.744791 
Q 277.363385 135.744791 277.363385 145.328195 
L 277.363385 190.050748 
Q 277.363385 199.634152 287.889231 199.634152 
z
" clip-path="url(#pc123d7464e)" style="fill: #4b5563; stroke: #d1d5db; stroke-width: 1.5; stroke-linejoin: miter"/>
   </g>
   <g id="patch_14">
    <path d="M 322.975385 289.079259 
L 603.664615 289.079259 
Q 614.190462 289.079259 614.190462 279.495854 
L 614.190462 234.773301 
Q 614.190462 225.189897 603.664615 225.189897 
L 322.975385 225.189897 
Q 312.449538 225.189897 312.449538 234.773301 
L 312.449538 279.495854 
Q 312.449538 289.079259 322.975385 289.079259 
z
" clip-path="url(#pc123d7464e)" style="fill: #7c3aed; stroke: #d1d5db; stroke-width: 1.5; stroke-linejoin: miter"/>
   </g>
   <g id="patch_15">
    <path d="M 322.975385 378.524365 
L 603.664615 378.524365 
Q 614.190462 378.524365 614.190462 368.940961 
L 614.190462 327.412876 
Q 614.190462 317.829471 603.664615 317.829471 
L 322.975385 317.829471 
Q 312.449538 317.829471 312.449538 327.412876 
L 312.449538 368.940961 
Q 312.449538 378.524365 322.975385 378.524365 
z
" clip-path="url(#pc123d7464e)" style="fill: #5b21b6; stroke: #d1d5db; stroke-width: 1.5; stroke-linejoin: miter"/>
   </g>
   <g id="text_1">
    <!-- α·CF -->
    <g style="fill: #6b7280" transform="translate(259.820308 374.691003) scale(0.09 -0.09)">
     <defs>
      <path id="DejaVuSans-3b1" d="M 2644 1628 
L 2506 2350 
Q 2366 3091 1809 3091 
Q 1391 3091 1200 2747 
Q 959 2316 959 1747 
Q 959 1059 1194 731 
Q 1431 397 1809 397 
Q 2228 397 2453 1063 
L 2644 1628 
z
M 2966 2584 
L 3275 3500 
L 3788 3500 
L 3147 1603 
L 3272 919 
Q 3300 766 3409 638 
Q 3538 488 3638 488 
L 3913 488 
L 3913 0 
L 3569 0 
Q 3275 0 3013 263 
Q 2884 394 2831 669 
Q 2688 322 2394 50 
Q 2256 -78 1809 -78 
Q 1075 -78 719 397 
Q 353 888 353 1747 
Q 353 2666 750 3097 
Q 1191 3578 1809 3578 
Q 2781 3578 2966 2584 
z
" transform="scale(0.015625)"/>
      <path id="DejaVuSans-b7" d="M 684 2619 
L 1344 2619 
L 1344 1825 
L 684 1825 
L 684 2619 
z
" transform="scale(0.015625)"/>
      <path id="DejaVuSans-43" d="M 4122 4306 
L 4122 3641 
Q 3803 3938 3442 4084 
Q 3081 4231 2675 4231 
Q 1875 4231 1450 3742 
Q 1025 3253 1025 2328 
Q 1025 1406 1450 917 
Q 1875 428 2675 428 
Q 3081 428 3442 575 
Q 3803 722 4122 1019 
L 4122 359 
Q 3791 134 3420 21 
Q 3050 -91 2638 -91 
Q 1578 -91 968 557 
Q 359 1206 359 2328 
Q 359 3453 968 4101 
Q 1578 4750 2638 4750 
Q 3056 4750 3426 4639 
Q 3797 4528 4122 4306 
z
" transform="scale(0.015625)"/>
      <path id="DejaVuSans-46" d="M 628 4666 
L 3309 4666 
L 3309 4134 
L 1259 4134 
L 1259 2759 
L 3109 2759 
L 3109 2228 
L 1259 2228 
L 1259 0 
L 628 0 
L 628 4666 
z
" transform="scale(0.015625)"/>
     </defs>
     <use xlink:href="#DejaVuSans-3b1"/>
     <use xlink:href="#DejaVuSans-b7" x="65.917969"/>
     <use xlink:href="#DejaVuSans-43" x="97.705078"/>
     <use xlink:href="#DejaVuSans-46" x="167.529297"/>
    </g>
   </g>
   <g id="text_2">
    <!-- β·CB -->
    <g style="fill: #6b7280" transform="translate(470.337231 384.913301) scale(0.09 -0.09)">
     <defs>
      <path id="DejaVuSans-3b2" d="M 1178 216 
L 1178 -1331 
L 600 -1331 
L 600 3478 
Q 600 4903 1931 4903 
Q 3288 4903 3288 3700 
Q 3288 2844 2750 2531 
Q 3625 2250 3625 1416 
Q 3625 -66 2119 -66 
Q 1456 -66 1178 216 
z
M 1178 966 
Q 1525 425 2141 425 
Q 3041 425 3041 1406 
Q 3041 2288 1591 2219 
L 1591 2750 
Q 2725 2750 2725 3750 
Q 2725 4434 1994 4434 
Q 1178 4434 1178 3459 
L 1178 966 
z
" transform="scale(0.015625)"/>
      <path id="DejaVuSans-42" d="M 1259 2228 
L 1259 519 
L 2272 519 
Q 2781 519 3026 730 
Q 3272 941 3272 1375 
Q 3272 1813 3026 2020 
Q 2781 2228 2272 2228 
L 1259 2228 
z
M 1259 4147 
L 1259 2741 
L 2194 2741 
Q 2656 2741 2882 2914 
Q 3109 3088 3109 3444 
Q 3109 3797 2882 3972 
Q 2656 4147 2194 4147 
L 1259 4147 
z
M 628 4666 
L 2241 4666 
Q 2963 4666 3353 4366 
Q 3744 4066 3744 3513 
Q 3744 3084 3544 2831 
Q 3344 2578 2956 2516 
Q 3422 2416 3680 2098 
Q 3938 1781 3938 1306 
Q 3938 681 3513 340 
Q 3088 0 2303 0 
L 628 0 
L 628 4666 
z
" transform="scale(0.015625)"/>
     </defs>
     <use xlink:href="#DejaVuSans-3b2"/>
     <use xlink:href="#DejaVuSans-b7" x="63.818359"/>
     <use xlink:href="#DejaVuSans-43" x="95.605469"/>
     <use xlink:href="#DejaVuSans-42" x="165.429688"/>
    </g>
   </g>
   <g id="text_3">
    <!-- γ·Pop -->
    <g style="fill: #6b7280" transform="translate(663.311077 374.691003) scale(0.09 -0.09)">
     <defs>
      <path id="DejaVuSans-3b3" d="M 1128 2950 
L 1894 788 
L 2988 3500 
L 3597 3500 
L 2181 0 
L 2181 -1331 
L 1606 -1331 
L 1606 0 
L 688 2613 
Q 550 3006 253 3006 
L 100 3006 
L 100 3500 
L 319 3500 
Q 934 3500 1128 2950 
z
" transform="scale(0.015625)"/>
      <path id="DejaVuSans-50" d="M 1259 4147 
L 1259 2394 
L 2053 2394 
Q 2494 2394 2734 2622 
Q 2975 2850 2975 3272 
Q 2975 3691 2734 3919 
Q 2494 4147 2053 4147 
L 1259 4147 
z
M 628 4666 
L 2053 4666 
Q 2838 4666 3239 4311 
Q 3641 3956 3641 3272 
Q 3641 2581 3239 2228 
Q 2838 1875 2053 1875 
L 1259 1875 
L 1259 0 
L 628 0 
L 628 4666 
z
" transform="scale(0.015625)"/>
      <path id="DejaVuSans-6f" d="M 1959 3097 
Q 1497 3097 1228 2736 
Q 959 2375 959 1747 
Q 959 1119 1226 758 
Q 1494 397 1959 397 
Q 2419 397 2687 759 
Q 2956 1122 2956 1747 
Q 2956 2369 2687 2733 
Q 2419 3097 1959 3097 
z
M 1959 3584 
Q 2709 3584 3137 3096 
Q 3566 2609 3566 1747 
Q 3566 888 3137 398 
Q 2709 -91 1959 -91 
Q 1206 -91 779 398 
Q 353 888 353 1747 
Q 353 2609 779 3096 
Q 1206 3584 1959 3584 
z
" transform="scale(0.015625)"/>
      <path id="DejaVuSans-70" d="M 1159 525 
L 1159 -1331 
L 581 -1331 
L 581 3500 
L 1159 3500 
L 1159 2969 
Q 1341 3281 1617 3432 
Q 1894 3584 2278 3584 
Q 2916 3584 3314 3078 
Q 3713 2572 3713 1747 
Q 3713 922 3314 415 
Q 2916 -91 2278 -91 
Q 1894 -91 1617 61 
Q 1341 213 1159 525 
z
M 3116 1747 
Q 3116 2381 2855 2742 
Q 2594 3103 2138 3103 
Q 1681 3103 1420 2742 
Q 1159 2381 1159 1747 
Q 1159 1113 1420 752 
Q 1681 391 2138 391 
Q 2594 391 2855 752 
Q 3116 1113 3116 1747 
z
" transform="scale(0.015625)"/>
     </defs>
     <use xlink:href="#DejaVuSans-3b3"/>
     <use xlink:href="#DejaVuSans-b7" x="59.179688"/>
     <use xlink:href="#DejaVuSans-50" x="90.966797"/>
     <use xlink:href="#DejaVuSans-6f" x="147.644531"/>
     <use xlink:href="#DejaVuSans-70" x="208.826172"/>
    </g>
   </g>
   <g id="patch_16">
    <path d="M 56.320615 474.358408 
L 301.923692 474.358408 
Q 312.449538 474.358408 312.449538 464.775003 
L 312.449538 400.885642 
Q 312.449538 391.302237 301.923692 391.302237 
L 56.320615 391.302237 
Q 45.794769 391.302237 45.794769 400.885642 
L 45.794769 464.775003 
Q 45.794769 474.358408 56.320615 474.358408 
z
" clip-path="url(#pc123d7464e)" style="fill: #3b82f6; stroke: #d1d5db; stroke-width: 1.5; stroke-linejoin: miter"/>
   </g>
   <g id="patch_17">
    <path d="M 344.027077 474.358408 
L 589.630154 474.358408 
Q 600.156 474.358408 600.156 464.775003 
L 600.156 400.885642 
Q 600.156 391.302237 589.630154 391.302237 
L 344.027077 391.302237 
Q 333.501231 391.302237 333.501231 400.885642 
L 333.501231 464.775003 
Q 333.501231 474.358408 344.027077 474.358408 
z
" clip-path="url(#pc123d7464e)" style="fill: #10b981; stroke: #d1d5db; stroke-width: 1.5; stroke-linejoin: miter"/>
   </g>
   <g id="patch_18">
    <path d="M 638.750769 474.358408 
L 884.353846 474.358408 
Q 894.879692 474.358408 894.879692 464.775003 
L 894.879692 400.885642 
Q 894.879692 391.302237 884.353846 391.302237 
L 638.750769 391.302237 
Q 628.224923 391.302237 628.224923 400.885642 
L 628.224923 464.775003 
Q 628.224923 474.358408 638.750769 474.358408 
z
" clip-path="url(#pc123d7464e)" style="fill: #f59e0b; stroke: #d1d5db; stroke-width: 1.5; stroke-linejoin: miter"/>
   </g>
   <g id="patch_19">
    <path d="M 252.803077 557.414578 
L 673.836923 557.414578 
Q 684.362769 557.414578 684.362769 547.831174 
L 684.362769 503.10862 
Q 684.362769 493.525216 673.836923 493.525216 
L 252.803077 493.525216 
Q 242.277231 493.525216 242.277231 503.10862 
L 242.277231 547.831174 
Q 242.277231 557.414578 252.803077 557.414578 
z
" clip-path="url(#pc123d7464e)" style="fill: #b45309; stroke: #d1d5db; stroke-width: 1.5; stroke-linejoin: miter"/>
   </g>
   <g id="patch_20">
    <path d="M 287.889231 627.692876 
L 638.750769 627.692876 
Q 649.276615 627.692876 649.276615 618.109471 
L 649.276615 586.164791 
Q 649.276615 576.581386 638.750769 576.581386 
L 287.889231 576.581386 
Q 277.363385 576.581386 277.363385 586.164791 
L 277.363385 618.109471 
Q 277.363385 627.692876 287.889231 627.692876 
z
" clip-path="url(#pc123d7464e)" style="fill: #1f2937; stroke: #d1d5db; stroke-width: 1.5; stroke-linejoin: miter"/>
   </g>
   <g id="text_4">
    <!-- Luồng Thuật toán Hybrid Recommender -->
    <g style="fill: #1f2937" transform="translate(294.47625 20.327344) scale(0.15 -0.15)">
     <defs>
      <path id="DejaVuSans-Bold-4c" d="M 588 4666 
L 1791 4666 
L 1791 909 
L 3903 909 
L 3903 0 
L 588 0 
L 588 4666 
z
" transform="scale(0.015625)"/>
      <path id="DejaVuSans-Bold-75" d="M 500 1363 
L 500 3500 
L 1625 3500 
L 1625 3150 
Q 1625 2866 1622 2436 
Q 1619 2006 1619 1863 
Q 1619 1441 1641 1255 
Q 1663 1069 1716 984 
Q 1784 875 1895 815 
Q 2006 756 2150 756 
Q 2500 756 2700 1025 
Q 2900 1294 2900 1772 
L 2900 3500 
L 4019 3500 
L 4019 0 
L 2900 0 
L 2900 506 
Q 2647 200 2364 54 
Q 2081 -91 1741 -91 
Q 1134 -91 817 281 
Q 500 653 500 1363 
z
" transform="scale(0.015625)"/>
      <path id="DejaVuSans-Bold-1ed3" d="M 2203 2784 
Q 1831 2784 1636 2517 
Q 1441 2250 1441 1747 
Q 1441 1244 1636 976 
Q 1831 709 2203 709 
Q 2569 709 2762 976 
Q 2956 1244 2956 1747 
Q 2956 2250 2762 2517 
Q 2569 2784 2203 2784 
z
M 2203 3584 
Q 3106 3584 3614 3096 
Q 4122 2609 4122 1747 
Q 4122 884 3614 396 
Q 3106 -91 2203 -91 
Q 1297 -91 786 396 
Q 275 884 275 1747 
Q 275 2609 786 3096 
Q 1297 3584 2203 3584 
z
M 1703 4769 
L 2665 4769 
L 3362 3944 
L 2806 3944 
L 2184 4447 
L 1562 3944 
L 1006 3944 
L 1703 4769 
z
M 3297 5601 
L 3915 4776 
L 3303 4776 
L 2412 5601 
L 3297 5601 
z
" transform="scale(0.015625)"/>
      <path id="DejaVuSans-Bold-6e" d="M 4056 2131 
L 4056 0 
L 2931 0 
L 2931 347 
L 2931 1631 
Q 2931 2084 2911 2256 
Q 2891 2428 2841 2509 
Q 2775 2619 2662 2680 
Q 2550 2741 2406 2741 
Q 2056 2741 1856 2470 
Q 1656 2200 1656 1722 
L 1656 0 
L 538 0 
L 538 3500 
L 1656 3500 
L 1656 2988 
Q 1909 3294 2193 3439 
Q 2478 3584 2822 3584 
Q 3428 3584 3742 3212 
Q 4056 2841 4056 2131 
z
" transform="scale(0.015625)"/>
      <path id="DejaVuSans-Bold-67" d="M 2919 594 
Q 2688 288 2409 144 
Q 2131 0 1766 0 
Q 1125 0 706 504 
Q 288 1009 288 1791 
Q 288 2575 706 3076 
Q 1125 3578 1766 3578 
Q 2131 3578 2409 3434 
Q 2688 3291 2919 2981 
L 2919 3500 
L 4044 3500 
L 4044 353 
Q 4044 -491 3511 -936 
Q 2978 -1381 1966 -1381 
Q 1638 -1381 1331 -1331 
Q 1025 -1281 716 -1178 
L 716 -306 
Q 1009 -475 1290 -558 
Q 1572 -641 1856 -641 
Q 2406 -641 2662 -400 
Q 2919 -159 2919 353 
L 2919 594 
z
M 2181 2772 
Q 1834 2772 1640 2515 
Q 1447 2259 1447 1791 
Q 1447 1309 1634 1061 
Q 1822 813 2181 813 
Q 2531 813 2725 1069 
Q 2919 1325 2919 1791 
Q 2919 2259 2725 2515 
Q 2531 2772 2181 2772 
z
" transform="scale(0.015625)"/>
      <path id="DejaVuSans-Bold-20" transform="scale(0.015625)"/>
      <path id="DejaVuSans-Bold-54" d="M 31 4666 
L 4331 4666 
L 4331 3756 
L 2784 3756 
L 2784 0 
L 1581 0 
L 1581 3756 
L 31 3756 
L 31 4666 
z
" transform="scale(0.015625)"/>
      <path id="DejaVuSans-Bold-68" d="M 4056 2131 
L 4056 0 
L 2931 0 
L 2931 347 
L 2931 1625 
Q 2931 2084 2911 2256 
Q 2891 2428 2841 2509 
Q 2775 2619 2662 2680 
Q 2550 2741 2406 2741 
Q 2056 2741 1856 2470 
Q 1656 2200 1656 1722 
L 1656 0 
L 538 0 
L 538 4863 
L 1656 4863 
L 1656 2988 
Q 1909 3294 2193 3439 
Q 2478 3584 2822 3584 
Q 3428 3584 3742 3212 
Q 4056 2841 4056 2131 
z
" transform="scale(0.015625)"/>
      <path id="DejaVuSans-Bold-1ead" d="M 2106 1575 
Q 1756 1575 1579 1456 
Q 1403 1338 1403 1106 
Q 1403 894 1545 773 
Q 1688 653 1941 653 
Q 2256 653 2472 879 
Q 2688 1106 2688 1447 
L 2688 1575 
L 2106 1575 
z
M 3816 1997 
L 3816 0 
L 2688 0 
L 2688 519 
Q 2463 200 2181 54 
Q 1900 -91 1497 -91 
Q 953 -91 614 226 
Q 275 544 275 1050 
Q 275 1666 698 1953 
Q 1122 2241 2028 2241 
L 2688 2241 
L 2688 2328 
Q 2688 2594 2478 2717 
Q 2269 2841 1825 2841 
Q 1466 2841 1156 2769 
Q 847 2697 581 2553 
L 581 3406 
Q 941 3494 1303 3539 
Q 1666 3584 2028 3584 
Q 2975 3584 3395 3211 
Q 3816 2838 3816 1997 
z
M 1806 5119 
L 2562 5119 
L 3362 3944 
L 2806 3944 
L 2184 4647 
L 1562 3944 
L 1006 3944 
L 1806 5119 
z
M 1418 -447 
L 2537 -447 
L 2537 -1359 
L 1418 -1359 
L 1418 -447 
z
" transform="scale(0.015625)"/>
      <path id="DejaVuSans-Bold-74" d="M 1759 4494 
L 1759 3500 
L 2913 3500 
L 2913 2700 
L 1759 2700 
L 1759 1216 
Q 1759 972 1856 886 
Q 1953 800 2241 800 
L 2816 800 
L 2816 0 
L 1856 0 
Q 1194 0 917 276 
Q 641 553 641 1216 
L 641 2700 
L 84 2700 
L 84 3500 
L 641 3500 
L 641 4494 
L 1759 4494 
z
" transform="scale(0.015625)"/>
      <path id="DejaVuSans-Bold-6f" d="M 2203 2784 
Q 1831 2784 1636 2517 
Q 1441 2250 1441 1747 
Q 1441 1244 1636 976 
Q 1831 709 2203 709 
Q 2569 709 2762 976 
Q 2956 1244 2956 1747 
Q 2956 2250 2762 2517 
Q 2569 2784 2203 2784 
z
M 2203 3584 
Q 3106 3584 3614 3096 
Q 4122 2609 4122 1747 
Q 4122 884 3614 396 
Q 3106 -91 2203 -91 
Q 1297 -91 786 396 
Q 275 884 275 1747 
Q 275 2609 786 3096 
Q 1297 3584 2203 3584 
z
" transform="scale(0.015625)"/>
      <path id="DejaVuSans-Bold-e1" d="M 2106 1575 
Q 1756 1575 1579 1456 
Q 1403 1338 1403 1106 
Q 1403 894 1545 773 
Q 1688 653 1941 653 
Q 2256 653 2472 879 
Q 2688 1106 2688 1447 
L 2688 1575 
L 2106 1575 
z
M 3816 1997 
L 3816 0 
L 2688 0 
L 2688 519 
Q 2463 200 2181 54 
Q 1900 -91 1497 -91 
Q 953 -91 614 226 
Q 275 544 275 1050 
Q 275 1666 698 1953 
Q 1122 2241 2028 2241 
L 2688 2241 
L 2688 2328 
Q 2688 2594 2478 2717 
Q 2269 2841 1825 2841 
Q 1466 2841 1156 2769 
Q 847 2697 581 2553 
L 581 3406 
Q 941 3494 1303 3539 
Q 1666 3584 2028 3584 
Q 2975 3584 3395 3211 
Q 3816 2838 3816 1997 
z
M 2606 5119 
L 3490 5119 
L 2337 3944 
L 1725 3944 
L 2606 5119 
z
" transform="scale(0.015625)"/>
      <path id="DejaVuSans-Bold-48" d="M 588 4666 
L 1791 4666 
L 1791 2888 
L 3566 2888 
L 3566 4666 
L 4769 4666 
L 4769 0 
L 3566 0 
L 3566 1978 
L 1791 1978 
L 1791 0 
L 588 0 
L 588 4666 
z
" transform="scale(0.015625)"/>
      <path id="DejaVuSans-Bold-79" d="M 78 3500 
L 1197 3500 
L 2138 1125 
L 2938 3500 
L 4056 3500 
L 2584 -331 
Q 2363 -916 2067 -1148 
Q 1772 -1381 1288 -1381 
L 641 -1381 
L 641 -647 
L 991 -647 
Q 1275 -647 1404 -556 
Q 1534 -466 1606 -231 
L 1638 -134 
L 78 3500 
z
" transform="scale(0.015625)"/>
      <path id="DejaVuSans-Bold-62" d="M 2400 722 
Q 2759 722 2948 984 
Q 3138 1247 3138 1747 
Q 3138 2247 2948 2509 
Q 2759 2772 2400 2772 
Q 2041 2772 1848 2508 
Q 1656 2244 1656 1747 
Q 1656 1250 1848 986 
Q 2041 722 2400 722 
z
M 1656 2988 
Q 1888 3294 2169 3439 
Q 2450 3584 2816 3584 
Q 3463 3584 3878 3070 
Q 4294 2556 4294 1747 
Q 4294 938 3878 423 
Q 3463 -91 2816 -91 
Q 2450 -91 2169 54 
Q 1888 200 1656 506 
L 1656 0 
L 538 0 
L 538 4863 
L 1656 4863 
L 1656 2988 
z
" transform="scale(0.015625)"/>
      <path id="DejaVuSans-Bold-72" d="M 3138 2547 
Q 2991 2616 2845 2648 
Q 2700 2681 2553 2681 
Q 2122 2681 1889 2404 
Q 1656 2128 1656 1613 
L 1656 0 
L 538 0 
L 538 3500 
L 1656 3500 
L 1656 2925 
Q 1872 3269 2151 3426 
Q 2431 3584 2822 3584 
Q 2878 3584 2943 3579 
Q 3009 3575 3134 3559 
L 3138 2547 
z
" transform="scale(0.015625)"/>
      <path id="DejaVuSans-Bold-69" d="M 538 3500 
L 1656 3500 
L 1656 0 
L 538 0 
L 538 3500 
z
M 538 4863 
L 1656 4863 
L 1656 3950 
L 538 3950 
L 538 4863 
z
" transform="scale(0.015625)"/>
      <path id="DejaVuSans-Bold-64" d="M 2919 2988 
L 2919 4863 
L 4044 4863 
L 4044 0 
L 2919 0 
L 2919 506 
Q 2688 197 2409 53 
Q 2131 -91 1766 -91 
Q 1119 -91 703 423 
Q 288 938 288 1747 
Q 288 2556 703 3070 
Q 1119 3584 1766 3584 
Q 2128 3584 2408 3439 
Q 2688 3294 2919 2988 
z
M 2181 722 
Q 2541 722 2730 984 
Q 2919 1247 2919 1747 
Q 2919 2247 2730 2509 
Q 2541 2772 2181 2772 
Q 1825 2772 1636 2509 
Q 1447 2247 1447 1747 
Q 1447 1247 1636 984 
Q 1825 722 2181 722 
z
" transform="scale(0.015625)"/>
      <path id="DejaVuSans-Bold-52" d="M 2297 2597 
Q 2675 2597 2839 2737 
Q 3003 2878 3003 3200 
Q 3003 3519 2839 3656 
Q 2675 3794 2297 3794 
L 1791 3794 
L 1791 2597 
L 2297 2597 
z
M 1791 1766 
L 1791 0 
L 588 0 
L 588 4666 
L 2425 4666 
Q 3347 4666 3776 4356 
Q 4206 4047 4206 3378 
Q 4206 2916 3982 2619 
Q 3759 2322 3309 2181 
Q 3556 2125 3751 1926 
Q 3947 1728 4147 1325 
L 4800 0 
L 3519 0 
L 2950 1159 
Q 2778 1509 2601 1637 
Q 2425 1766 2131 1766 
L 1791 1766 
z
" transform="scale(0.015625)"/>
      <path id="DejaVuSans-Bold-65" d="M 4031 1759 
L 4031 1441 
L 1416 1441 
Q 1456 1047 1700 850 
Q 1944 653 2381 653 
Q 2734 653 3104 758 
Q 3475 863 3866 1075 
L 3866 213 
Q 3469 63 3072 -14 
Q 2675 -91 2278 -91 
Q 1328 -91 801 392 
Q 275 875 275 1747 
Q 275 2603 792 3093 
Q 1309 3584 2216 3584 
Q 3041 3584 3536 3087 
Q 4031 2591 4031 1759 
z
M 2881 2131 
Q 2881 2450 2695 2645 
Q 2509 2841 2209 2841 
Q 1884 2841 1681 2658 
Q 1478 2475 1428 2131 
L 2881 2131 
z
" transform="scale(0.015625)"/>
      <path id="DejaVuSans-Bold-63" d="M 3366 3391 
L 3366 2478 
Q 3138 2634 2908 2709 
Q 2678 2784 2431 2784 
Q 1963 2784 1702 2511 
Q 1441 2238 1441 1747 
Q 1441 1256 1702 982 
Q 1963 709 2431 709 
Q 2694 709 2930 787 
Q 3166 866 3366 1019 
L 3366 103 
Q 3103 6 2833 -42 
Q 2563 -91 2291 -91 
Q 1344 -91 809 395 
Q 275 881 275 1747 
Q 275 2613 809 3098 
Q 1344 3584 2291 3584 
Q 2566 3584 2833 3536 
Q 3100 3488 3366 3391 
z
" transform="scale(0.015625)"/>
      <path id="DejaVuSans-Bold-6d" d="M 3781 2919 
Q 3994 3244 4286 3414 
Q 4578 3584 4928 3584 
Q 5531 3584 5847 3212 
Q 6163 2841 6163 2131 
L 6163 0 
L 5038 0 
L 5038 1825 
Q 5041 1866 5042 1909 
Q 5044 1953 5044 2034 
Q 5044 2406 4934 2573 
Q 4825 2741 4581 2741 
Q 4263 2741 4089 2478 
Q 3916 2216 3909 1719 
L 3909 0 
L 2784 0 
L 2784 1825 
Q 2784 2406 2684 2573 
Q 2584 2741 2328 2741 
Q 2006 2741 1831 2477 
Q 1656 2213 1656 1722 
L 1656 0 
L 531 0 
L 531 3500 
L 1656 3500 
L 1656 2988 
Q 1863 3284 2130 3434 
Q 2397 3584 2719 3584 
Q 3081 3584 3359 3409 
Q 3638 3234 3781 2919 
z
" transform="scale(0.015625)"/>
     </defs>
     <use xlink:href="#DejaVuSans-Bold-4c"/>
     <use xlink:href="#DejaVuSans-Bold-75" x="63.720703"/>
     <use xlink:href="#DejaVuSans-Bold-1ed3" x="134.912109"/>
     <use xlink:href="#DejaVuSans-Bold-6e" x="203.613281"/>
     <use xlink:href="#DejaVuSans-Bold-67" x="274.804688"/>
     <use xlink:href="#DejaVuSans-Bold-20" x="346.386719"/>
     <use xlink:href="#DejaVuSans-Bold-54" x="381.201172"/>
     <use xlink:href="#DejaVuSans-Bold-68" x="449.414062"/>
     <use xlink:href="#DejaVuSans-Bold-75" x="520.605469"/>
     <use xlink:href="#DejaVuSans-Bold-1ead" x="591.796875"/>
     <use xlink:href="#DejaVuSans-Bold-74" x="659.277344"/>
     <use xlink:href="#DejaVuSans-Bold-20" x="707.080078"/>
     <use xlink:href="#DejaVuSans-Bold-74" x="741.894531"/>
     <use xlink:href="#DejaVuSans-Bold-6f" x="789.697266"/>
     <use xlink:href="#DejaVuSans-Bold-e1" x="858.398438"/>
     <use xlink:href="#DejaVuSans-Bold-6e" x="925.878906"/>
     <use xlink:href="#DejaVuSans-Bold-20" x="997.070312"/>
     <use xlink:href="#DejaVuSans-Bold-48" x="1031.884766"/>
     <use xlink:href="#DejaVuSans-Bold-79" x="1115.576172"/>
     <use xlink:href="#DejaVuSans-Bold-62" x="1180.761719"/>
     <use xlink:href="#DejaVuSans-Bold-72" x="1252.34375"/>
     <use xlink:href="#DejaVuSans-Bold-69" x="1301.660156"/>
     <use xlink:href="#DejaVuSans-Bold-64" x="1335.9375"/>
     <use xlink:href="#DejaVuSans-Bold-20" x="1407.519531"/>
     <use xlink:href="#DejaVuSans-Bold-52" x="1442.333984"/>
     <use xlink:href="#DejaVuSans-Bold-65" x="1519.335938"/>
     <use xlink:href="#DejaVuSans-Bold-63" x="1587.158203"/>
     <use xlink:href="#DejaVuSans-Bold-6f" x="1646.435547"/>
     <use xlink:href="#DejaVuSans-Bold-6d" x="1715.136719"/>
     <use xlink:href="#DejaVuSans-Bold-6d" x="1819.335938"/>
     <use xlink:href="#DejaVuSans-Bold-65" x="1923.535156"/>
     <use xlink:href="#DejaVuSans-Bold-6e" x="1991.357422"/>
     <use xlink:href="#DejaVuSans-Bold-64" x="2062.548828"/>
     <use xlink:href="#DejaVuSans-Bold-65" x="2134.130859"/>
     <use xlink:href="#DejaVuSans-Bold-72" x="2201.953125"/>
    </g>
   </g>
   <g id="text_5">
    <!-- Request gợi ý (userId, limit) -->
    <g style="fill: #ffffff" transform="translate(376.277344 81.456709) scale(0.11 -0.11)">
     <defs>
      <path id="DejaVuSans-Bold-71" d="M 2181 2772 
Q 1825 2772 1636 2509 
Q 1447 2247 1447 1747 
Q 1447 1247 1636 984 
Q 1825 722 2181 722 
Q 2541 722 2730 984 
Q 2919 1247 2919 1747 
Q 2919 2247 2730 2509 
Q 2541 2772 2181 2772 
z
M 2919 506 
Q 2688 197 2409 53 
Q 2131 -91 1766 -91 
Q 1119 -91 703 423 
Q 288 938 288 1747 
Q 288 2556 703 3067 
Q 1119 3578 1766 3578 
Q 2131 3578 2409 3434 
Q 2688 3291 2919 2981 
L 2919 3500 
L 4044 3500 
L 4044 -1331 
L 2919 -1331 
L 2919 506 
z
" transform="scale(0.015625)"/>
      <path id="DejaVuSans-Bold-73" d="M 3272 3391 
L 3272 2541 
Q 2913 2691 2578 2766 
Q 2244 2841 1947 2841 
Q 1628 2841 1473 2761 
Q 1319 2681 1319 2516 
Q 1319 2381 1436 2309 
Q 1553 2238 1856 2203 
L 2053 2175 
Q 2913 2066 3209 1816 
Q 3506 1566 3506 1031 
Q 3506 472 3093 190 
Q 2681 -91 1863 -91 
Q 1516 -91 1145 -36 
Q 775 19 384 128 
L 384 978 
Q 719 816 1070 734 
Q 1422 653 1784 653 
Q 2113 653 2278 743 
Q 2444 834 2444 1013 
Q 2444 1163 2330 1236 
Q 2216 1309 1875 1350 
L 1678 1375 
Q 931 1469 631 1722 
Q 331 1975 331 2491 
Q 331 3047 712 3315 
Q 1094 3584 1881 3584 
Q 2191 3584 2531 3537 
Q 2872 3491 3272 3391 
z
" transform="scale(0.015625)"/>
      <path id="DejaVuSans-Bold-1ee3" d="M 1634 -447 
L 2753 -447 
L 2753 -1359 
L 1634 -1359 
L 1634 -447 
z
M 3281 2909 
L 3281 3350 
Q 3491 3194 3605 3134 
Q 3719 3075 3800 3075 
Q 3922 3075 3998 3167 
Q 4075 3259 4075 3413 
Q 4075 3534 4051 3654 
Q 4028 3775 3978 3900 
L 4466 3900 
Q 4500 3728 4517 3581 
Q 4534 3434 4534 3306 
Q 4534 2947 4390 2755 
Q 4247 2563 3978 2563 
Q 3813 2563 3642 2647 
Q 3472 2731 3281 2909 
z
M 2227 2784 
Q 1855 2784 1660 2517 
Q 1465 2250 1465 1747 
Q 1465 1244 1660 976 
Q 1855 709 2227 709 
Q 2593 709 2786 976 
Q 2980 1244 2980 1747 
Q 2980 2250 2786 2517 
Q 2593 2784 2227 2784 
z
M 2227 3584 
Q 3130 3584 3638 3096 
Q 4146 2609 4146 1747 
Q 4146 884 3638 396 
Q 3130 -91 2227 -91 
Q 1321 -91 810 396 
Q 299 884 299 1747 
Q 299 2609 810 3096 
Q 1321 3584 2227 3584 
z
" transform="scale(0.015625)"/>
      <path id="DejaVuSans-Bold-fd" d="M 78 3500 
L 1197 3500 
L 2138 1125 
L 2938 3500 
L 4056 3500 
L 2584 -331 
Q 2363 -916 2067 -1148 
Q 1772 -1381 1288 -1381 
L 641 -1381 
L 641 -647 
L 991 -647 
Q 1275 -647 1404 -556 
Q 1534 -466 1606 -231 
L 1638 -134 
L 78 3500 
z
M 2510 5119 
L 3394 5119 
L 2241 3944 
L 1629 3944 
L 2510 5119 
z
" transform="scale(0.015625)"/>
      <path id="DejaVuSans-Bold-28" d="M 2413 -844 
L 1484 -844 
Q 1006 -72 778 623 
Q 550 1319 550 2003 
Q 550 2688 779 3389 
Q 1009 4091 1484 4856 
L 2413 4856 
Q 2013 4116 1813 3408 
Q 1613 2700 1613 2009 
Q 1613 1319 1811 609 
Q 2009 -100 2413 -844 
z
" transform="scale(0.015625)"/>
      <path id="DejaVuSans-Bold-49" d="M 588 4666 
L 1791 4666 
L 1791 0 
L 588 0 
L 588 4666 
z
" transform="scale(0.015625)"/>
      <path id="DejaVuSans-Bold-2c" d="M 653 1209 
L 1778 1209 
L 1778 256 
L 1006 -909 
L 341 -909 
L 653 256 
L 653 1209 
z
" transform="scale(0.015625)"/>
      <path id="DejaVuSans-Bold-6c" d="M 538 4863 
L 1656 4863 
L 1656 0 
L 538 0 
L 538 4863 
z
" transform="scale(0.015625)"/>
      <path id="DejaVuSans-Bold-29" d="M 513 -844 
Q 913 -100 1113 609 
Q 1313 1319 1313 2009 
Q 1313 2700 1113 3408 
Q 913 4116 513 4856 
L 1441 4856 
Q 1916 4091 2145 3389 
Q 2375 2688 2375 2003 
Q 2375 1319 2147 623 
Q 1919 -72 1441 -844 
L 513 -844 
z
" transform="scale(0.015625)"/>
     </defs>
     <use xlink:href="#DejaVuSans-Bold-52"/>
     <use xlink:href="#DejaVuSans-Bold-65" x="77.001953"/>
     <use xlink:href="#DejaVuSans-Bold-71" x="144.824219"/>
     <use xlink:href="#DejaVuSans-Bold-75" x="216.40625"/>
     <use xlink:href="#DejaVuSans-Bold-65" x="287.597656"/>
     <use xlink:href="#DejaVuSans-Bold-73" x="355.419922"/>
     <use xlink:href="#DejaVuSans-Bold-74" x="414.941406"/>
     <use xlink:href="#DejaVuSans-Bold-20" x="462.744141"/>
     <use xlink:href="#DejaVuSans-Bold-67" x="497.558594"/>
     <use xlink:href="#DejaVuSans-Bold-1ee3" x="569.140625"/>
     <use xlink:href="#DejaVuSans-Bold-69" x="637.841797"/>
     <use xlink:href="#DejaVuSans-Bold-20" x="672.119141"/>
     <use xlink:href="#DejaVuSans-Bold-fd" x="706.933594"/>
     <use xlink:href="#DejaVuSans-Bold-20" x="772.119141"/>
     <use xlink:href="#DejaVuSans-Bold-28" x="806.933594"/>
     <use xlink:href="#DejaVuSans-Bold-75" x="852.636719"/>
     <use xlink:href="#DejaVuSans-Bold-73" x="923.828125"/>
     <use xlink:href="#DejaVuSans-Bold-65" x="983.349609"/>
     <use xlink:href="#DejaVuSans-Bold-72" x="1051.171875"/>
     <use xlink:href="#DejaVuSans-Bold-49" x="1100.488281"/>
     <use xlink:href="#DejaVuSans-Bold-64" x="1137.695312"/>
     <use xlink:href="#DejaVuSans-Bold-2c" x="1209.277344"/>
     <use xlink:href="#DejaVuSans-Bold-20" x="1247.265625"/>
     <use xlink:href="#DejaVuSans-Bold-6c" x="1282.080078"/>
     <use xlink:href="#DejaVuSans-Bold-69" x="1316.357422"/>
     <use xlink:href="#DejaVuSans-Bold-6d" x="1350.634766"/>
     <use xlink:href="#DejaVuSans-Bold-69" x="1454.833984"/>
     <use xlink:href="#DejaVuSans-Bold-74" x="1489.111328"/>
     <use xlink:href="#DejaVuSans-Bold-29" x="1536.914062"/>
    </g>
   </g>
   <g id="text_6">
    <!-- Lấy lịch sử booking &amp; review của user -->
    <g style="fill: #ffffff" transform="translate(356.711406 170.986346) scale(0.1 -0.1)">
     <defs>
      <path id="DejaVuSans-Bold-1ea5" d="M 2106 1575 
Q 1756 1575 1579 1456 
Q 1403 1338 1403 1106 
Q 1403 894 1545 773 
Q 1688 653 1941 653 
Q 2256 653 2472 879 
Q 2688 1106 2688 1447 
L 2688 1575 
L 2106 1575 
z
M 3816 1997 
L 3816 0 
L 2688 0 
L 2688 519 
Q 2463 200 2181 54 
Q 1900 -91 1497 -91 
Q 953 -91 614 226 
Q 275 544 275 1050 
Q 275 1666 698 1953 
Q 1122 2241 2028 2241 
L 2688 2241 
L 2688 2328 
Q 2688 2594 2478 2717 
Q 2269 2841 1825 2841 
Q 1466 2841 1156 2769 
Q 847 2697 581 2553 
L 581 3406 
Q 941 3494 1303 3539 
Q 1666 3584 2028 3584 
Q 2975 3584 3395 3211 
Q 3816 2838 3816 1997 
z
M 1527 4769 
L 2489 4769 
L 3186 3944 
L 2630 3944 
L 2008 4447 
L 1386 3944 
L 830 3944 
L 1527 4769 
z
M 3287 5601 
L 4172 5601 
L 3281 4776 
L 2669 4776 
L 3287 5601 
z
" transform="scale(0.015625)"/>
      <path id="DejaVuSans-Bold-1ecb" d="M 530 -447 
L 1649 -447 
L 1649 -1359 
L 530 -1359 
L 530 -447 
z
M 538 3500 
L 1656 3500 
L 1656 0 
L 538 0 
L 538 3500 
z
M 538 4863 
L 1656 4863 
L 1656 3950 
L 538 3950 
L 538 4863 
z
" transform="scale(0.015625)"/>
      <path id="DejaVuSans-Bold-1eed" d="M 2550 3944 
L 2041 3944 
L 2041 4097 
Q 2041 4188 2113 4303 
Q 2163 4384 2335 4519 
L 2435 4597 
Q 2497 4647 2547 4706 
Q 2622 4788 2625 4856 
Q 2625 4975 2488 5028 
Q 2369 5075 2166 5075 
Q 2053 5075 1915 5047 
Q 1778 5019 1506 4909 
L 1506 5272 
Q 1756 5341 1917 5369 
Q 2078 5397 2231 5397 
Q 2641 5397 2866 5250 
Q 3091 5103 3091 4825 
Q 3091 4681 3022 4569 
Q 2950 4447 2797 4334 
L 2697 4259 
Q 2603 4191 2575 4147 
Q 2550 4109 2550 4069 
L 2550 3944 
z
M 3441 2909 
L 3441 3350 
Q 3651 3194 3765 3134 
Q 3879 3075 3960 3075 
Q 4082 3075 4158 3167 
Q 4235 3259 4235 3413 
Q 4235 3534 4211 3654 
Q 4188 3775 4138 3900 
L 4626 3900 
Q 4660 3728 4677 3581 
Q 4694 3434 4694 3306 
Q 4694 2947 4550 2755 
Q 4407 2563 4138 2563 
Q 3973 2563 3802 2647 
Q 3632 2731 3441 2909 
z
M 484 1363 
L 484 3500 
L 1609 3500 
L 1609 3150 
Q 1609 2866 1606 2436 
Q 1603 2006 1603 1863 
Q 1603 1441 1625 1255 
Q 1647 1069 1700 984 
Q 1768 875 1879 815 
Q 1990 756 2134 756 
Q 2484 756 2684 1025 
Q 2884 1294 2884 1772 
L 2884 3500 
L 4003 3500 
L 4003 0 
L 2884 0 
L 2884 506 
Q 2631 200 2348 54 
Q 2065 -91 1725 -91 
Q 1118 -91 801 281 
Q 484 653 484 1363 
z
" transform="scale(0.015625)"/>
      <path id="DejaVuSans-Bold-6b" d="M 538 4863 
L 1656 4863 
L 1656 2216 
L 2944 3500 
L 4244 3500 
L 2534 1894 
L 4378 0 
L 3022 0 
L 1656 1459 
L 1656 0 
L 538 0 
L 538 4863 
z
" transform="scale(0.015625)"/>
      <path id="DejaVuSans-Bold-26" d="M 2497 3097 
L 3775 1691 
Q 3941 1909 4027 2181 
Q 4113 2453 4128 2797 
L 5100 2797 
Q 5053 2228 4879 1784 
Q 4706 1341 4397 1006 
L 5313 0 
L 3988 0 
L 3681 341 
Q 3353 122 2990 15 
Q 2628 -91 2222 -91 
Q 1400 -91 892 342 
Q 384 775 384 1459 
Q 384 1916 607 2267 
Q 831 2619 1338 2950 
Q 1206 3116 1143 3281 
Q 1081 3447 1081 3628 
Q 1081 4138 1478 4444 
Q 1875 4750 2534 4750 
Q 2819 4750 3126 4704 
Q 3434 4659 3769 4569 
L 3769 3700 
Q 3475 3850 3212 3922 
Q 2950 3994 2700 3994 
Q 2459 3994 2326 3901 
Q 2194 3809 2194 3641 
Q 2194 3534 2270 3398 
Q 2347 3263 2497 3097 
z
M 1875 2322 
Q 1672 2175 1569 1989 
Q 1466 1803 1466 1581 
Q 1466 1222 1731 969 
Q 1997 716 2369 716 
Q 2578 716 2759 780 
Q 2941 844 3097 972 
L 1875 2322 
z
" transform="scale(0.015625)"/>
      <path id="DejaVuSans-Bold-76" d="M 97 3500 
L 1216 3500 
L 2088 1081 
L 2956 3500 
L 4078 3500 
L 2700 0 
L 1472 0 
L 97 3500 
z
" transform="scale(0.015625)"/>
      <path id="DejaVuSans-Bold-77" d="M 225 3500 
L 1313 3500 
L 1900 1088 
L 2491 3500 
L 3425 3500 
L 4013 1113 
L 4603 3500 
L 5691 3500 
L 4769 0 
L 3547 0 
L 2956 2406 
L 2369 0 
L 1147 0 
L 225 3500 
z
" transform="scale(0.015625)"/>
      <path id="DejaVuSans-Bold-1ee7" d="M 2550 3944 
L 2041 3944 
L 2041 4097 
Q 2041 4188 2113 4303 
Q 2163 4384 2335 4519 
L 2435 4597 
Q 2497 4647 2547 4706 
Q 2622 4788 2625 4856 
Q 2625 4975 2488 5028 
Q 2369 5075 2166 5075 
Q 2053 5075 1915 5047 
Q 1778 5019 1506 4909 
L 1506 5272 
Q 1756 5341 1917 5369 
Q 2078 5397 2231 5397 
Q 2641 5397 2866 5250 
Q 3091 5103 3091 4825 
Q 3091 4681 3022 4569 
Q 2950 4447 2797 4334 
L 2697 4259 
Q 2603 4191 2575 4147 
Q 2550 4109 2550 4069 
L 2550 3944 
z
M 500 1363 
L 500 3500 
L 1625 3500 
L 1625 3150 
Q 1625 2866 1622 2436 
Q 1619 2006 1619 1863 
Q 1619 1441 1641 1255 
Q 1663 1069 1716 984 
Q 1784 875 1895 815 
Q 2006 756 2150 756 
Q 2500 756 2700 1025 
Q 2900 1294 2900 1772 
L 2900 3500 
L 4019 3500 
L 4019 0 
L 2900 0 
L 2900 506 
Q 2647 200 2364 54 
Q 2081 -91 1741 -91 
Q 1134 -91 817 281 
Q 500 653 500 1363 
z
" transform="scale(0.015625)"/>
      <path id="DejaVuSans-Bold-61" d="M 2106 1575 
Q 1756 1575 1579 1456 
Q 1403 1338 1403 1106 
Q 1403 894 1545 773 
Q 1688 653 1941 653 
Q 2256 653 2472 879 
Q 2688 1106 2688 1447 
L 2688 1575 
L 2106 1575 
z
M 3816 1997 
L 3816 0 
L 2688 0 
L 2688 519 
Q 2463 200 2181 54 
Q 1900 -91 1497 -91 
Q 953 -91 614 226 
Q 275 544 275 1050 
Q 275 1666 698 1953 
Q 1122 2241 2028 2241 
L 2688 2241 
L 2688 2328 
Q 2688 2594 2478 2717 
Q 2269 2841 1825 2841 
Q 1466 2841 1156 2769 
Q 847 2697 581 2553 
L 581 3406 
Q 941 3494 1303 3539 
Q 1666 3584 2028 3584 
Q 2975 3584 3395 3211 
Q 3816 2838 3816 1997 
z
" transform="scale(0.015625)"/>
     </defs>
     <use xlink:href="#DejaVuSans-Bold-4c"/>
     <use xlink:href="#DejaVuSans-Bold-1ea5" x="63.720703"/>
     <use xlink:href="#DejaVuSans-Bold-79" x="131.201172"/>
     <use xlink:href="#DejaVuSans-Bold-20" x="196.386719"/>
     <use xlink:href="#DejaVuSans-Bold-6c" x="231.201172"/>
     <use xlink:href="#DejaVuSans-Bold-1ecb" x="265.478516"/>
     <use xlink:href="#DejaVuSans-Bold-63" x="299.755859"/>
     <use xlink:href="#DejaVuSans-Bold-68" x="359.033203"/>
     <use xlink:href="#DejaVuSans-Bold-20" x="430.224609"/>
     <use xlink:href="#DejaVuSans-Bold-73" x="465.039062"/>
     <use xlink:href="#DejaVuSans-Bold-1eed" x="524.560547"/>
     <use xlink:href="#DejaVuSans-Bold-20" x="595.751953"/>
     <use xlink:href="#DejaVuSans-Bold-62" x="630.566406"/>
     <use xlink:href="#DejaVuSans-Bold-6f" x="702.148438"/>
     <use xlink:href="#DejaVuSans-Bold-6f" x="770.849609"/>
     <use xlink:href="#DejaVuSans-Bold-6b" x="839.550781"/>
     <use xlink:href="#DejaVuSans-Bold-69" x="906.054688"/>
     <use xlink:href="#DejaVuSans-Bold-6e" x="940.332031"/>
     <use xlink:href="#DejaVuSans-Bold-67" x="1011.523438"/>
     <use xlink:href="#DejaVuSans-Bold-20" x="1083.105469"/>
     <use xlink:href="#DejaVuSans-Bold-26" x="1117.919922"/>
     <use xlink:href="#DejaVuSans-Bold-20" x="1205.126953"/>
     <use xlink:href="#DejaVuSans-Bold-72" x="1239.941406"/>
     <use xlink:href="#DejaVuSans-Bold-65" x="1289.257812"/>
     <use xlink:href="#DejaVuSans-Bold-76" x="1357.080078"/>
     <use xlink:href="#DejaVuSans-Bold-69" x="1422.265625"/>
     <use xlink:href="#DejaVuSans-Bold-65" x="1456.542969"/>
     <use xlink:href="#DejaVuSans-Bold-77" x="1524.365234"/>
     <use xlink:href="#DejaVuSans-Bold-20" x="1616.748047"/>
     <use xlink:href="#DejaVuSans-Bold-63" x="1651.5625"/>
     <use xlink:href="#DejaVuSans-Bold-1ee7" x="1710.839844"/>
     <use xlink:href="#DejaVuSans-Bold-61" x="1782.03125"/>
     <use xlink:href="#DejaVuSans-Bold-20" x="1849.511719"/>
     <use xlink:href="#DejaVuSans-Bold-75" x="1884.326172"/>
     <use xlink:href="#DejaVuSans-Bold-73" x="1955.517578"/>
     <use xlink:href="#DejaVuSans-Bold-65" x="2015.039062"/>
     <use xlink:href="#DejaVuSans-Bold-72" x="2082.861328"/>
    </g>
   </g>
   <g id="text_7">
    <!-- Xác định User Level -->
    <g style="fill: #ffffff" transform="translate(410.441367 254.569132) scale(0.095 -0.095)">
     <defs>
      <path id="DejaVuSans-Bold-58" d="M 3188 2381 
L 4806 0 
L 3553 0 
L 2463 1594 
L 1381 0 
L 122 0 
L 1741 2381 
L 184 4666 
L 1441 4666 
L 2463 3163 
L 3481 4666 
L 4744 4666 
L 3188 2381 
z
" transform="scale(0.015625)"/>
      <path id="DejaVuSans-Bold-111" d="M 2919 2988 
L 2919 3866 
L 1900 3866 
L 1900 4506 
L 2919 4506 
L 2919 4863 
L 4044 4863 
L 4044 4506 
L 4525 4506 
L 4525 3866 
L 4044 3866 
L 4044 0 
L 2919 0 
L 2919 506 
Q 2688 197 2409 53 
Q 2131 -91 1766 -91 
Q 1119 -91 703 423 
Q 288 938 288 1747 
Q 288 2556 703 3070 
Q 1119 3584 1766 3584 
Q 2128 3584 2408 3439 
Q 2688 3294 2919 2988 
z
M 2181 722 
Q 2541 722 2730 984 
Q 2919 1247 2919 1747 
Q 2919 2247 2730 2509 
Q 2541 2772 2181 2772 
Q 1825 2772 1636 2509 
Q 1447 2247 1447 1747 
Q 1447 1247 1636 984 
Q 1825 722 2181 722 
z
" transform="scale(0.015625)"/>
      <path id="DejaVuSans-Bold-55" d="M 588 4666 
L 1791 4666 
L 1791 1869 
Q 1791 1291 1980 1042 
Q 2169 794 2597 794 
Q 3028 794 3217 1042 
Q 3406 1291 3406 1869 
L 3406 4666 
L 4609 4666 
L 4609 1869 
Q 4609 878 4112 393 
Q 3616 -91 2597 -91 
Q 1581 -91 1084 393 
Q 588 878 588 1869 
L 588 4666 
z
" transform="scale(0.015625)"/>
     </defs>
     <use xlink:href="#DejaVuSans-Bold-58"/>
     <use xlink:href="#DejaVuSans-Bold-e1" x="77.099609"/>
     <use xlink:href="#DejaVuSans-Bold-63" x="144.580078"/>
     <use xlink:href="#DejaVuSans-Bold-20" x="203.857422"/>
     <use xlink:href="#DejaVuSans-Bold-111" x="238.671875"/>
     <use xlink:href="#DejaVuSans-Bold-1ecb" x="310.253906"/>
     <use xlink:href="#DejaVuSans-Bold-6e" x="344.53125"/>
     <use xlink:href="#DejaVuSans-Bold-68" x="415.722656"/>
     <use xlink:href="#DejaVuSans-Bold-20" x="486.914062"/>
     <use xlink:href="#DejaVuSans-Bold-55" x="521.728516"/>
     <use xlink:href="#DejaVuSans-Bold-73" x="602.929688"/>
     <use xlink:href="#DejaVuSans-Bold-65" x="662.451172"/>
     <use xlink:href="#DejaVuSans-Bold-72" x="730.273438"/>
     <use xlink:href="#DejaVuSans-Bold-20" x="779.589844"/>
     <use xlink:href="#DejaVuSans-Bold-4c" x="814.404297"/>
     <use xlink:href="#DejaVuSans-Bold-65" x="878.125"/>
     <use xlink:href="#DejaVuSans-Bold-76" x="945.947266"/>
     <use xlink:href="#DejaVuSans-Bold-65" x="1011.132812"/>
     <use xlink:href="#DejaVuSans-Bold-6c" x="1078.955078"/>
    </g>
    <!-- (cold / new / regular / active) -->
    <g style="fill: #ffffff" transform="translate(385.991484 265.248617) scale(0.095 -0.095)">
     <defs>
      <path id="DejaVuSans-Bold-2f" d="M 1644 4666 
L 2338 4666 
L 691 -594 
L 0 -594 
L 1644 4666 
z
" transform="scale(0.015625)"/>
     </defs>
     <use xlink:href="#DejaVuSans-Bold-28"/>
     <use xlink:href="#DejaVuSans-Bold-63" x="45.703125"/>
     <use xlink:href="#DejaVuSans-Bold-6f" x="104.980469"/>
     <use xlink:href="#DejaVuSans-Bold-6c" x="173.681641"/>
     <use xlink:href="#DejaVuSans-Bold-64" x="207.958984"/>
     <use xlink:href="#DejaVuSans-Bold-20" x="279.541016"/>
     <use xlink:href="#DejaVuSans-Bold-2f" x="314.355469"/>
     <use xlink:href="#DejaVuSans-Bold-20" x="350.878906"/>
     <use xlink:href="#DejaVuSans-Bold-6e" x="385.693359"/>
     <use xlink:href="#DejaVuSans-Bold-65" x="456.884766"/>
     <use xlink:href="#DejaVuSans-Bold-77" x="524.707031"/>
     <use xlink:href="#DejaVuSans-Bold-20" x="617.089844"/>
     <use xlink:href="#DejaVuSans-Bold-2f" x="651.904297"/>
     <use xlink:href="#DejaVuSans-Bold-20" x="688.427734"/>
     <use xlink:href="#DejaVuSans-Bold-72" x="723.242188"/>
     <use xlink:href="#DejaVuSans-Bold-65" x="772.558594"/>
     <use xlink:href="#DejaVuSans-Bold-67" x="840.380859"/>
     <use xlink:href="#DejaVuSans-Bold-75" x="911.962891"/>
     <use xlink:href="#DejaVuSans-Bold-6c" x="983.154297"/>
     <use xlink:href="#DejaVuSans-Bold-61" x="1017.431641"/>
     <use xlink:href="#DejaVuSans-Bold-72" x="1084.912109"/>
     <use xlink:href="#DejaVuSans-Bold-20" x="1134.228516"/>
     <use xlink:href="#DejaVuSans-Bold-2f" x="1169.042969"/>
     <use xlink:href="#DejaVuSans-Bold-20" x="1205.566406"/>
     <use xlink:href="#DejaVuSans-Bold-61" x="1240.380859"/>
     <use xlink:href="#DejaVuSans-Bold-63" x="1307.861328"/>
     <use xlink:href="#DejaVuSans-Bold-74" x="1367.138672"/>
     <use xlink:href="#DejaVuSans-Bold-69" x="1414.941406"/>
     <use xlink:href="#DejaVuSans-Bold-76" x="1449.21875"/>
     <use xlink:href="#DejaVuSans-Bold-65" x="1514.404297"/>
     <use xlink:href="#DejaVuSans-Bold-29" x="1582.226562"/>
    </g>
   </g>
   <g id="text_8">
    <!-- Lấy trọng số động (α, β, γ) -->
    <g style="fill: #ffffff" transform="translate(388.27625 351.473793) scale(0.1 -0.1)">
     <defs>
      <path id="DejaVuSans-Bold-1ecd" d="M 1634 -447 
L 2753 -447 
L 2753 -1359 
L 1634 -1359 
L 1634 -447 
z
M 2203 2784 
Q 1831 2784 1636 2517 
Q 1441 2250 1441 1747 
Q 1441 1244 1636 976 
Q 1831 709 2203 709 
Q 2569 709 2762 976 
Q 2956 1244 2956 1747 
Q 2956 2250 2762 2517 
Q 2569 2784 2203 2784 
z
M 2203 3584 
Q 3106 3584 3614 3096 
Q 4122 2609 4122 1747 
Q 4122 884 3614 396 
Q 3106 -91 2203 -91 
Q 1297 -91 786 396 
Q 275 884 275 1747 
Q 275 2609 786 3096 
Q 1297 3584 2203 3584 
z
" transform="scale(0.015625)"/>
      <path id="DejaVuSans-Bold-1ed1" d="M 2203 2784 
Q 1831 2784 1636 2517 
Q 1441 2250 1441 1747 
Q 1441 1244 1636 976 
Q 1831 709 2203 709 
Q 2569 709 2762 976 
Q 2956 1244 2956 1747 
Q 2956 2250 2762 2517 
Q 2569 2784 2203 2784 
z
M 2203 3584 
Q 3106 3584 3614 3096 
Q 4122 2609 4122 1747 
Q 4122 884 3614 396 
Q 3106 -91 2203 -91 
Q 1297 -91 786 396 
Q 275 884 275 1747 
Q 275 2609 786 3096 
Q 1297 3584 2203 3584 
z
M 1703 4769 
L 2665 4769 
L 3362 3944 
L 2806 3944 
L 2184 4447 
L 1562 3944 
L 1006 3944 
L 1703 4769 
z
M 3463 5601 
L 4348 5601 
L 3457 4776 
L 2845 4776 
L 3463 5601 
z
" transform="scale(0.015625)"/>
      <path id="DejaVuSans-Bold-1ed9" d="M 1634 -447 
L 2753 -447 
L 2753 -1359 
L 1634 -1359 
L 1634 -447 
z
M 2203 2784 
Q 1831 2784 1636 2517 
Q 1441 2250 1441 1747 
Q 1441 1244 1636 976 
Q 1831 709 2203 709 
Q 2569 709 2762 976 
Q 2956 1244 2956 1747 
Q 2956 2250 2762 2517 
Q 2569 2784 2203 2784 
z
M 2203 3584 
Q 3106 3584 3614 3096 
Q 4122 2609 4122 1747 
Q 4122 884 3614 396 
Q 3106 -91 2203 -91 
Q 1297 -91 786 396 
Q 275 884 275 1747 
Q 275 2609 786 3096 
Q 1297 3584 2203 3584 
z
M 1822 5119 
L 2578 5119 
L 3378 3944 
L 2822 3944 
L 2200 4647 
L 1578 3944 
L 1022 3944 
L 1822 5119 
z
" transform="scale(0.015625)"/>
      <path id="DejaVuSans-Bold-3b1" d="M 3006 3163 
L 3119 3500 
L 4088 3500 
L 3484 1697 
L 3569 1219 
Q 3659 703 3872 703 
L 4128 703 
L 4128 0 
L 3809 0 
Q 3313 0 3059 263 
Q 3003 322 2988 353 
Q 2838 163 2689 39 
Q 2541 -84 1763 -78 
Q 988 -72 648 400 
Q 309 872 309 1794 
Q 309 2713 663 3088 
Q 1109 3569 1966 3578 
Q 2688 3588 3006 3163 
z
M 2575 1841 
L 2481 2350 
Q 2394 2825 1981 2828 
Q 1772 2828 1598 2558 
Q 1425 2288 1425 1741 
Q 1425 1191 1581 944 
Q 1738 697 1969 691 
Q 2213 684 2363 1163 
L 2575 1841 
z
" transform="scale(0.015625)"/>
      <path id="DejaVuSans-Bold-3b2" d="M 2575 3038 
Q 2772 3309 2772 3503 
Q 2772 3769 2648 3948 
Q 2525 4128 2241 4128 
Q 1900 4128 1778 3864 
Q 1656 3600 1656 3103 
L 1656 1747 
Q 1656 1250 1848 986 
Q 2041 722 2400 722 
Q 2800 722 2953 934 
Q 3106 1147 3106 1275 
Q 3106 1722 2738 1988 
Q 2538 2122 1988 2134 
L 1988 2847 
Q 2497 2925 2575 3038 
z
M 538 -1331 
L 538 3044 
Q 538 3922 969 4369 
Q 1325 4741 1672 4845 
Q 2019 4950 2259 4950 
Q 2500 4947 2538 4941 
Q 3178 4841 3538 4438 
Q 3788 4163 3788 3600 
Q 3788 3313 3616 3053 
Q 3406 2734 3094 2709 
Q 3556 2584 3844 2322 
Q 4294 1919 4294 1288 
Q 4294 731 3903 320 
Q 3513 -91 2809 -91 
Q 2106 -91 1656 506 
L 1656 -1331 
L 538 -1331 
z
" transform="scale(0.015625)"/>
      <path id="DejaVuSans-Bold-3b3" d="M 1769 2450 
L 2275 1100 
L 3144 3500 
L 4266 3500 
L 2834 0 
L 2834 -1331 
L 1716 -1331 
L 1716 0 
L 794 2350 
Q 688 2625 594 2675 
Q 425 2766 309 2766 
L 97 2766 
L 97 3500 
L 606 3500 
Q 819 3500 1294 3269 
Q 1500 3169 1769 2450 
z
" transform="scale(0.015625)"/>
     </defs>
     <use xlink:href="#DejaVuSans-Bold-4c"/>
     <use xlink:href="#DejaVuSans-Bold-1ea5" x="63.720703"/>
     <use xlink:href="#DejaVuSans-Bold-79" x="131.201172"/>
     <use xlink:href="#DejaVuSans-Bold-20" x="196.386719"/>
     <use xlink:href="#DejaVuSans-Bold-74" x="231.201172"/>
     <use xlink:href="#DejaVuSans-Bold-72" x="279.003906"/>
     <use xlink:href="#DejaVuSans-Bold-1ecd" x="328.320312"/>
     <use xlink:href="#DejaVuSans-Bold-6e" x="397.021484"/>
     <use xlink:href="#DejaVuSans-Bold-67" x="468.212891"/>
     <use xlink:href="#DejaVuSans-Bold-20" x="539.794922"/>
     <use xlink:href="#DejaVuSans-Bold-73" x="574.609375"/>
     <use xlink:href="#DejaVuSans-Bold-1ed1" x="634.130859"/>
     <use xlink:href="#DejaVuSans-Bold-20" x="702.832031"/>
     <use xlink:href="#DejaVuSans-Bold-111" x="737.646484"/>
     <use xlink:href="#DejaVuSans-Bold-1ed9" x="809.228516"/>
     <use xlink:href="#DejaVuSans-Bold-6e" x="877.929688"/>
     <use xlink:href="#DejaVuSans-Bold-67" x="949.121094"/>
     <use xlink:href="#DejaVuSans-Bold-20" x="1020.703125"/>
     <use xlink:href="#DejaVuSans-Bold-28" x="1055.517578"/>
     <use xlink:href="#DejaVuSans-Bold-3b1" x="1101.220703"/>
     <use xlink:href="#DejaVuSans-Bold-2c" x="1169.921875"/>
     <use xlink:href="#DejaVuSans-Bold-20" x="1207.910156"/>
     <use xlink:href="#DejaVuSans-Bold-3b2" x="1242.724609"/>
     <use xlink:href="#DejaVuSans-Bold-2c" x="1314.306641"/>
     <use xlink:href="#DejaVuSans-Bold-20" x="1352.294922"/>
     <use xlink:href="#DejaVuSans-Bold-3b3" x="1387.109375"/>
     <use xlink:href="#DejaVuSans-Bold-29" x="1455.224609"/>
    </g>
   </g>
   <g id="text_9">
    <!-- CF Score -->
    <g style="fill: #ffffff" transform="translate(155.673482 430.095658) scale(0.095 -0.095)">
     <defs>
      <path id="DejaVuSans-Bold-43" d="M 4288 256 
Q 3956 84 3597 -3 
Q 3238 -91 2847 -91 
Q 1681 -91 1000 561 
Q 319 1213 319 2328 
Q 319 3447 1000 4098 
Q 1681 4750 2847 4750 
Q 3238 4750 3597 4662 
Q 3956 4575 4288 4403 
L 4288 3438 
Q 3953 3666 3628 3772 
Q 3303 3878 2944 3878 
Q 2300 3878 1931 3465 
Q 1563 3053 1563 2328 
Q 1563 1606 1931 1193 
Q 2300 781 2944 781 
Q 3303 781 3628 887 
Q 3953 994 4288 1222 
L 4288 256 
z
" transform="scale(0.015625)"/>
      <path id="DejaVuSans-Bold-46" d="M 588 4666 
L 3834 4666 
L 3834 3756 
L 1791 3756 
L 1791 2888 
L 3713 2888 
L 3713 1978 
L 1791 1978 
L 1791 0 
L 588 0 
L 588 4666 
z
" transform="scale(0.015625)"/>
      <path id="DejaVuSans-Bold-53" d="M 3834 4519 
L 3834 3531 
Q 3450 3703 3084 3790 
Q 2719 3878 2394 3878 
Q 1963 3878 1756 3759 
Q 1550 3641 1550 3391 
Q 1550 3203 1689 3098 
Q 1828 2994 2194 2919 
L 2706 2816 
Q 3484 2659 3812 2340 
Q 4141 2022 4141 1434 
Q 4141 663 3683 286 
Q 3225 -91 2284 -91 
Q 1841 -91 1394 -6 
Q 947 78 500 244 
L 500 1259 
Q 947 1022 1364 901 
Q 1781 781 2169 781 
Q 2563 781 2772 912 
Q 2981 1044 2981 1288 
Q 2981 1506 2839 1625 
Q 2697 1744 2272 1838 
L 1806 1941 
Q 1106 2091 782 2419 
Q 459 2747 459 3303 
Q 459 4000 909 4375 
Q 1359 4750 2203 4750 
Q 2588 4750 2994 4692 
Q 3400 4634 3834 4519 
z
" transform="scale(0.015625)"/>
     </defs>
     <use xlink:href="#DejaVuSans-Bold-43"/>
     <use xlink:href="#DejaVuSans-Bold-46" x="73.388672"/>
     <use xlink:href="#DejaVuSans-Bold-20" x="141.699219"/>
     <use xlink:href="#DejaVuSans-Bold-53" x="176.513672"/>
     <use xlink:href="#DejaVuSans-Bold-63" x="248.535156"/>
     <use xlink:href="#DejaVuSans-Bold-6f" x="307.8125"/>
     <use xlink:href="#DejaVuSans-Bold-72" x="376.513672"/>
     <use xlink:href="#DejaVuSans-Bold-65" x="425.830078"/>
    </g>
    <!-- User-Based Cosine Similarity -->
    <g style="fill: #ffffff" transform="translate(101.714224 440.73358) scale(0.095 -0.095)">
     <defs>
      <path id="DejaVuSans-Bold-2d" d="M 347 2297 
L 2309 2297 
L 2309 1388 
L 347 1388 
L 347 2297 
z
" transform="scale(0.015625)"/>
      <path id="DejaVuSans-Bold-42" d="M 2456 2859 
Q 2741 2859 2887 2984 
Q 3034 3109 3034 3353 
Q 3034 3594 2887 3720 
Q 2741 3847 2456 3847 
L 1791 3847 
L 1791 2859 
L 2456 2859 
z
M 2497 819 
Q 2859 819 3042 972 
Q 3225 1125 3225 1434 
Q 3225 1738 3044 1889 
Q 2863 2041 2497 2041 
L 1791 2041 
L 1791 819 
L 2497 819 
z
M 3616 2497 
Q 4003 2384 4215 2081 
Q 4428 1778 4428 1338 
Q 4428 663 3972 331 
Q 3516 0 2584 0 
L 588 0 
L 588 4666 
L 2394 4666 
Q 3366 4666 3802 4372 
Q 4238 4078 4238 3431 
Q 4238 3091 4078 2852 
Q 3919 2613 3616 2497 
z
" transform="scale(0.015625)"/>
     </defs>
     <use xlink:href="#DejaVuSans-Bold-55"/>
     <use xlink:href="#DejaVuSans-Bold-73" x="81.201172"/>
     <use xlink:href="#DejaVuSans-Bold-65" x="140.722656"/>
     <use xlink:href="#DejaVuSans-Bold-72" x="208.544922"/>
     <use xlink:href="#DejaVuSans-Bold-2d" x="257.861328"/>
     <use xlink:href="#DejaVuSans-Bold-42" x="299.365234"/>
     <use xlink:href="#DejaVuSans-Bold-61" x="375.585938"/>
     <use xlink:href="#DejaVuSans-Bold-73" x="443.066406"/>
     <use xlink:href="#DejaVuSans-Bold-65" x="502.587891"/>
     <use xlink:href="#DejaVuSans-Bold-64" x="570.410156"/>
     <use xlink:href="#DejaVuSans-Bold-20" x="641.992188"/>
     <use xlink:href="#DejaVuSans-Bold-43" x="676.806641"/>
     <use xlink:href="#DejaVuSans-Bold-6f" x="750.195312"/>
     <use xlink:href="#DejaVuSans-Bold-73" x="818.896484"/>
     <use xlink:href="#DejaVuSans-Bold-69" x="878.417969"/>
     <use xlink:href="#DejaVuSans-Bold-6e" x="912.695312"/>
     <use xlink:href="#DejaVuSans-Bold-65" x="983.886719"/>
     <use xlink:href="#DejaVuSans-Bold-20" x="1051.708984"/>
     <use xlink:href="#DejaVuSans-Bold-53" x="1086.523438"/>
     <use xlink:href="#DejaVuSans-Bold-69" x="1158.544922"/>
     <use xlink:href="#DejaVuSans-Bold-6d" x="1192.822266"/>
     <use xlink:href="#DejaVuSans-Bold-69" x="1297.021484"/>
     <use xlink:href="#DejaVuSans-Bold-6c" x="1331.298828"/>
     <use xlink:href="#DejaVuSans-Bold-61" x="1365.576172"/>
     <use xlink:href="#DejaVuSans-Bold-72" x="1433.056641"/>
     <use xlink:href="#DejaVuSans-Bold-69" x="1482.373047"/>
     <use xlink:href="#DejaVuSans-Bold-74" x="1516.650391"/>
     <use xlink:href="#DejaVuSans-Bold-79" x="1564.453125"/>
    </g>
   </g>
   <g id="text_10">
    <!-- CB Score -->
    <g style="fill: #ffffff" transform="translate(443.004397 430.132768) scale(0.095 -0.095)">
     <use xlink:href="#DejaVuSans-Bold-43"/>
     <use xlink:href="#DejaVuSans-Bold-42" x="73.388672"/>
     <use xlink:href="#DejaVuSans-Bold-20" x="149.609375"/>
     <use xlink:href="#DejaVuSans-Bold-53" x="184.423828"/>
     <use xlink:href="#DejaVuSans-Bold-63" x="256.445312"/>
     <use xlink:href="#DejaVuSans-Bold-6f" x="315.722656"/>
     <use xlink:href="#DejaVuSans-Bold-72" x="384.423828"/>
     <use xlink:href="#DejaVuSans-Bold-65" x="433.740234"/>
    </g>
    <!-- User Profile × Tour Features -->
    <g style="fill: #ffffff" transform="translate(391.230139 440.77069) scale(0.095 -0.095)">
     <defs>
      <path id="DejaVuSans-Bold-50" d="M 588 4666 
L 2584 4666 
Q 3475 4666 3951 4270 
Q 4428 3875 4428 3144 
Q 4428 2409 3951 2014 
Q 3475 1619 2584 1619 
L 1791 1619 
L 1791 0 
L 588 0 
L 588 4666 
z
M 1791 3794 
L 1791 2491 
L 2456 2491 
Q 2806 2491 2997 2661 
Q 3188 2831 3188 3144 
Q 3188 3456 2997 3625 
Q 2806 3794 2456 3794 
L 1791 3794 
z
" transform="scale(0.015625)"/>
      <path id="DejaVuSans-Bold-66" d="M 2841 4863 
L 2841 4128 
L 2222 4128 
Q 1984 4128 1890 4042 
Q 1797 3956 1797 3744 
L 1797 3500 
L 2753 3500 
L 2753 2700 
L 1797 2700 
L 1797 0 
L 678 0 
L 678 2700 
L 122 2700 
L 122 3500 
L 678 3500 
L 678 3744 
Q 678 4316 997 4589 
Q 1316 4863 1984 4863 
L 2841 4863 
z
" transform="scale(0.015625)"/>
      <path id="DejaVuSans-Bold-d7" d="M 4563 3359 
L 3206 2003 
L 4563 653 
L 4038 128 
L 2681 1478 
L 1325 128 
L 800 653 
L 2156 2003 
L 800 3359 
L 1325 3884 
L 2681 2528 
L 4038 3884 
L 4563 3359 
z
" transform="scale(0.015625)"/>
     </defs>
     <use xlink:href="#DejaVuSans-Bold-55"/>
     <use xlink:href="#DejaVuSans-Bold-73" x="81.201172"/>
     <use xlink:href="#DejaVuSans-Bold-65" x="140.722656"/>
     <use xlink:href="#DejaVuSans-Bold-72" x="208.544922"/>
     <use xlink:href="#DejaVuSans-Bold-20" x="257.861328"/>
     <use xlink:href="#DejaVuSans-Bold-50" x="292.675781"/>
     <use xlink:href="#DejaVuSans-Bold-72" x="365.966797"/>
     <use xlink:href="#DejaVuSans-Bold-6f" x="415.283203"/>
     <use xlink:href="#DejaVuSans-Bold-66" x="483.984375"/>
     <use xlink:href="#DejaVuSans-Bold-69" x="527.490234"/>
     <use xlink:href="#DejaVuSans-Bold-6c" x="561.767578"/>
     <use xlink:href="#DejaVuSans-Bold-65" x="596.044922"/>
     <use xlink:href="#DejaVuSans-Bold-20" x="663.867188"/>
     <use xlink:href="#DejaVuSans-Bold-d7" x="698.681641"/>
     <use xlink:href="#DejaVuSans-Bold-20" x="782.470703"/>
     <use xlink:href="#DejaVuSans-Bold-54" x="817.285156"/>
     <use xlink:href="#DejaVuSans-Bold-6f" x="872.248047"/>
     <use xlink:href="#DejaVuSans-Bold-75" x="940.949219"/>
     <use xlink:href="#DejaVuSans-Bold-72" x="1012.140625"/>
     <use xlink:href="#DejaVuSans-Bold-20" x="1061.457031"/>
     <use xlink:href="#DejaVuSans-Bold-46" x="1096.271484"/>
     <use xlink:href="#DejaVuSans-Bold-65" x="1160.582031"/>
     <use xlink:href="#DejaVuSans-Bold-61" x="1228.404297"/>
     <use xlink:href="#DejaVuSans-Bold-74" x="1295.884766"/>
     <use xlink:href="#DejaVuSans-Bold-75" x="1343.6875"/>
     <use xlink:href="#DejaVuSans-Bold-72" x="1414.878906"/>
     <use xlink:href="#DejaVuSans-Bold-65" x="1464.195312"/>
     <use xlink:href="#DejaVuSans-Bold-73" x="1532.017578"/>
    </g>
   </g>
   <g id="text_11">
    <!-- Popularity Score -->
    <g style="fill: #ffffff" transform="translate(717.136839 430.058549) scale(0.095 -0.095)">
     <defs>
      <path id="DejaVuSans-Bold-70" d="M 1656 506 
L 1656 -1331 
L 538 -1331 
L 538 3500 
L 1656 3500 
L 1656 2988 
Q 1888 3294 2169 3439 
Q 2450 3584 2816 3584 
Q 3463 3584 3878 3070 
Q 4294 2556 4294 1747 
Q 4294 938 3878 423 
Q 3463 -91 2816 -91 
Q 2450 -91 2169 54 
Q 1888 200 1656 506 
z
M 2400 2772 
Q 2041 2772 1848 2508 
Q 1656 2244 1656 1747 
Q 1656 1250 1848 986 
Q 2041 722 2400 722 
Q 2759 722 2948 984 
Q 3138 1247 3138 1747 
Q 3138 2247 2948 2509 
Q 2759 2772 2400 2772 
z
" transform="scale(0.015625)"/>
     </defs>
     <use xlink:href="#DejaVuSans-Bold-50"/>
     <use xlink:href="#DejaVuSans-Bold-6f" x="73.291016"/>
     <use xlink:href="#DejaVuSans-Bold-70" x="141.992188"/>
     <use xlink:href="#DejaVuSans-Bold-75" x="213.574219"/>
     <use xlink:href="#DejaVuSans-Bold-6c" x="284.765625"/>
     <use xlink:href="#DejaVuSans-Bold-61" x="319.042969"/>
     <use xlink:href="#DejaVuSans-Bold-72" x="386.523438"/>
     <use xlink:href="#DejaVuSans-Bold-69" x="435.839844"/>
     <use xlink:href="#DejaVuSans-Bold-74" x="470.117188"/>
     <use xlink:href="#DejaVuSans-Bold-79" x="517.919922"/>
     <use xlink:href="#DejaVuSans-Bold-20" x="583.105469"/>
     <use xlink:href="#DejaVuSans-Bold-53" x="617.919922"/>
     <use xlink:href="#DejaVuSans-Bold-63" x="689.941406"/>
     <use xlink:href="#DejaVuSans-Bold-6f" x="749.21875"/>
     <use xlink:href="#DejaVuSans-Bold-72" x="817.919922"/>
     <use xlink:href="#DejaVuSans-Bold-65" x="867.236328"/>
    </g>
    <!-- 0.6×bookings + 0.4×rating -->
    <g style="fill: #ffffff" transform="translate(688.92555 440.77069) scale(0.095 -0.095)">
     <defs>
      <path id="DejaVuSans-Bold-30" d="M 2944 2338 
Q 2944 3213 2780 3570 
Q 2616 3928 2228 3928 
Q 1841 3928 1675 3570 
Q 1509 3213 1509 2338 
Q 1509 1453 1675 1090 
Q 1841 728 2228 728 
Q 2613 728 2778 1090 
Q 2944 1453 2944 2338 
z
M 4147 2328 
Q 4147 1169 3647 539 
Q 3147 -91 2228 -91 
Q 1306 -91 806 539 
Q 306 1169 306 2328 
Q 306 3491 806 4120 
Q 1306 4750 2228 4750 
Q 3147 4750 3647 4120 
Q 4147 3491 4147 2328 
z
" transform="scale(0.015625)"/>
      <path id="DejaVuSans-Bold-2e" d="M 653 1209 
L 1778 1209 
L 1778 0 
L 653 0 
L 653 1209 
z
" transform="scale(0.015625)"/>
      <path id="DejaVuSans-Bold-36" d="M 2316 2303 
Q 2000 2303 1842 2098 
Q 1684 1894 1684 1484 
Q 1684 1075 1842 870 
Q 2000 666 2316 666 
Q 2634 666 2792 870 
Q 2950 1075 2950 1484 
Q 2950 1894 2792 2098 
Q 2634 2303 2316 2303 
z
M 3803 4544 
L 3803 3681 
Q 3506 3822 3243 3889 
Q 2981 3956 2731 3956 
Q 2194 3956 1894 3657 
Q 1594 3359 1544 2772 
Q 1750 2925 1990 3001 
Q 2231 3078 2516 3078 
Q 3231 3078 3670 2659 
Q 4109 2241 4109 1563 
Q 4109 813 3618 361 
Q 3128 -91 2303 -91 
Q 1394 -91 895 523 
Q 397 1138 397 2266 
Q 397 3422 980 4083 
Q 1563 4744 2578 4744 
Q 2900 4744 3203 4694 
Q 3506 4644 3803 4544 
z
" transform="scale(0.015625)"/>
      <path id="DejaVuSans-Bold-2b" d="M 3053 4013 
L 3053 2375 
L 4684 2375 
L 4684 1638 
L 3053 1638 
L 3053 0 
L 2309 0 
L 2309 1638 
L 678 1638 
L 678 2375 
L 2309 2375 
L 2309 4013 
L 3053 4013 
z
" transform="scale(0.015625)"/>
      <path id="DejaVuSans-Bold-34" d="M 2356 3675 
L 1038 1722 
L 2356 1722 
L 2356 3675 
z
M 2156 4666 
L 3494 4666 
L 3494 1722 
L 4159 1722 
L 4159 850 
L 3494 850 
L 3494 0 
L 2356 0 
L 2356 850 
L 288 850 
L 288 1881 
L 2156 4666 
z
" transform="scale(0.015625)"/>
     </defs>
     <use xlink:href="#DejaVuSans-Bold-30"/>
     <use xlink:href="#DejaVuSans-Bold-2e" x="69.580078"/>
     <use xlink:href="#DejaVuSans-Bold-36" x="107.568359"/>
     <use xlink:href="#DejaVuSans-Bold-d7" x="177.148438"/>
     <use xlink:href="#DejaVuSans-Bold-62" x="260.9375"/>
     <use xlink:href="#DejaVuSans-Bold-6f" x="332.519531"/>
     <use xlink:href="#DejaVuSans-Bold-6f" x="401.220703"/>
     <use xlink:href="#DejaVuSans-Bold-6b" x="469.921875"/>
     <use xlink:href="#DejaVuSans-Bold-69" x="536.425781"/>
     <use xlink:href="#DejaVuSans-Bold-6e" x="570.703125"/>
     <use xlink:href="#DejaVuSans-Bold-67" x="641.894531"/>
     <use xlink:href="#DejaVuSans-Bold-73" x="713.476562"/>
     <use xlink:href="#DejaVuSans-Bold-20" x="772.998047"/>
     <use xlink:href="#DejaVuSans-Bold-2b" x="807.8125"/>
     <use xlink:href="#DejaVuSans-Bold-20" x="891.601562"/>
     <use xlink:href="#DejaVuSans-Bold-30" x="926.416016"/>
     <use xlink:href="#DejaVuSans-Bold-2e" x="995.996094"/>
     <use xlink:href="#DejaVuSans-Bold-34" x="1033.984375"/>
     <use xlink:href="#DejaVuSans-Bold-d7" x="1103.564453"/>
     <use xlink:href="#DejaVuSans-Bold-72" x="1187.353516"/>
     <use xlink:href="#DejaVuSans-Bold-61" x="1236.669922"/>
     <use xlink:href="#DejaVuSans-Bold-74" x="1304.150391"/>
     <use xlink:href="#DejaVuSans-Bold-69" x="1351.953125"/>
     <use xlink:href="#DejaVuSans-Bold-6e" x="1386.230469"/>
     <use xlink:href="#DejaVuSans-Bold-67" x="1457.421875"/>
    </g>
   </g>
   <g id="text_12">
    <!-- Score = α·CF + β·CB + γ·Popularity  →  Sort giảm dần -->
    <g style="fill: #ffffff" transform="translate(313.696563 528.766772) scale(0.1 -0.1)">
     <defs>
      <path id="DejaVuSans-Bold-3d" d="M 678 3084 
L 4684 3084 
L 4684 2350 
L 678 2350 
L 678 3084 
z
M 678 1663 
L 4684 1663 
L 4684 922 
L 678 922 
L 678 1663 
z
" transform="scale(0.015625)"/>
      <path id="DejaVuSans-Bold-b7" d="M 653 2828 
L 1778 2828 
L 1778 1619 
L 653 1619 
L 653 2828 
z
" transform="scale(0.015625)"/>
      <path id="DejaVuSans-Bold-2192" d="M 5050 2225 
L 5050 1788 
L 3822 559 
L 3369 1013 
L 3988 1631 
L 366 1631 
L 366 2381 
L 3988 2381 
L 3369 3000 
L 3822 3453 
L 5050 2225 
z
" transform="scale(0.015625)"/>
      <path id="DejaVuSans-Bold-1ea3" d="M 2462 3944 
L 1953 3944 
L 1953 4097 
Q 1953 4188 2025 4303 
Q 2075 4384 2247 4519 
L 2347 4597 
Q 2409 4647 2459 4706 
Q 2534 4788 2537 4856 
Q 2537 4975 2400 5028 
Q 2281 5075 2078 5075 
Q 1965 5075 1827 5047 
Q 1690 5019 1418 4909 
L 1418 5272 
Q 1668 5341 1829 5369 
Q 1990 5397 2143 5397 
Q 2553 5397 2778 5250 
Q 3003 5103 3003 4825 
Q 3003 4681 2934 4569 
Q 2862 4447 2709 4334 
L 2609 4259 
Q 2515 4191 2487 4147 
Q 2462 4109 2462 4069 
L 2462 3944 
z
M 2106 1575 
Q 1756 1575 1579 1456 
Q 1403 1338 1403 1106 
Q 1403 894 1545 773 
Q 1688 653 1941 653 
Q 2256 653 2472 879 
Q 2688 1106 2688 1447 
L 2688 1575 
L 2106 1575 
z
M 3816 1997 
L 3816 0 
L 2688 0 
L 2688 519 
Q 2463 200 2181 54 
Q 1900 -91 1497 -91 
Q 953 -91 614 226 
Q 275 544 275 1050 
Q 275 1666 698 1953 
Q 1122 2241 2028 2241 
L 2688 2241 
L 2688 2328 
Q 2688 2594 2478 2717 
Q 2269 2841 1825 2841 
Q 1466 2841 1156 2769 
Q 847 2697 581 2553 
L 581 3406 
Q 941 3494 1303 3539 
Q 1666 3584 2028 3584 
Q 2975 3584 3395 3211 
Q 3816 2838 3816 1997 
z
" transform="scale(0.015625)"/>
      <path id="DejaVuSans-Bold-1ea7" d="M 2106 1575 
Q 1756 1575 1579 1456 
Q 1403 1338 1403 1106 
Q 1403 894 1545 773 
Q 1688 653 1941 653 
Q 2256 653 2472 879 
Q 2688 1106 2688 1447 
L 2688 1575 
L 2106 1575 
z
M 3816 1997 
L 3816 0 
L 2688 0 
L 2688 519 
Q 2463 200 2181 54 
Q 1900 -91 1497 -91 
Q 953 -91 614 226 
Q 275 544 275 1050 
Q 275 1666 698 1953 
Q 1122 2241 2028 2241 
L 2688 2241 
L 2688 2328 
Q 2688 2594 2478 2717 
Q 2269 2841 1825 2841 
Q 1466 2841 1156 2769 
Q 847 2697 581 2553 
L 581 3406 
Q 941 3494 1303 3539 
Q 1666 3584 2028 3584 
Q 2975 3584 3395 3211 
Q 3816 2838 3816 1997 
z
M 1607 4769 
L 2569 4769 
L 3266 3944 
L 2710 3944 
L 2088 4447 
L 1466 3944 
L 910 3944 
L 1607 4769 
z
M 3201 5601 
L 3819 4776 
L 3207 4776 
L 2316 5601 
L 3201 5601 
z
" transform="scale(0.015625)"/>
     </defs>
     <use xlink:href="#DejaVuSans-Bold-53"/>
     <use xlink:href="#DejaVuSans-Bold-63" x="72.021484"/>
     <use xlink:href="#DejaVuSans-Bold-6f" x="131.298828"/>
     <use xlink:href="#DejaVuSans-Bold-72" x="200"/>
     <use xlink:href="#DejaVuSans-Bold-65" x="249.316406"/>
     <use xlink:href="#DejaVuSans-Bold-20" x="317.138672"/>
     <use xlink:href="#DejaVuSans-Bold-3d" x="351.953125"/>
     <use xlink:href="#DejaVuSans-Bold-20" x="435.742188"/>
     <use xlink:href="#DejaVuSans-Bold-3b1" x="470.556641"/>
     <use xlink:href="#DejaVuSans-Bold-b7" x="539.257812"/>
     <use xlink:href="#DejaVuSans-Bold-43" x="577.246094"/>
     <use xlink:href="#DejaVuSans-Bold-46" x="650.634766"/>
     <use xlink:href="#DejaVuSans-Bold-20" x="718.945312"/>
     <use xlink:href="#DejaVuSans-Bold-2b" x="753.759766"/>
     <use xlink:href="#DejaVuSans-Bold-20" x="837.548828"/>
     <use xlink:href="#DejaVuSans-Bold-3b2" x="872.363281"/>
     <use xlink:href="#DejaVuSans-Bold-b7" x="943.945312"/>
     <use xlink:href="#DejaVuSans-Bold-43" x="981.933594"/>
     <use xlink:href="#DejaVuSans-Bold-42" x="1055.322266"/>
     <use xlink:href="#DejaVuSans-Bold-20" x="1131.542969"/>
     <use xlink:href="#DejaVuSans-Bold-2b" x="1166.357422"/>
     <use xlink:href="#DejaVuSans-Bold-20" x="1250.146484"/>
     <use xlink:href="#DejaVuSans-Bold-3b3" x="1284.960938"/>
     <use xlink:href="#DejaVuSans-Bold-b7" x="1353.076172"/>
     <use xlink:href="#DejaVuSans-Bold-50" x="1391.064453"/>
     <use xlink:href="#DejaVuSans-Bold-6f" x="1464.355469"/>
     <use xlink:href="#DejaVuSans-Bold-70" x="1533.056641"/>
     <use xlink:href="#DejaVuSans-Bold-75" x="1604.638672"/>
     <use xlink:href="#DejaVuSans-Bold-6c" x="1675.830078"/>
     <use xlink:href="#DejaVuSans-Bold-61" x="1710.107422"/>
     <use xlink:href="#DejaVuSans-Bold-72" x="1777.587891"/>
     <use xlink:href="#DejaVuSans-Bold-69" x="1826.904297"/>
     <use xlink:href="#DejaVuSans-Bold-74" x="1861.181641"/>
     <use xlink:href="#DejaVuSans-Bold-79" x="1908.984375"/>
     <use xlink:href="#DejaVuSans-Bold-20" x="1974.169922"/>
     <use xlink:href="#DejaVuSans-Bold-20" x="2008.984375"/>
     <use xlink:href="#DejaVuSans-Bold-2192" x="2043.798828"/>
     <use xlink:href="#DejaVuSans-Bold-20" x="2127.587891"/>
     <use xlink:href="#DejaVuSans-Bold-20" x="2162.402344"/>
     <use xlink:href="#DejaVuSans-Bold-53" x="2197.216797"/>
     <use xlink:href="#DejaVuSans-Bold-6f" x="2269.238281"/>
     <use xlink:href="#DejaVuSans-Bold-72" x="2337.939453"/>
     <use xlink:href="#DejaVuSans-Bold-74" x="2387.255859"/>
     <use xlink:href="#DejaVuSans-Bold-20" x="2435.058594"/>
     <use xlink:href="#DejaVuSans-Bold-67" x="2469.873047"/>
     <use xlink:href="#DejaVuSans-Bold-69" x="2541.455078"/>
     <use xlink:href="#DejaVuSans-Bold-1ea3" x="2575.732422"/>
     <use xlink:href="#DejaVuSans-Bold-6d" x="2643.212891"/>
     <use xlink:href="#DejaVuSans-Bold-20" x="2747.412109"/>
     <use xlink:href="#DejaVuSans-Bold-64" x="2782.226562"/>
     <use xlink:href="#DejaVuSans-Bold-1ea7" x="2853.808594"/>
     <use xlink:href="#DejaVuSans-Bold-6e" x="2921.289062"/>
    </g>
   </g>
   <g id="text_13">
    <!-- Diversity filter (max 2/điểm đến)  →  Trả kết quả -->
    <g style="fill: #ffffff" transform="translate(328.124687 605.624631) scale(0.1 -0.1)">
     <defs>
      <path id="DejaVuSans-Bold-44" d="M 1791 3756 
L 1791 909 
L 2222 909 
Q 2959 909 3348 1275 
Q 3738 1641 3738 2338 
Q 3738 3031 3350 3393 
Q 2963 3756 2222 3756 
L 1791 3756 
z
M 588 4666 
L 1856 4666 
Q 2919 4666 3439 4514 
Q 3959 4363 4331 4000 
Q 4659 3684 4818 3271 
Q 4978 2859 4978 2338 
Q 4978 1809 4818 1395 
Q 4659 981 4331 666 
Q 3956 303 3431 151 
Q 2906 0 1856 0 
L 588 0 
L 588 4666 
z
" transform="scale(0.015625)"/>
      <path id="DejaVuSans-Bold-78" d="M 1422 1791 
L 159 3500 
L 1344 3500 
L 2059 2463 
L 2784 3500 
L 3969 3500 
L 2706 1797 
L 4031 0 
L 2847 0 
L 2059 1106 
L 1281 0 
L 97 0 
L 1422 1791 
z
" transform="scale(0.015625)"/>
      <path id="DejaVuSans-Bold-32" d="M 1844 884 
L 3897 884 
L 3897 0 
L 506 0 
L 506 884 
L 2209 2388 
Q 2438 2594 2547 2791 
Q 2656 2988 2656 3200 
Q 2656 3528 2436 3728 
Q 2216 3928 1850 3928 
Q 1569 3928 1234 3808 
Q 900 3688 519 3450 
L 519 4475 
Q 925 4609 1322 4679 
Q 1719 4750 2100 4750 
Q 2938 4750 3402 4381 
Q 3866 4013 3866 3353 
Q 3866 2972 3669 2642 
Q 3472 2313 2841 1759 
L 1844 884 
z
" transform="scale(0.015625)"/>
      <path id="DejaVuSans-Bold-1ec3" d="M 4031 1759 
L 4031 1441 
L 1416 1441 
Q 1456 1047 1700 850 
Q 1944 653 2381 653 
Q 2734 653 3104 758 
Q 3475 863 3866 1075 
L 3866 213 
Q 3469 63 3072 -14 
Q 2675 -91 2278 -91 
Q 1328 -91 801 392 
Q 275 875 275 1747 
Q 275 2603 792 3093 
Q 1309 3584 2216 3584 
Q 3041 3584 3536 3087 
Q 4031 2591 4031 1759 
z
M 2881 2131 
Q 2881 2450 2695 2645 
Q 2509 2841 2209 2841 
Q 1884 2841 1681 2658 
Q 1478 2475 1428 2131 
L 2881 2131 
z
M 3814 4392 
L 3305 4392 
L 3305 4545 
Q 3305 4636 3377 4751 
Q 3427 4832 3599 4967 
L 3699 5045 
Q 3761 5095 3811 5154 
Q 3886 5236 3889 5304 
Q 3889 5423 3752 5476 
Q 3633 5523 3430 5523 
Q 3317 5523 3179 5495 
Q 3042 5467 2770 5357 
L 2770 5720 
Q 3020 5789 3181 5817 
Q 3342 5845 3495 5845 
Q 3905 5845 4130 5698 
Q 4355 5551 4355 5273 
Q 4355 5129 4286 5017 
Q 4214 4895 4061 4782 
L 3961 4707 
Q 3867 4639 3839 4595 
Q 3814 4557 3814 4517 
L 3814 4392 
z
M 1695 4769 
L 2657 4769 
L 3354 3944 
L 2798 3944 
L 2176 4447 
L 1554 3944 
L 998 3944 
L 1695 4769 
z
" transform="scale(0.015625)"/>
      <path id="DejaVuSans-Bold-1ebf" d="M 4031 1759 
L 4031 1441 
L 1416 1441 
Q 1456 1047 1700 850 
Q 1944 653 2381 653 
Q 2734 653 3104 758 
Q 3475 863 3866 1075 
L 3866 213 
Q 3469 63 3072 -14 
Q 2675 -91 2278 -91 
Q 1328 -91 801 392 
Q 275 875 275 1747 
Q 275 2603 792 3093 
Q 1309 3584 2216 3584 
Q 3041 3584 3536 3087 
Q 4031 2591 4031 1759 
z
M 2881 2131 
Q 2881 2450 2695 2645 
Q 2509 2841 2209 2841 
Q 1884 2841 1681 2658 
Q 1478 2475 1428 2131 
L 2881 2131 
z
M 1759 4769 
L 2721 4769 
L 3418 3944 
L 2862 3944 
L 2240 4447 
L 1618 3944 
L 1062 3944 
L 1759 4769 
z
M 3519 5601 
L 4404 5601 
L 3513 4776 
L 2901 4776 
L 3519 5601 
z
" transform="scale(0.015625)"/>
     </defs>
     <use xlink:href="#DejaVuSans-Bold-44"/>
     <use xlink:href="#DejaVuSans-Bold-69" x="83.007812"/>
     <use xlink:href="#DejaVuSans-Bold-76" x="117.285156"/>
     <use xlink:href="#DejaVuSans-Bold-65" x="182.470703"/>
     <use xlink:href="#DejaVuSans-Bold-72" x="250.292969"/>
     <use xlink:href="#DejaVuSans-Bold-73" x="299.609375"/>
     <use xlink:href="#DejaVuSans-Bold-69" x="359.130859"/>
     <use xlink:href="#DejaVuSans-Bold-74" x="393.408203"/>
     <use xlink:href="#DejaVuSans-Bold-79" x="441.210938"/>
     <use xlink:href="#DejaVuSans-Bold-20" x="506.396484"/>
     <use xlink:href="#DejaVuSans-Bold-66" x="541.210938"/>
     <use xlink:href="#DejaVuSans-Bold-69" x="584.716797"/>
     <use xlink:href="#DejaVuSans-Bold-6c" x="618.994141"/>
     <use xlink:href="#DejaVuSans-Bold-74" x="653.271484"/>
     <use xlink:href="#DejaVuSans-Bold-65" x="701.074219"/>
     <use xlink:href="#DejaVuSans-Bold-72" x="768.896484"/>
     <use xlink:href="#DejaVuSans-Bold-20" x="818.212891"/>
     <use xlink:href="#DejaVuSans-Bold-28" x="853.027344"/>
     <use xlink:href="#DejaVuSans-Bold-6d" x="898.730469"/>
     <use xlink:href="#DejaVuSans-Bold-61" x="1002.929688"/>
     <use xlink:href="#DejaVuSans-Bold-78" x="1070.410156"/>
     <use xlink:href="#DejaVuSans-Bold-20" x="1134.912109"/>
     <use xlink:href="#DejaVuSans-Bold-32" x="1169.726562"/>
     <use xlink:href="#DejaVuSans-Bold-2f" x="1239.306641"/>
     <use xlink:href="#DejaVuSans-Bold-111" x="1275.830078"/>
     <use xlink:href="#DejaVuSans-Bold-69" x="1347.412109"/>
     <use xlink:href="#DejaVuSans-Bold-1ec3" x="1381.689453"/>
     <use xlink:href="#DejaVuSans-Bold-6d" x="1449.511719"/>
     <use xlink:href="#DejaVuSans-Bold-20" x="1553.710938"/>
     <use xlink:href="#DejaVuSans-Bold-111" x="1588.525391"/>
     <use xlink:href="#DejaVuSans-Bold-1ebf" x="1660.107422"/>
     <use xlink:href="#DejaVuSans-Bold-6e" x="1727.929688"/>
     <use xlink:href="#DejaVuSans-Bold-29" x="1799.121094"/>
     <use xlink:href="#DejaVuSans-Bold-20" x="1844.824219"/>
     <use xlink:href="#DejaVuSans-Bold-20" x="1879.638672"/>
     <use xlink:href="#DejaVuSans-Bold-2192" x="1914.453125"/>
     <use xlink:href="#DejaVuSans-Bold-20" x="1998.242188"/>
     <use xlink:href="#DejaVuSans-Bold-20" x="2033.056641"/>
     <use xlink:href="#DejaVuSans-Bold-54" x="2067.871094"/>
     <use xlink:href="#DejaVuSans-Bold-72" x="2125.083984"/>
     <use xlink:href="#DejaVuSans-Bold-1ea3" x="2174.400391"/>
     <use xlink:href="#DejaVuSans-Bold-20" x="2241.880859"/>
     <use xlink:href="#DejaVuSans-Bold-6b" x="2276.695312"/>
     <use xlink:href="#DejaVuSans-Bold-1ebf" x="2343.199219"/>
     <use xlink:href="#DejaVuSans-Bold-74" x="2411.021484"/>
     <use xlink:href="#DejaVuSans-Bold-20" x="2458.824219"/>
     <use xlink:href="#DejaVuSans-Bold-71" x="2493.638672"/>
     <use xlink:href="#DejaVuSans-Bold-75" x="2565.220703"/>
     <use xlink:href="#DejaVuSans-Bold-1ea3" x="2636.412109"/>
    </g>
   </g>
  </g>
 </g>
 <defs>
  <clipPath id="pc123d7464e">
   <rect x="7.2" y="30.327344" width="912.24" height="600.56"/>
  </clipPath>
 </defs>
</svg>
